<?xml version="1.0" standalone="no"?><!DOCTYPE svg PUBLIC "-//W3C//DTD SVG 1.1//EN" "http://www.w3.org/Graphics/SVG/1.1/DTD/svg11.dtd"><svg t="1529121485466" class="icon" style="" viewBox="0 0 1024 1024" version="1.1" xmlns="http://www.w3.org/2000/svg" p-id="9974" xmlns:xlink="http://www.w3.org/1999/xlink" width="200" height="200"><defs><style type="text/css"></style></defs><path d="M88.6 263.6v131.8h0.2c0 0.4-0.2 0.8-0.2 1.2 0 94.6 189 171.4 422.2 171.4s422.2-76.8 422.2-171.4c0-0.4-0.2-0.8-0.2-1.2h0.2v-131.8c-92.2 76.6-261.2 112.6-422.2 112.6s-330-36-422.2-112.6z m738.8 112.6c19.4 0 35.2 17.2 35.2 38.4s-15.8 38.4-35.2 38.4c-19.4 0-35.2-17.2-35.2-38.4s15.8-38.4 35.2-38.4zM510.8 792.2c-174.2 0-349.4-42.4-422.2-124.2v143.2c0 95.2 189 172.6 422.2 172.6s422.2-77.4 422.2-172.6V668c-72.8 81.8-248 124.2-422.2 124.2z m316.6 76.8c-19.4 0-35.2-17.2-35.2-38.4s15.8-38.4 35.2-38.4c19.4 0 35.2 17.2 35.2 38.4s-15.8 38.4-35.2 38.4z" p-id="9975" fill="#ffffff"></path><path d="M510.8 583c-174.2 0-349.4-42.4-422.2-124.2V602h0.2c0 0.4-0.2 0.8-0.2 1.2 0 94.6 189 171.4 422.2 171.4s422.2-76.8 422.2-171.4c0-0.4-0.2-0.8-0.2-1.2h0.2v-143.2c-72.8 81.6-248 124.2-422.2 124.2z m316.6 76.6c-19.4 0-35.2-17.2-35.2-38.4s15.8-38.4 35.2-38.4c19.4 0 35.2 17.2 35.2 38.4s-15.8 38.4-35.2 38.4zM510.8 44.4c-233.2 0-422.2 70.8-422.2 158.2 0 87.4 189 158.2 422.2 158.2s422.2-71 422.2-158.2c0-87.4-189-158.2-422.2-158.2z" p-id="9976" fill="#ffffff"></path></svg>