<?xml version="1.0" encoding="utf-8"?>
<!-- Generator: Adobe Illustrator 16.0.0, SVG Export Plug-In . SVG Version: 6.00 Build 0)  -->
<!DOCTYPE svg PUBLIC "-//W3C//DTD SVG 1.1//EN" "http://www.w3.org/Graphics/SVG/1.1/DTD/svg11.dtd">
<svg version="1.1" id="图层_1" xmlns="http://www.w3.org/2000/svg" xmlns:xlink="http://www.w3.org/1999/xlink" x="0px" y="0px"
	 width="200px" height="200px" viewBox="0 0 200 200" enable-background="new 0 0 200 200" xml:space="preserve">
<rect x="17.572" y="149.167" fill="#4D4D4D" width="167.928" height="33.5"/>
<g>
	<polygon fill="#FF9800" points="130.09,149.167 106.546,182.374 71.634,182.374 95.189,149.167 	"/>
	<polygon fill="#FF9800" points="184.312,149.167 160.799,182.374 125.856,182.374 149.401,149.167 	"/>
	<polygon fill="#FF9800" points="75.863,149.167 52.334,182.374 17.413,182.374 40.968,149.167 	"/>
</g>
<path fill="#AAAAAA" d="M146.922,80.911c0-2.902-0.295-5.727-0.793-8.493l15.875-9.083l-15.627-26.863l-15.897,9.105
	c-4.331-3.662-9.366-6.542-14.831-8.469V18.896H84.351v18.211c-5.483,1.927-10.496,4.808-14.815,8.469l-15.909-9.105L37.973,63.334
	l15.909,9.105c-0.511,2.744-0.822,5.568-0.822,8.471s0.3,5.727,0.822,8.471l-15.909,9.116l15.653,26.853l15.909-9.106
	c4.32,3.675,9.332,6.555,14.815,8.494v18.188h31.297v-18.188c5.465-1.939,10.5-4.819,14.809-8.482l15.909,9.105l15.66-26.863
	l-15.897-9.094C146.627,86.649,146.922,83.813,146.922,80.911z M100.005,104.168c-12.983,0-23.467-10.409-23.467-23.257
	c0-12.847,10.495-23.257,23.467-23.257c12.967,0,23.456,10.41,23.456,23.257C123.461,93.759,112.972,104.168,100.005,104.168z"/>
</svg>
