<?xml version="1.0" encoding="utf-8"?>
<!-- Generator: Adobe Illustrator 16.0.0, SVG Export Plug-In . SVG Version: 6.00 Build 0)  -->
<!DOCTYPE svg PUBLIC "-//W3C//DTD SVG 1.1//EN" "http://www.w3.org/Graphics/SVG/1.1/DTD/svg11.dtd">
<svg version="1.1" id="图层_1" xmlns="http://www.w3.org/2000/svg" xmlns:xlink="http://www.w3.org/1999/xlink" x="0px" y="0px"
	 width="24px" height="24px" viewBox="262.609 88 24 24" enable-background="new 262.609 88 24 24" xml:space="preserve">
<path fill="#FFFFFF" d="M281.287,95.438v3.511h-2.537l-1.438-9.604l-0.206,0.168l-0.445,0.253l-0.171,0.254l1.302,8.929h-3.29
	l-1.439-9.604l-0.206,0.168l-0.377,0.253l-0.171,0.254l1.268,8.929h-3.015l-1.405-9.604l-0.206,0.168l-0.411,0.253l-0.206,0.254
	l1.336,8.929h-4.42l-2.639-6.261v13.281l2.501-4.999h4.558l-1.336,8.846c0,0.082,0.103,0.25,0.206,0.25l0.411,0.422l0.206,0.087
	l1.439-9.604h2.981l-1.302,8.846c0,0.082,0.069,0.25,0.206,0.25l0.377,0.422l0.206,0.087l1.405-9.604h3.324l-1.268,8.846
	c0,0.082,0.068,0.25,0.171,0.25l0.411,0.422l0.24,0.087l1.37-9.604h2.571v3.312c4.214-2.783,5.071-4.154,5.071-4.154
	C284.547,97.438,283.411,96.869,281.287,95.438z"/>
</svg>
