<?xml version="1.0" standalone="no"?><!DOCTYPE svg PUBLIC "-//W3C//DTD SVG 1.1//EN" "http://www.w3.org/Graphics/SVG/1.1/DTD/svg11.dtd"><svg t="1528694625632" class="icon" style="" viewBox="0 0 1027 1024" version="1.1" xmlns="http://www.w3.org/2000/svg" p-id="1957" xmlns:xlink="http://www.w3.org/1999/xlink" width="200.5859375" height="200"><defs><style type="text/css"></style></defs><path d="M1018.34944 513.376L537.96544 10.208a31.936 31.936 0 0 0-46.176 0L8.94144 513.376a32 32 0 1 0 46.176 44.32l43.008-44.832V991.68a32 32 0 0 0 32 32h223.552a32 32 0 0 0 32-31.904l0.992-319.648h255.008v319.552a32 32 0 0 0 32 32h223.456a32 32 0 0 0 32-32V512.704l42.976 45.024a32.064 32.064 0 0 0 45.248 0.928 32 32 0 0 0 0.928-45.216z m-153.184-58.56v504.832h-159.456v-319.552a32 32 0 0 0-32-32h-318.88a32 32 0 0 0-32 31.904l-0.992 319.648H162.18944V454.784a31.936 31.936 0 0 0-1.024-7.648L514.92544 78.496 866.34944 446.72a32.064 32.064 0 0 0-1.152 8.064z" fill="#ffffff" p-id="1958"></path></svg>