<?xml version="1.0" encoding="utf-8"?>
<!-- Generator: Adobe Illustrator 16.0.0, SVG Export Plug-In . SVG Version: 6.00 Build 0)  -->
<!DOCTYPE svg PUBLIC "-//W3C//DTD SVG 1.1//EN" "http://www.w3.org/Graphics/SVG/1.1/DTD/svg11.dtd">
<svg version="1.1" id="Capa_1" xmlns="http://www.w3.org/2000/svg" xmlns:xlink="http://www.w3.org/1999/xlink" x="0px" y="0px"
	 width="20px" height="20px" viewBox="-2 -2 20 20" enable-background="new -2 -2 20 20" xml:space="preserve">
<polygon fill="#424A60" points="10.64,-0.244 9.398,-0.244 9.398,0.688 6.604,0.688 6.604,-0.244 5.361,-0.244 0.707,-0.244 
	0.707,17.137 15.294,17.137 15.294,-0.244 "/>
<rect x="6.604" y="-0.863" fill="#303644" width="2.793" height="1.552"/>
<polygon fill="#FFFDE7" points="11.568,0.688 11.568,1.618 4.432,1.618 4.432,0.688 1.638,0.688 1.638,16.205 14.362,16.205 
	14.362,0.688 "/>
<polygon fill="#7383BF" points="9.398,-0.244 9.398,0.688 6.604,0.688 6.604,-0.244 4.432,-0.244 4.432,1.618 11.568,1.618 
	11.568,-0.244 "/>
</svg>
