<?xml version="1.0" encoding="utf-8"?>
<!-- Generator: Adobe Illustrator 16.0.0, SVG Export Plug-In . SVG Version: 6.00 Build 0)  -->
<!DOCTYPE svg PUBLIC "-//W3C//DTD SVG 1.1//EN" "http://www.w3.org/Graphics/SVG/1.1/DTD/svg11.dtd">
<svg version="1.1" id="Capa_1" xmlns="http://www.w3.org/2000/svg" xmlns:xlink="http://www.w3.org/1999/xlink" x="0px" y="0px"
	 width="20px" height="20px" viewBox="-2 -2 20 20" enable-background="new -2 -2 20 20" xml:space="preserve">
<polygon fill="#424A60" points="10.64,-0.38 9.397,-0.38 9.397,0.551 6.604,0.551 6.604,-0.38 5.361,-0.38 0.706,-0.38 0.706,17 
	15.294,17 15.294,-0.38 "/>
<rect x="6.604" y="-1" fill="#303644" width="2.793" height="1.551"/>
<polygon fill="#FFFDE7" points="11.566,0.551 11.566,1.483 4.432,1.483 4.432,0.551 1.638,0.551 1.638,16.068 14.36,16.068 
	14.36,0.551 "/>
<polygon fill="#7383BF" points="9.397,-0.38 9.397,0.551 6.604,0.551 6.604,-0.38 4.432,-0.38 4.432,1.483 11.566,1.483 
	11.566,-0.38 "/>
<line fill="none" stroke="#424A60" stroke-miterlimit="10" x1="5.303" y1="8.472" x2="7.349" y2="10.517"/>
<line fill="none" stroke="#424A60" stroke-linecap="square" stroke-miterlimit="10" x1="7.349" y1="10.517" x2="10.697" y2="7.169"/>
</svg>
