<?xml version="1.0" standalone="no"?><!DOCTYPE svg PUBLIC "-//W3C//DTD SVG 1.1//EN" "http://www.w3.org/Graphics/SVG/1.1/DTD/svg11.dtd"><svg t="1539677510282" class="icon" style="" viewBox="0 0 1024 1024" version="1.1" xmlns="http://www.w3.org/2000/svg" p-id="32503" xmlns:xlink="http://www.w3.org/1999/xlink" width="200" height="200"><defs><style type="text/css"></style></defs><path d="M867.36866 550.301328c-21.791305 0-39.4812 17.691941-39.4812 39.511899l0.157589 0.711198-0.157589 0 0 236.94041c0 29.061896-23.588231 52.642964-52.649104 52.642964l-579.119677 0c-29.059849 0-52.649104-23.581068-52.649104-52.642964L143.469576 248.341065c0-29.061896 23.588231-52.621475 52.649104-52.621475l236.912781 0 0-0.181125c21.37482-0.473791 38.668695-17.820877 38.668695-39.32975 0-21.503756-17.293875-38.826284-38.668695-39.301098l0-0.181125L169.791058 116.726491c-58.145281 0-105.292068 47.118134-105.292068 105.292068l0 631.767757c0 58.151421 47.146786 105.294115 105.292068 105.294115l631.768781 0c58.151421 0 105.298208-47.142693 105.298208-105.294115L906.858046 590.525448l-0.157589 0 0.157589-0.474814C906.858046 567.993269 889.167129 550.301328 867.36866 550.301328L867.36866 550.301328zM920.018787 64.918545 630.456902 64.918545c-21.792329 0-39.483246 17.663288-39.483246 39.433104 0 21.797445 17.689894 39.45971 39.483246 39.45971l203.959252 0C626.745371 249.894444 456.930777 463.801255 433.031461 702.742229l-0.213871 0.447185 0.868787 10.635221c0.396019 1.52575 0.841158 3.027963 1.238201 4.581342-0.023536 0.553609-0.079818 1.050935-0.12996 1.582031l0.762363 2.236947 0.12996 0c5.478781 15.210423 19.71911 26.292829 36.82879 26.292829 17.138332 0 31.355125-11.082406 36.827767-26.292829 14.238282-225.362724 177.394223-417.443437 371.187951-513.422396l0 158.523433c0 21.797445 17.689894 39.45971 39.489386 39.45971 21.797445 0 39.4812-17.663288 39.4812-39.45971L959.502034 104.35165C959.50101 82.581834 941.816233 64.918545 920.018787 64.918545L920.018787 64.918545zM920.018787 64.918545" p-id="32504" fill="#ffffff"></path></svg>