<?xml version="1.0" encoding="utf-8"?>
<!-- Generator: Adobe Illustrator 16.0.0, SVG Export Plug-In . SVG Version: 6.00 Build 0)  -->
<!DOCTYPE svg PUBLIC "-//W3C//DTD SVG 1.1//EN" "http://www.w3.org/Graphics/SVG/1.1/DTD/svg11.dtd">
<svg version="1.1" id="图层_1" xmlns="http://www.w3.org/2000/svg" xmlns:xlink="http://www.w3.org/1999/xlink" x="0px" y="0px"
	 width="200px" height="200px" viewBox="0 0 200 200" enable-background="new 0 0 200 200" xml:space="preserve">
<path fill="#FFFFFF" d="M175.055,39.9c16.06,16.05,24.899,37.4,24.899,60.1s-8.851,44.04-24.899,60.1
	c-16.051,16.061-37.4,24.9-60.101,24.9c-2.761,0-5-2.238-5-5s2.239-5,5-5c41.36,0,75-33.641,75-75c0-41.36-33.64-75-75-75
	c-41.359,0-75,33.64-75,75v12.93l21.46-21.459c1.938-1.872,5.01-1.872,6.947,0c1.986,1.918,2.041,5.083,0.122,7.07l-30,30
	c-0.012,0.013-0.023,0.024-0.037,0.037c-1.955,1.935-5.107,1.918-7.042-0.037l-30-30c-1.872-1.938-1.872-5.01,0-6.947
	c1.919-1.986,5.083-2.041,7.069-0.123l21.461,21.459V100c0-22.7,8.85-44.04,24.899-60.1S92.233,15,114.934,15
	c22.701,0,44.051,8.85,60.101,24.9H175.055z"/>
</svg>
