<?xml version="1.0" encoding="utf-8"?>
<!-- Generator: Adobe Illustrator 16.0.0, SVG Export Plug-In . SVG Version: 6.00 Build 0)  -->
<!DOCTYPE svg PUBLIC "-//W3C//DTD SVG 1.1//EN" "http://www.w3.org/Graphics/SVG/1.1/DTD/svg11.dtd">
<svg version="1.1" xmlns="http://www.w3.org/2000/svg" xmlns:xlink="http://www.w3.org/1999/xlink" x="0px" y="0px"
	 width="16px" height="16px" viewBox="0 0 16 16" enable-background="new 0 0 16 16" xml:space="preserve">
<g>
	<path fill="#FFFFFF" d="M5.687,10.85c-0.944,1.297-2.369,2.609-3.585,3.49c-0.208-0.209-0.64-0.561-0.928-0.705
		c1.28-0.783,2.625-1.984,3.473-3.152L5.687,10.85z M8.632,9.441v4.387c0,0.623-0.144,0.912-0.624,1.088
		c-0.513,0.191-1.297,0.191-2.449,0.191c-0.064-0.32-0.24-0.752-0.416-1.057c0.992,0.033,1.841,0.033,2.081,0.033
		c0.271-0.018,0.319-0.08,0.319-0.273V9.521C3.03,9.873,2.438,9.938,1.99,10.113c-0.048-0.223-0.208-0.721-0.32-1.008
		c0.496-0.049,1.217-0.353,2.209-0.849c0.56-0.272,1.776-0.944,3.217-1.825C3.702,6.64,3.222,6.704,2.902,6.816
		c-0.048-0.208-0.192-0.705-0.32-0.96C2.902,5.824,3.286,5.568,3.75,5.2c0.432-0.272,1.665-1.281,2.737-2.417
		c-1.537,0.128-3.074,0.24-4.514,0.304C1.958,2.814,1.83,2.398,1.702,2.158c3.873-0.208,8.547-0.64,11.092-1.265l0.736,0.865
		c-1.488,0.368-3.457,0.656-5.539,0.864C6.887,3.775,5.687,4.863,4.502,5.712l4.002-0.208c0.879-0.576,1.793-1.232,2.61-1.904
		l0.814,0.704C9.513,6.128,7,7.632,4.551,8.817l7.427-0.48c-0.465-0.48-0.928-0.944-1.393-1.361l0.816-0.4
		c1.264,1.072,2.641,2.529,3.297,3.506l-0.848,0.527c-0.256-0.416-0.672-0.928-1.137-1.473L8.632,9.441z M10.97,10.402
		c1.328,1.008,3.008,2.416,3.857,3.313l-0.881,0.656c-0.816-0.912-2.465-2.385-3.793-3.426L10.97,10.402z"/>
</g>
</svg>
