<?xml version="1.0" encoding="utf-8"?>
<!-- Generator: Adobe Illustrator 16.0.0, SVG Export Plug-In . SVG Version: 6.00 Build 0)  -->
<!DOCTYPE svg PUBLIC "-//W3C//DTD SVG 1.1//EN" "http://www.w3.org/Graphics/SVG/1.1/DTD/svg11.dtd">
<svg version="1.1" id="图层_1" xmlns="http://www.w3.org/2000/svg" xmlns:xlink="http://www.w3.org/1999/xlink" x="0px" y="0px"
	 width="200px" height="200px" viewBox="0 0 200 200" enable-background="new 0 0 200 200" xml:space="preserve">
<path fill="#FFFFFF" d="M13.5,123.255l22.269-11.615c2.181-1.136,4.871-0.289,6.007,1.894c0.332,0.636,0.505,1.343,0.504,2.062
	v43.852c0,2.459-1.994,4.453-4.454,4.453H15.558c-2.46,0-4.454-1.994-4.454-4.453v-32.244
	C11.106,125.541,12.029,124.022,13.5,123.255z M113.727,111.524h22.268c2.46,0,4.453,1.994,4.453,4.453v43.852
	c0,2.459-1.993,4.453-4.453,4.453h-22.268c-2.46,0-4.454-1.994-4.454-4.453v-43.861c0-2.458,1.994-4.452,4.454-4.452V111.524z"/>
<path fill="#FFFFFF" d="M61.966,81.088l10.617-9.469c3.629-3.23,9.177-2.957,12.471,0.614l5.397,5.853
	c0.763,0.824,1.186,1.906,1.186,3.028v79.044c0,2.46-1.995,4.454-4.455,4.454H64.914c-2.46,0-4.454-1.994-4.454-4.454V84.41
	c0-1.269,0.542-2.477,1.488-3.322H61.966z M151.289,86.388l22.269-15.08c2.037-1.378,4.807-0.843,6.184,1.195
	c0.498,0.735,0.764,1.604,0.764,2.492v85.164c0,2.46-1.994,4.454-4.454,4.454h-22.267c-2.461,0-4.455-1.994-4.455-4.454V90.075
	C149.33,88.597,150.064,87.215,151.289,86.388z"/>
<path fill="#FFFFFF" d="M8.806,177.849h182.603c4.453,0,6.68,2.227,6.68,6.681l0,0c0,4.453-2.227,6.68-6.68,6.68H8.806
	c-4.453,0-6.68-2.227-6.68-6.68l0,0C2.126,180.075,4.353,177.849,8.806,177.849z"/>
<path fill="#FFFFFF" d="M22.114,93.558c-2.928,2.245-7.122,1.69-9.366-1.237c-2.113-2.756-1.762-6.67,0.806-9.007l70.057-58.548
	l39.21,46.345l49.756-33.198c3.094-2.013,7.231-1.138,9.244,1.955c1.981,3.043,1.167,7.114-1.832,9.162l-59.672,39.807
	L81.989,43.534L22.114,93.558z"/>
<path fill="#FFFFFF" d="M82.577,48.941c7.379,0,13.361-5.982,13.361-13.361s-5.982-13.361-13.361-13.361l0,0
	c-7.378,0.002-13.359,5.987-13.356,13.366C69.224,42.96,75.202,48.938,82.577,48.941z M122.527,93.62
	c7.422,0,13.441-6.018,13.441-13.441s-6.02-13.441-13.441-13.441c-7.424,0-13.442,6.018-13.442,13.441S115.104,93.62,122.527,93.62z
	 M175.891,57.724c7.38,0.002,13.364-5.977,13.366-13.356s-5.978-13.363-13.356-13.366c-0.002,0-0.006,0-0.01,0
	c-7.379,0.002-13.359,5.986-13.356,13.366C162.537,51.743,168.517,57.721,175.891,57.724z M19.905,97.86
	c7.378,0.002,13.363-5.977,13.365-13.356c0.003-7.379-5.977-13.363-13.356-13.366c-0.003,0-0.007,0-0.009,0
	c-7.38,0.002-13.359,5.986-13.357,13.366C6.551,91.879,12.529,97.858,19.905,97.86z"/>
</svg>
