<?xml version="1.0" standalone="no"?><!DOCTYPE svg PUBLIC "-//W3C//DTD SVG 1.1//EN" "http://www.w3.org/Graphics/SVG/1.1/DTD/svg11.dtd"><svg t="1549640257485" class="icon" style="" viewBox="0 0 1024 1024" version="1.1" xmlns="http://www.w3.org/2000/svg" p-id="1187" xmlns:xlink="http://www.w3.org/1999/xlink" width="200" height="200"><defs><style type="text/css"></style></defs><path d="M704 192H128C57.312 192 0 249.312 0 320v576c0 70.688 57.312 128 128 128h576c70.688 0 128-57.312 128-128V320c0-70.688-57.312-128-128-128z m64 704c0 35.312-28.688 64-64 64H128c-35.28 0-64-28.688-64-64V320c0-35.312 28.72-64 64-64h576c35.312 0 64 28.688 64 64v576z" fill="#ffffff" p-id="1188"></path><path d="M192 448h448v-64H192v64zM192 576h448v-64H192v64zM192 704h448v-64H192v64zM192 832h256v-64H192v64z" fill="#ffffff" p-id="1189"></path><path d="M896 0H320c-70.688 0-128 57.312-128 128h64c0-35.312 28.72-64 64-64h576c35.312 0 64 28.688 64 64v576c0 35.312-28.688 64-64 64v64c70.688 0 128-57.312 128-128V128c0-70.688-57.312-128-128-128z" fill="#ffffff" p-id="1190"></path></svg>