<?xml version="1.0" standalone="no"?><!DOCTYPE svg PUBLIC "-//W3C//DTD SVG 1.1//EN" "http://www.w3.org/Graphics/SVG/1.1/DTD/svg11.dtd"><svg t="1533471896640" class="icon" style="" viewBox="0 0 1024 1024" version="1.1" xmlns="http://www.w3.org/2000/svg" p-id="9781" xmlns:xlink="http://www.w3.org/1999/xlink" width="200" height="200"><defs><style type="text/css"></style></defs><path d="M826.704 920.185H190.299c-14.643 0-26.492-11.849-26.492-26.492s11.849-26.492 26.492-26.492h636.405c14.643 0 26.492 11.849 26.492 26.492s-11.849 26.492-26.492 26.492zM936.346 130.703H80.651c-23.368 0-42.319 18.951-42.319 42.325v531.278c0 23.375 18.951 42.312 42.319 42.312h855.696c23.362 0 42.312-18.938 42.312-42.312V173.029c0-23.375-18.951-42.326-42.313-42.326zM412.041 584.354h-52.984V452.929h52.984v131.425z m81.96 0h-52.984v-231.03h52.984v231.03z m81.96 0h-52.984V381.99h52.984v202.364z m81.96 0h-52.984V292.993h52.984v291.361z" p-id="9782" fill="#ffffff"></path></svg>