<?xml version="1.0" standalone="no"?><!DOCTYPE svg PUBLIC "-//W3C//DTD SVG 1.1//EN" "http://www.w3.org/Graphics/SVG/1.1/DTD/svg11.dtd"><svg t="1547603435238" class="icon" style="" viewBox="0 0 1024 1024" version="1.1" xmlns="http://www.w3.org/2000/svg" p-id="18830" xmlns:xlink="http://www.w3.org/1999/xlink" width="200" height="200"><defs><style type="text/css"></style></defs><path d="M530.233785 824.466936c-205.565837 0-372.207645-77.252006-372.207644-172.566208v172.566208c0 95.314201 166.641808 172.566207 372.207644 172.566207s372.207645-77.252006 372.207645-172.566207v-172.548145c0 95.296139-166.641808 172.548145-372.207645 172.548145z" fill="#ffffff" p-id="18831"></path><path d="M530.233785 617.401937c-205.565837 0-372.207645-77.252006-372.207644-172.566208v172.566208c0 95.314201 166.641808 172.566207 372.207644 172.566207s372.207645-77.252006 372.207645-172.566207v-172.548146c0 95.296139-166.641808 172.548145-372.207645 172.548146z" fill="#ffffff" p-id="18832"></path><path d="M530.233785 410.336938c-205.565837 0-372.207645-77.252006-372.207644-172.566208v172.566208c0 95.314201 166.641808 172.566207 372.207644 172.566207s372.207645-77.252006 372.207645-172.566207v-172.566208c0 95.314201-166.641808 172.566207-372.207645 172.566208z" fill="#ffffff" p-id="18833"></path><path d="M158.026141 203.271938c0 95.296139 166.641808 172.566207 372.207644 172.566208s372.207645-77.252006 372.207645-172.566208S735.799623 30.705731 530.233785 30.705731 158.026141 107.957737 158.026141 203.271938z" fill="#ffffff" p-id="18834"></path></svg>