<?xml version="1.0" encoding="utf-8"?>
<!-- Generator: Adobe Illustrator 16.0.0, SVG Export Plug-In . SVG Version: 6.00 Build 0)  -->
<!DOCTYPE svg PUBLIC "-//W3C//DTD SVG 1.1//EN" "http://www.w3.org/Graphics/SVG/1.1/DTD/svg11.dtd">
<svg version="1.1" xmlns="http://www.w3.org/2000/svg" xmlns:xlink="http://www.w3.org/1999/xlink" x="0px" y="0px"
	 width="200px" height="200px" viewBox="0 0 200 200" enable-background="new 0 0 200 200" xml:space="preserve">
<g>
	<path fill="#FFFFFF" d="M62.157,56.45c0.788,0.412,1.82,0.549,2.808,0.554c16.936,0.003,33.872-0.005,50.808,0.006
		c1.496-0.006,3.18,0.104,4.439-0.529c1.769-0.766,2.385-2.393,1.465-3.626C110.334,37.059,99.009,21.259,87.669,5.464
		c-0.94-1.458-2.028-3.251-4.82-3.46h-53.7c-2.948,0.151-5.084,2.382-3.704,4.137c11.376,15.852,22.748,31.707,34.128,47.56
		C60.313,54.653,60.773,55.788,62.157,56.45z M79.662,7.898c10.308,14.462,20.676,28.908,31.08,43.342
		c-14.336-0.037-28.672,0.018-43.008-0.026c-0.084-0.07-0.256-0.208-0.344-0.278C57.058,36.58,46.777,22.207,36.441,7.854
		C50.845,7.898,65.257,7.807,79.662,7.898z"/>
	<path fill="#FFFFFF" d="M170.953,2.004h-53.731c-1.908,0.18-3.177,1.148-4.169,2.135c-4.02,3.538-8.075,7.058-12.107,10.59
		c-1.084,0.891-1.192,2.161-0.412,3.164c7.032,10.109,14.016,20.236,21.053,30.345c0.576,0.797,0.972,1.71,2.051,2.294
		c1.248,0.677,3.08,0.921,4.576,0.448c1.568-0.417,2.36-1.453,3.248-2.317c14.24-13.985,28.437-27.989,42.681-41.97
		c0.584-0.528,0.916-1.164,0.827-1.82C175.09,3.405,173.094,2.197,170.953,2.004z"/>
	<path fill="#FFFFFF" d="M122.352,60.716c-15.387-5.161-32.563-4.78-47.698,1.086h0C61.218,66.948,49.48,76.333,41.422,88.241
		c-7.431,10.93-11.769,23.964-12.247,37.179c-0.721,14.764,3.288,29.744,11.362,42.141c7.482,11.604,18.407,20.964,31.055,26.522
		c8.28,3.643,17.275,5.676,26.321,5.917H102c18.978-0.392,37.549-9,50.259-23.073c11.326-12.3,17.984-28.695,18.645-45.388
		c0.611-15.042-3.562-30.269-11.959-42.784C150.288,75.712,137.223,65.641,122.352,60.716z M128.29,165.338
		c-9.354-5.096-18.855-9.912-28.189-15.032c-9.489,4.972-18.958,9.988-28.406,15.037c1.945-10.556,3.607-21.166,5.465-31.739
		c-7.652-7.458-15.206-15.011-22.91-22.412c10.554-1.584,21.139-2.993,31.683-4.677c4.688-9.571,9.258-19.209,14.115-28.688
		c4.569,9.587,9.366,19.065,13.94,28.653c10.544,1.719,21.135,3.163,31.708,4.676c-7.646,7.468-15.276,14.95-22.897,22.441
		C124.637,144.172,126.406,154.763,128.29,165.338z"/>
</g>
</svg>
