<?xml version="1.0" encoding="utf-8"?>
<!-- Generator: Adobe Illustrator 16.0.0, SVG Export Plug-In . SVG Version: 6.00 Build 0)  -->
<!DOCTYPE svg PUBLIC "-//W3C//DTD SVG 1.1//EN" "http://www.w3.org/Graphics/SVG/1.1/DTD/svg11.dtd">
<svg version="1.1" id="Capa_1" xmlns="http://www.w3.org/2000/svg" xmlns:xlink="http://www.w3.org/1999/xlink" x="0px" y="0px"
	 width="200px" height="200px" viewBox="0 0 200 200" enable-background="new 0 0 200 200" xml:space="preserve">
<polygon fill="#424A5F" points="177.586,48.276 129.311,0 22.414,0 22.414,200 177.586,200 "/>
<g>
	<path fill="#FFFFFF" d="M56.896,79.311h86.207c1.903,0,3.448-1.542,3.448-3.448c0-1.907-1.545-3.449-3.448-3.449H56.896
		c-1.903,0-3.448,1.542-3.448,3.449C53.448,77.769,54.993,79.311,56.896,79.311z"/>
	<path fill="#FFFFFF" d="M56.896,51.724h34.483c1.903,0,3.448-1.542,3.448-3.448s-1.545-3.448-3.448-3.448H56.896
		c-1.903,0-3.448,1.542-3.448,3.448S54.993,51.724,56.896,51.724z"/>
	<path fill="#FFFFFF" d="M143.104,100H56.896c-1.903,0-3.448,1.541-3.448,3.448s1.545,3.448,3.448,3.448h86.207
		c1.903,0,3.448-1.541,3.448-3.448S145.007,100,143.104,100z"/>
	<path fill="#FFFFFF" d="M143.104,127.586H56.896c-1.903,0-3.448,1.541-3.448,3.449c0,1.906,1.545,3.447,3.448,3.447h86.207
		c1.903,0,3.448-1.541,3.448-3.447C146.552,129.127,145.007,127.586,143.104,127.586z"/>
	<path fill="#FFFFFF" d="M143.104,155.172H56.896c-1.903,0-3.448,1.542-3.448,3.449c0,1.906,1.545,3.447,3.448,3.447h86.207
		c1.903,0,3.448-1.541,3.448-3.447C146.552,156.714,145.007,155.172,143.104,155.172z"/>
</g>
</svg>
