<?xml version="1.0" encoding="utf-8"?>
<!-- Generator: Adobe Illustrator 16.0.0, SVG Export Plug-In . SVG Version: 6.00 Build 0)  -->
<!DOCTYPE svg PUBLIC "-//W3C//DTD SVG 1.1//EN" "http://www.w3.org/Graphics/SVG/1.1/DTD/svg11.dtd">
<svg version="1.1" xmlns="http://www.w3.org/2000/svg" xmlns:xlink="http://www.w3.org/1999/xlink" x="0px" y="0px"
	 width="24px" height="24px" viewBox="0 0 24 24" enable-background="new 0 0 24 24" xml:space="preserve">
<path fill="#FFFFFF" d="M17.813,7.445v3.227h-1.611l-1.876-7.926c-0.08-0.339-0.493-0.54-0.923-0.448
	c-0.429,0.092-0.713,0.443-0.631,0.782l1.795,7.592h-2.482L9.767,0.885C9.679,0.51,9.259,0.281,8.829,0.373
	C8.4,0.466,8.124,0.845,8.213,1.219l2.236,9.453H7.476L5.783,3.52C5.705,3.192,5.295,3.001,4.865,3.093
	C4.436,3.186,4.151,3.527,4.229,3.855l1.613,6.817H2.309L0.375,5.808v4.865v2.641v4.864l1.935-4.864H5.82l-1.591,6.726
	c-0.078,0.328,0.207,0.668,0.636,0.761c0.43,0.093,0.84-0.099,0.918-0.428l1.67-7.059h2.995l-2.236,9.452
	C8.124,23.139,8.4,23.518,8.829,23.61c0.43,0.093,0.85-0.136,0.938-0.511l2.317-9.786h2.481l-1.795,7.591
	c-0.081,0.338,0.203,0.688,0.632,0.782c0.429,0.093,0.843-0.107,0.923-0.448l1.874-7.925h1.613v3.227c0,0,5.844-2.808,5.844-4.547
	S17.813,7.445,17.813,7.445z M20.703,13.533c-0.733,0-1.328-0.711-1.328-1.588c0-0.876,0.595-1.588,1.328-1.588
	s1.328,0.712,1.328,1.588C22.031,12.822,21.437,13.533,20.703,13.533z"/>
</svg>
