<?xml version="1.0" encoding="utf-8"?>
<!-- Generator: Adobe Illustrator 16.0.0, SVG Export Plug-In . SVG Version: 6.00 Build 0)  -->
<!DOCTYPE svg PUBLIC "-//W3C//DTD SVG 1.1//EN" "http://www.w3.org/Graphics/SVG/1.1/DTD/svg11.dtd">
<svg version="1.1" id="Capa_1" xmlns="http://www.w3.org/2000/svg" xmlns:xlink="http://www.w3.org/1999/xlink" x="0px" y="0px"
	 width="16px" height="16px" viewBox="0 0 16 16" enable-background="new 0 0 16 16" xml:space="preserve">
<g>
	<path fill="#EBBA16" d="M13.533,3.792H6.73L5.384,1.907H0.465C0.208,1.907,0,2.116,0,2.373v11.504c0.019,0,0.037,0,0.056,0.003
		l2.696-7.354c0.049-0.185,0.216-0.312,0.406-0.312H14V4.257C14,4,13.79,3.792,13.533,3.792z"/>
</g>
<path fill="#EFCE4A" d="M12.779,14.241H0.432c-0.284,0-0.491-0.271-0.417-0.544l2.804-7.688C2.87,5.821,3.041,5.69,3.236,5.69
	h12.348C15.867,5.69,16,5.961,16,6.234l-2.805,7.689C13.145,14.109,12.975,14.241,12.779,14.241z"/>
</svg>
