<?xml version="1.0" encoding="utf-8"?>
<!-- Generator: Adobe Illustrator 16.0.0, SVG Export Plug-In . SVG Version: 6.00 Build 0)  -->
<!DOCTYPE svg PUBLIC "-//W3C//DTD SVG 1.1//EN" "http://www.w3.org/Graphics/SVG/1.1/DTD/svg11.dtd">
<svg version="1.1" id="Capa_1" xmlns="http://www.w3.org/2000/svg" xmlns:xlink="http://www.w3.org/1999/xlink" x="0px" y="0px"
	 width="200px" height="200px" viewBox="0 0 200 200" enable-background="new 0 0 200 200" xml:space="preserve">
<polygon fill="#424A5F" points="83.395,136.137 56.583,143.449 63.897,116.637 166.714,13.82 0,13.82 0,199.969 186.148,199.969 
	186.148,33.386 "/>
<rect x="25.124" y="128.502" fill="#FFFFFF" width="135.9" height="26.992"/>
<path fill="#F7E6A1" d="M64.518,135.514c1.348,1.348,1.348,3.525,0,4.874l-1.234,1.233l19.97-5.446l-19.397-19.397l-5.446,19.967
	l1.234-1.234C60.991,134.165,63.173,134.165,64.518,135.514z"/>
<path fill="#424A60" d="M63.284,141.621l1.234-1.233c1.348-1.349,1.348-3.526,0-4.874c-1.348-1.349-3.527-1.349-4.875,0
	l-1.234,1.233l-1.827,6.702L63.284,141.621z"/>
<polygon fill="#EBBA16" points="176.021,43.511 156.523,24.01 63.897,116.637 63.856,116.777 83.253,136.175 83.395,136.137 "/>
<path fill="#ED7161" d="M197.997,11.858l-9.824-9.825c-2.672-2.671-7.005-2.671-9.677,0l-12.224,12.224l19.501,19.5l12.224-12.224
	C200.669,18.863,200.669,14.53,197.997,11.858z"/>
<polygon fill="#F7E6A1" points="156.525,24.015 166.275,14.265 166.275,14.265 "/>
<rect x="157.358" y="21.988" transform="matrix(-0.7071 -0.7071 0.7071 -0.7071 271.7424 170.3241)" fill="#F7E6A1" width="27.577" height="13.789"/>
</svg>
