<?xml version="1.0" standalone="no"?><!DOCTYPE svg PUBLIC "-//W3C//DTD SVG 1.1//EN" "http://www.w3.org/Graphics/SVG/1.1/DTD/svg11.dtd"><svg t="1533904441186" class="icon" style="" viewBox="0 0 1024 1024" version="1.1" xmlns="http://www.w3.org/2000/svg" p-id="2225" xmlns:xlink="http://www.w3.org/1999/xlink" width="200" height="200"><defs><style type="text/css"></style></defs><path d="M733.726 647.766l45.254 45.254L960 512l-181.02-181.02-45.256 45.256L837.49 480H384v64h453.49z" p-id="2226" fill="#ffffff"></path><path d="M782.982 783.532C710.458 856.058 614.036 896 511.472 896c-102.574 0-199.012-39.942-271.544-112.47C167.394 711.002 128 614.57 128 512c0-102.562 39.394-198.99 111.93-271.522C312.464 167.946 408.9 128 511.472 128c102.558 0 198.982 39.946 271.51 112.476a392.088 392.088 0 0 1 14.666 15.524h81.462c-80.948-116.056-215.418-192-367.638-192C264.042 64 64 264.596 64 512c0 247.43 200.042 448 447.472 448 152.224 0 286.7-75.94 367.644-192h-81.46a389.584 389.584 0 0 1-14.674 15.532z" p-id="2227" fill="#ffffff"></path></svg>