<?xml version="1.0" encoding="utf-8"?>
<!-- Generator: Adobe Illustrator 16.0.0, SVG Export Plug-In . SVG Version: 6.00 Build 0)  -->
<!DOCTYPE svg PUBLIC "-//W3C//DTD SVG 1.1//EN" "http://www.w3.org/Graphics/SVG/1.1/DTD/svg11.dtd">
<svg version="1.1" xmlns="http://www.w3.org/2000/svg" xmlns:xlink="http://www.w3.org/1999/xlink" x="0px" y="0px"
	 width="200px" height="200px" viewBox="0 0 200 200" enable-background="new 0 0 200 200" xml:space="preserve">
<path fill="#1296DB" d="M62.233,140.929H36.416c-2.119,0-3.847,1.738-3.847,3.869c0,2.13,1.728,3.868,3.847,3.868h25.818
	c2.119,0,3.847-1.738,3.847-3.868C66.08,142.667,64.353,140.929,62.233,140.929z M36.383,49.942h99.719
	c2.118,0,3.846-1.737,3.846-3.868c0-2.131-1.728-3.868-3.846-3.868H36.383c-2.119,0-3.846,1.737-3.846,3.868
	C32.537,48.238,34.264,49.942,36.383,49.942z M36.383,81.146H85.15c2.119,0,3.847-1.737,3.847-3.868c0-2.13-1.729-3.868-3.847-3.868
	H36.383c-2.119,0-3.846,1.737-3.846,3.868C32.537,79.409,34.264,81.146,36.383,81.146z M62.233,107.137H36.416
	c-2.119,0-3.847,1.738-3.847,3.868s1.728,3.869,3.847,3.869h25.818c2.119,0,3.847-1.739,3.847-3.869S64.353,107.137,62.233,107.137z
	 M143.598,84.259c-31.913,0-57.796,26.025-57.796,58.114c0,32.087,25.883,58.112,57.796,58.112
	c31.915,0,57.797-26.025,57.797-58.112C201.427,110.284,175.544,84.259,143.598,84.259z M143.598,192.191
	c-27.349,0-49.548-22.288-49.548-49.818c0-27.499,22.2-49.821,49.548-49.821c27.352,0,49.55,22.322,49.55,49.821
	C193.147,169.871,170.98,192.191,143.598,192.191z"/>
<path fill="#1296DB" d="M165.634,112.513c-1.498-1.508-3.944-1.508-5.443,0l-16.656,16.782l-16.496-16.586
	c-1.499-1.507-3.944-1.541-5.443-0.031c-1.5,1.506-1.532,3.965-0.032,5.473l16.364,16.585h-13.334c-2.118,0-3.846,1.737-3.846,3.868
	c0,2.129,1.728,3.866,3.846,3.866h15.387v7.638h-15.679c-2.119,0-3.848,1.736-3.848,3.867c0,2.132,1.729,3.868,3.848,3.868h15.679
	v15.471c0,2.131,1.729,3.867,3.847,3.867c2.119,0,3.848-1.736,3.848-3.867v-15.471h14.864c2.118,0,3.847-1.736,3.847-3.868
	c0-2.131-1.729-3.867-3.847-3.867h-14.831v-7.638h15.157c2.118,0,3.848-1.737,3.848-3.866c0-2.131-1.729-3.868-3.848-3.868h-13.887
	l16.656-16.75C167.135,116.479,167.135,114.021,165.634,112.513z"/>
<path fill="#1296DB" d="M176.783,0.646H16.4c-7.791,0-14.083,6.326-14.083,14.16v164.637c0,7.834,6.292,14.158,14.083,14.158h72.075
	v-0.096c2.478-0.23,4.434-2.427,4.434-5.212c0-2.786-1.956-5.015-4.434-5.212v-0.066h-0.261c-0.032,0-0.065-0.032-0.097-0.032
	c-0.033,0-0.065,0.032-0.098,0.032H25.04c-6.716,0-12.16-5.474-12.16-12.225V23.459c0-6.752,5.444-12.226,12.16-12.226h146.497
	c6.713,0,12.157,5.474,12.157,12.226v63.914c0,0.033-0.032,0.065-0.032,0.098c0,2.655,2.379,4.818,5.282,4.818
	c2.899,0,5.247-2.131,5.279-4.785V18.182C194.223,8.513,186.431,0.646,176.783,0.646L176.783,0.646z"/>
</svg>
