<?xml version="1.0" encoding="utf-8"?>
<!-- Generator: Adobe Illustrator 16.0.0, SVG Export Plug-In . SVG Version: 6.00 Build 0)  -->
<!DOCTYPE svg PUBLIC "-//W3C//DTD SVG 1.1//EN" "http://www.w3.org/Graphics/SVG/1.1/DTD/svg11.dtd">
<svg version="1.1" xmlns="http://www.w3.org/2000/svg" xmlns:xlink="http://www.w3.org/1999/xlink" x="0px" y="0px"
	 width="300px" height="300px" viewBox="-20.703 -50 300 300" enable-background="new -20.703 -50 300 300" xml:space="preserve">
<path fill="#FFFFFF" d="M148.713-29.816h-39.746c-16.46,0-29.807,13.348-29.807,29.808c0,16.46,13.347,29.807,29.807,29.807h39.746
	c16.461,0,29.808-13.346,29.808-29.807S165.174-29.816,148.713-29.816z M148.713,9.929h-39.746c-5.48-0.016-9.919-4.455-9.936-9.937
	c0.017-5.48,4.455-9.919,9.936-9.936h39.746c5.48,0.017,9.92,4.456,9.937,9.936C158.633,5.474,154.193,9.913,148.713,9.929z
	 M148.713,69.543h-39.746c-16.46,0-29.807,13.348-29.807,29.81c0,16.459,13.347,29.806,29.807,29.806h39.746
	c16.461,0,29.808-13.347,29.808-29.806C178.521,82.892,165.174,69.543,148.713,69.543z M148.713,109.288h-39.746
	c-5.48-0.017-9.919-4.455-9.936-9.935c0.017-5.481,4.455-9.921,9.936-9.937h39.746c5.48,0.016,9.92,4.456,9.937,9.937
	C158.633,104.833,154.193,109.271,148.713,109.288z M148.713,168.903h-39.746c-16.46,0-29.807,13.348-29.807,29.809
	c0,16.462,13.347,29.809,29.807,29.809h39.746c16.461,0,29.808-13.347,29.808-29.809
	C178.521,182.251,165.174,168.903,148.713,168.903z M148.713,208.649h-39.746c-5.48-0.017-9.919-4.457-9.936-9.938
	c0.017-5.48,4.455-9.919,9.936-9.935h39.746c5.48,0.016,9.919,4.454,9.937,9.935C158.633,204.192,154.193,208.633,148.713,208.649z
	 M39.417,188.777c-10.632,0-20.601-4.141-28.121-11.626c-7.485-7.518-11.623-17.488-11.623-28.12s4.138-20.6,11.623-28.117
	c7.52-7.52,17.488-11.626,28.121-11.626h19.872V89.416H39.417c-32.921,0-59.616,26.691-59.616,59.613
	c0,32.921,26.692,59.618,59.616,59.618v19.872l29.808-29.809l-29.808-29.81v19.872V188.777z M218.264-9.946h-19.869V9.926h19.869
	c10.631,0,20.603,4.14,28.119,11.623c7.519,7.52,11.626,17.488,11.626,28.12c0,10.631-4.139,20.6-11.626,28.12
	c-7.517,7.486-17.488,11.624-28.119,11.624v-19.87l-29.806,29.811l29.806,29.806v-19.871c32.922,0,59.617-26.696,59.617-59.617
	S251.187-9.944,218.264-9.944V-9.946z"/>
</svg>
