<?xml version="1.0" encoding="utf-8"?>
<!-- Generator: Adobe Illustrator 16.0.0, SVG Export Plug-In . SVG Version: 6.00 Build 0)  -->
<!DOCTYPE svg PUBLIC "-//W3C//DTD SVG 1.1//EN" "http://www.w3.org/Graphics/SVG/1.1/DTD/svg11.dtd">
<svg version="1.1" xmlns="http://www.w3.org/2000/svg" xmlns:xlink="http://www.w3.org/1999/xlink" x="0px" y="0px"
	 width="200px" height="200px" viewBox="0 0 200 200" enable-background="new 0 0 200 200" xml:space="preserve">
<path fill="#FFFFFF" d="M24.92,39.9C40.97,23.85,62.32,15,85.02,15c22.701,0,44.05,8.84,60.1,24.9S170.02,77.3,170.02,100v12.93
	L191.48,91.47c1.986-1.918,5.15-1.864,7.069,0.123c1.872,1.938,1.872,5.01,0,6.947l-30,30c-1.935,1.955-5.087,1.972-7.042,0.037
	c-0.014-0.013-0.025-0.024-0.037-0.037l-30-30c-1.919-1.986-1.864-5.151,0.122-7.07c1.938-1.872,5.01-1.872,6.947,0L160,112.93V100
	c0-41.36-33.641-75-75-75c-41.36,0-75,33.64-75,75c0,41.359,33.64,75,75,75c2.761,0,5,2.238,5,5s-2.239,5-5,5
	c-22.7,0-44.05-8.84-60.1-24.9C8.85,144.04,0,122.7,0,100s8.84-44.05,24.9-60.1H24.92z"/>
</svg>
