<?xml version="1.0" encoding="utf-8"?>
<!-- Generator: Adobe Illustrator 16.0.0, SVG Export Plug-In . SVG Version: 6.00 Build 0)  -->
<!DOCTYPE svg PUBLIC "-//W3C//DTD SVG 1.1//EN" "http://www.w3.org/Graphics/SVG/1.1/DTD/svg11.dtd">
<svg version="1.1" xmlns="http://www.w3.org/2000/svg" xmlns:xlink="http://www.w3.org/1999/xlink" x="0px" y="0px"
	 width="200px" height="200px" viewBox="0 0 200 200" enable-background="new 0 0 200 200" xml:space="preserve">
<path fill="#5C8EED" d="M25.748,57.409c0,17.583,14.253,31.836,31.836,31.836c17.582,0,31.836-14.253,31.836-31.836
	S75.166,25.573,57.584,25.573C40.001,25.573,25.748,39.827,25.748,57.409z"/>
<path fill="#5C8EED" d="M97.232,183.093v-61.23c0-14.258-11.66-25.918-25.918-25.918h-27.48c-14.258,0-25.918,11.66-25.918,25.918
	v61.23H97.232L97.232,183.093z"/>
<path fill="#ABC6F5" d="M89.42,88.601c0,13.225,10.721,23.945,23.945,23.945s23.945-10.721,23.945-23.945
	s-10.721-23.945-23.945-23.945S89.42,75.376,89.42,88.601z"/>
<path fill="#ABC6F5" d="M105.768,117.585h16.27c11.641,0,21.152,9.512,21.152,21.152v44.355h-37.422V117.585z"/>
<path fill="#AAAAAA" d="M181.386,45.367c0-1.374-0.141-2.719-0.375-4.034l7.541-4.313l-7.424-12.765l-7.558,4.326
	c-2.056-1.746-4.453-3.111-7.05-4.03v-8.644h-14.874v8.657c-2.587,0.914-4.977,2.279-7.031,4.025l-7.55-4.326l-7.449,12.757
	l7.558,4.322c-0.233,1.298-0.393,2.651-0.393,4.025c0,1.387,0.143,2.723,0.393,4.03l-7.558,4.326l7.433,12.76l7.566-4.317
	c2.055,1.741,4.444,3.111,7.031,4.034v8.64h14.858v-8.64c2.612-0.923,4.994-2.301,7.039-4.034l7.558,4.326l7.459-12.769l-7.55-4.318
	C181.245,48.105,181.386,46.753,181.386,45.367z M159.098,56.423c-6.182,0-11.149-4.939-11.149-11.049
	c0-6.104,4.985-11.049,11.149-11.049c6.161,0,11.14,4.945,11.14,11.049C170.237,51.484,165.243,56.423,159.098,56.423z"/>
</svg>
