<?xml version="1.0" encoding="utf-8"?>
<!-- Generator: Adobe Illustrator 16.0.0, SVG Export Plug-In . SVG Version: 6.00 Build 0)  -->
<!DOCTYPE svg PUBLIC "-//W3C//DTD SVG 1.1//EN" "http://www.w3.org/Graphics/SVG/1.1/DTD/svg11.dtd">
<svg version="1.1" id="图层_1" xmlns="http://www.w3.org/2000/svg" xmlns:xlink="http://www.w3.org/1999/xlink" x="0px" y="0px"
	 width="200px" height="200px" viewBox="0 0 200 200" enable-background="new 0 0 200 200" xml:space="preserve">
<path fill="#FFFFFF" d="M53.475,41.584c-6.55,0-11.888,5.314-11.888,11.887v59.414c0,6.551,5.314,11.888,11.888,11.888h95.053
	c6.55,0,11.887-5.313,11.887-11.888V53.472c0-6.551-5.313-11.887-11.887-11.887H53.475z M53.475,29.72h95.053
	c13.124,0,23.774,10.65,23.774,23.775v59.413c0,13.125-10.65,23.775-23.774,23.775H53.475c-13.125,0-23.775-10.65-23.775-23.775
	V53.472C29.723,40.348,40.351,29.72,53.475,29.72z"/>
<path fill="#FFFFFF" d="M65.339,77.224c0,6.565,5.322,11.887,11.887,11.887c6.565,0,11.888-5.322,11.888-11.887l0,0
	c0.003-6.565-5.316-11.89-11.881-11.894c-6.565-0.003-11.89,5.316-11.894,11.881C65.339,77.216,65.339,77.219,65.339,77.224z"/>
<path fill="#FFFFFF" d="M112.889,77.224c-0.003,6.565,5.316,11.891,11.881,11.894c6.566,0.004,11.891-5.316,11.894-11.881
	c0-0.005,0-0.008,0-0.013c0.004-6.565-5.315-11.89-11.881-11.894s-11.89,5.316-11.894,11.881
	C112.889,77.216,112.889,77.219,112.889,77.224z"/>
<path fill="#FFFFFF" d="M89.114,29.72h23.774V17.833H89.114V29.72z M89.114,5.945h23.774c6.551,0,11.888,5.314,11.888,11.887v23.775
	h-47.55V17.833C77.227,11.259,82.564,5.945,89.114,5.945z M11.881,65.359c3.275,0,5.932,2.657,5.932,5.932v23.775
	c0,3.276-2.657,5.932-5.932,5.932c-3.276,0-5.933-2.656-5.933-5.932V71.291C5.948,68.016,8.605,65.359,11.881,65.359z
	 M190.123,65.359c3.274,0,5.932,2.657,5.932,5.932v23.775c0,3.276-2.657,5.932-5.932,5.932c-3.276,0-5.934-2.656-5.934-5.932V71.291
	C184.168,68.016,186.824,65.359,190.123,65.359z M112.889,136.637H89.114v23.775H41.587v23.774h118.828v-23.774h-47.526V136.637z
	 M77.227,148.525v-23.752h47.526v23.774h35.64c6.551,0,11.888,5.313,11.888,11.887v23.775c0,6.55-5.313,11.888-11.888,11.888H41.587
	c-6.55,0-11.887-5.314-11.887-11.888v-23.798c0-6.551,5.314-11.887,11.887-11.887H77.227z"/>
</svg>
