<?xml version="1.0" encoding="utf-8"?>
<!-- Generator: Adobe Illustrator 16.0.0, SVG Export Plug-In . SVG Version: 6.00 Build 0)  -->
<!DOCTYPE svg PUBLIC "-//W3C//DTD SVG 1.1//EN" "http://www.w3.org/Graphics/SVG/1.1/DTD/svg11.dtd">
<svg version="1.1" xmlns="http://www.w3.org/2000/svg" xmlns:xlink="http://www.w3.org/1999/xlink" x="0px" y="0px"
	 width="16px" height="16px" viewBox="0 0 16 16" enable-background="new 0 0 16 16" xml:space="preserve">
<path d="M13.051,1.077H2.948C1.872,1.077,1,1.885,1,2.884v10.388c0,0.996,0.872,1.806,1.948,1.806h3.521V6.266H15V2.884
	C15,1.885,14.127,1.077,13.051,1.077z M14.125,5.4h-2.256V3.87h-1V5.4H8.91V3.87h-1V5.4H6.468H5.593v0.865v0.909H3.666v1h1.927
	v1.875H3.666v1h1.927v3.16H2.948c-0.592,0-1.073-0.42-1.073-0.938V2.884c0-0.52,0.481-0.942,1.073-0.942h10.103V1.941
	c0.592,0,1.074,0.422,1.074,0.942V5.4z"/>
</svg>
