<?xml version="1.0" standalone="no"?><!DOCTYPE svg PUBLIC "-//W3C//DTD SVG 1.1//EN" "http://www.w3.org/Graphics/SVG/1.1/DTD/svg11.dtd"><svg t="1543383535814" class="icon" style="" viewBox="0 0 1024 1024" version="1.1" xmlns="http://www.w3.org/2000/svg" p-id="2056" xmlns:xlink="http://www.w3.org/1999/xlink" width="200" height="200"><defs><style type="text/css"></style></defs><path d="M834.645333 237.994667H344.746667c-58.794667 0-106.666667 47.872-106.666667 106.666666v489.984c0 58.794667 47.872 106.666667 106.666667 106.666667h489.984c58.794667 0 106.666667-47.872 106.666666-106.666667V344.661333a106.922667 106.922667 0 0 0-106.752-106.666666z m64 596.650666c0 35.242667-28.757333 64-64 64H344.746667a64 64 0 0 1-64-64V344.661333a64 64 0 0 1 64-64h489.984a64 64 0 0 1 64 64v489.984z" p-id="2057" fill="#ffffff"></path><path d="M776.362667 454.826667L537.856 695.808 427.008 566.869333a21.333333 21.333333 0 0 0-32.256 27.818667l124.586667 145.066667a20.992 20.992 0 0 0 16.128 7.424c0.426667 0 0.853333-0.426667 1.28-0.512 0.512 0 0.853333 0.597333 1.365333 0.597333a21.162667 21.162667 0 0 0 15.189333-6.314667l253.44-256.085333a21.333333 21.333333 0 0 0-30.378666-30.037333zM655.872 67.328H165.802667c-58.794667 0-106.666667 47.872-106.666667 106.666667v489.984h42.666667V173.994667a64 64 0 0 1 64-64h489.984v-42.666667z" p-id="2058" fill="#ffffff"></path></svg>