<?xml version="1.0" encoding="utf-8"?>
<!-- Generator: Adobe Illustrator 16.0.0, SVG Export Plug-In . SVG Version: 6.00 Build 0)  -->
<!DOCTYPE svg PUBLIC "-//W3C//DTD SVG 1.1//EN" "http://www.w3.org/Graphics/SVG/1.1/DTD/svg11.dtd">
<svg version="1.1" xmlns="http://www.w3.org/2000/svg" xmlns:xlink="http://www.w3.org/1999/xlink" x="0px" y="0px"
	 width="200px" height="200px" viewBox="0 0 200 200" enable-background="new 0 0 200 200" xml:space="preserve">
<path fill="#FFFFFF" d="M68.731,124.122H32.065v12.314h35.458C67.676,132.312,68.08,128.198,68.731,124.122L68.731,124.122z
	 M32.065,76.308h79.06c6.617-3.083,13.731-4.926,21.154-5.299v-7.017H32.065V76.308L32.065,76.308z"/>
<path fill="#FFFFFF" d="M20.875,158.009c-4.659,0-6.601-1.944-6.601-6.599V18.886c0-4.654,1.942-6.597,6.601-6.597h122.592
	c4.654,0,6.604,1.943,6.604,6.597v53.008c5.246,0.961,7.532,2.531,12.271,4.631V10.021c0-5.535-4.486-10.021-10.02-10.021H12.022
	C6.487,0,2,4.487,2,10.021v150.322c0,5.533,4.487,10.022,10.022,10.022h63.426c-2.536-4.729-4.528-7.044-5.89-12.357H20.875
	L20.875,158.009z"/>
<path fill="#FFFFFF" d="M32.065,33.928h100.214v12.316H32.065V33.928z M137.271,79.966c-33.105,0-59.943,26.835-59.943,59.943
	c0,33.103,26.84,59.942,59.943,59.942c33.106,0,59.941-26.84,59.941-59.942C197.213,106.801,170.378,79.966,137.271,79.966
	L137.271,79.966z M137.377,188.345c-26.59,0-48.142-21.552-48.142-48.142s21.553-48.144,48.142-48.144
	c26.591,0,48.145,21.554,48.145,48.144S163.968,188.345,137.377,188.345L137.377,188.345z M32.065,94.057v12.314H76.15
	c2.005-4.362,4.32-8.484,6.912-12.314H32.065z"/>
<path fill="#FFFFFF" d="M169.183,116.63l-41.229,41.229l-20.958-20.898l-8.877,8.902l29.835,29.752l50.107-50.107L169.183,116.63z"
	/>
</svg>
