<?xml version="1.0" encoding="utf-8"?>
<!-- Generator: Adobe Illustrator 16.0.0, SVG Export Plug-In . SVG Version: 6.00 Build 0)  -->
<!DOCTYPE svg PUBLIC "-//W3C//DTD SVG 1.1//EN" "http://www.w3.org/Graphics/SVG/1.1/DTD/svg11.dtd">
<svg version="1.1" id="Capa_1" xmlns="http://www.w3.org/2000/svg" xmlns:xlink="http://www.w3.org/1999/xlink" x="0px" y="0px"
	 width="16px" height="16px" viewBox="0 0 16 16" enable-background="new 0 0 16 16" xml:space="preserve">
<g>
	<path fill="#EBBA16" d="M13.867,3.69H6.896L5.517,1.759h-5.04C0.214,1.759,0,1.973,0,2.237v11.788c0.019,0,0.038,0,0.057,0.002
		l2.763-7.535C2.87,6.303,3.041,6.173,3.236,6.173h11.109V4.168C14.345,3.904,14.131,3.69,13.867,3.69z"/>
</g>
<path fill="#EFCE4A" d="M12.779,14.241H0.432c-0.284,0-0.491-0.27-0.417-0.544l2.804-7.688C2.87,5.821,3.041,5.69,3.236,5.69h12.348
	C15.867,5.69,16,5.961,16,6.234l-2.805,7.689C13.145,14.11,12.975,14.241,12.779,14.241z"/>
</svg>
