<?xml version="1.0" standalone="no"?><!DOCTYPE svg PUBLIC "-//W3C//DTD SVG 1.1//EN" "http://www.w3.org/Graphics/SVG/1.1/DTD/svg11.dtd"><svg t="1533043643278" class="icon" style="" viewBox="0 0 1024 1024" version="1.1" xmlns="http://www.w3.org/2000/svg" p-id="1031" xmlns:xlink="http://www.w3.org/1999/xlink" width="200" height="200"><defs><style type="text/css"></style></defs><path d="M896 102.4H576c-14.08 0-25.6 11.52-25.6 25.6v320c0 14.08 11.52 25.6 25.6 25.6h320c14.08 0 25.6-11.52 25.6-25.6V128c0-14.08-11.52-25.6-25.6-25.6z m-25.6 320H601.6V153.6h268.8v268.8z" p-id="1032" fill="#ffffff"></path><path d="M768 550.4H473.6V256c0-14.08-11.52-25.6-25.6-25.6H128c-14.08 0-25.6 11.52-25.6 25.6v640c0 14.08 11.52 25.6 25.6 25.6h640c14.08 0 25.6-11.52 25.6-25.6V576c0-14.08-11.52-25.6-25.6-25.6zM153.6 281.6h268.8v268.8H153.6V281.6z m0 320h268.8v268.8H153.6V601.6z m588.8 268.8H473.6V601.6h268.8v268.8z" p-id="1033" fill="#ffffff"></path></svg>