<?xml version="1.0" standalone="no"?><!DOCTYPE svg PUBLIC "-//W3C//DTD SVG 1.1//EN" "http://www.w3.org/Graphics/SVG/1.1/DTD/svg11.dtd"><svg t="1542775498313" class="icon" style="" viewBox="0 0 1024 1024" version="1.1" xmlns="http://www.w3.org/2000/svg" p-id="3671" xmlns:xlink="http://www.w3.org/1999/xlink" width="200" height="200"><defs><style type="text/css"></style></defs><path d="M516.7 272.5m-163 0a163 163 0 1 0 326 0 163 163 0 1 0-326 0Z" fill="#5C8EED" p-id="3672"></path><path d="M719.7 916V602.5c0-73-59.7-132.7-132.7-132.7H446.3c-73 0-132.7 59.7-132.7 132.7V916h406.1z" fill="#5C8EED" p-id="3673"></path><path d="M229.5 432.2m-122.6 0a122.6 122.6 0 1 0 245.2 0 122.6 122.6 0 1 0-245.2 0Z" fill="#ABC6F5" p-id="3674"></path><path d="M268.5 580.6h-83.3c-59.6 0-108.3 48.7-108.3 108.3V916h191.6V580.6z" fill="#ABC6F5" p-id="3675"></path><path d="M802.3 432.2m-122.6 0a122.6 122.6 0 1 0 245.2 0 122.6 122.6 0 1 0-245.2 0Z" fill="#ABC6F5" p-id="3676"></path><path d="M763.4 580.6h83.3c59.6 0 108.3 48.7 108.3 108.3V916H763.4V580.6z" fill="#ABC6F5" p-id="3677"></path></svg>