<?xml version="1.0" encoding="utf-8"?>
<!-- Generator: Adobe Illustrator 16.0.0, SVG Export Plug-In . SVG Version: 6.00 Build 0)  -->
<!DOCTYPE svg PUBLIC "-//W3C//DTD SVG 1.1//EN" "http://www.w3.org/Graphics/SVG/1.1/DTD/svg11.dtd">
<svg version="1.1" id="Layer_1" xmlns="http://www.w3.org/2000/svg" xmlns:xlink="http://www.w3.org/1999/xlink" x="0px" y="0px"
	 width="16px" height="16px" viewBox="0 0 16 16" enable-background="new 0 0 16 16" xml:space="preserve">
<g>
	<g>
		<path fill="none" stroke="#FFFFFF" stroke-miterlimit="10" d="M11.144,10.894c-0.341-0.34-0.912-0.638-1.811-1.088
			C8.878,9.579,8.125,9.202,7.94,9.028c0.768-0.941,1.211-2.004,1.211-2.936c0-0.632,0-1.418-0.354-2.119
			C8.48,3.342,7.768,2.59,6.184,2.59S3.889,3.342,3.57,3.974C3.216,4.675,3.216,5.461,3.216,6.093c0,0.931,0.445,1.994,1.211,2.936
			C4.243,9.202,3.489,9.579,3.036,9.806c-0.898,0.45-1.47,0.748-1.811,1.088c-0.756,0.756-0.813,2.024-0.816,2.271
			c-0.004,0.258,0.096,0.506,0.276,0.689c0.181,0.185,0.428,0.289,0.686,0.289h9.626c0.259,0,0.504-0.104,0.687-0.289
			c0.181-0.184,0.281-0.432,0.276-0.689C11.956,12.919,11.899,11.651,11.144,10.894z"/>
	</g>
</g>
<path fill="#FFFFFF" d="M15.272,3.951c0-0.14-0.015-0.276-0.039-0.41l0.766-0.438l-0.753-1.295l-0.767,0.439
	c-0.209-0.177-0.451-0.315-0.715-0.408V0.962h-1.509V1.84c-0.265,0.093-0.506,0.231-0.714,0.408l-0.767-0.439l-0.755,1.295
	l0.767,0.438c-0.024,0.132-0.039,0.269-0.039,0.409c0,0.14,0.015,0.276,0.039,0.408l-0.767,0.439l0.755,1.294l0.767-0.439
	c0.208,0.177,0.449,0.316,0.714,0.41V6.94h1.509V6.063c0.264-0.094,0.506-0.232,0.713-0.409l0.768,0.438L16,4.799L15.233,4.36
	C15.258,4.228,15.272,4.091,15.272,3.951z M13.011,5.072c-0.626,0-1.131-0.501-1.131-1.121c0-0.62,0.505-1.121,1.131-1.121
	c0.625,0,1.131,0.501,1.131,1.121C14.142,4.57,13.636,5.072,13.011,5.072z"/>
</svg>
