<svg width="16" height="16" xmlns="http://www.w3.org/2000/svg">

 <g>
  <title>background</title>
  <rect fill="none" id="canvas_background" height="402" width="582" y="-1" x="-1"/>
 </g>
 <g>
  <title>Layer 1</title>
  <g id="svg_1">
   <g id="svg_2">
    <path id="svg_3" d="m15.298896,13.240293c-0.23475,-0.234017 -0.629424,-0.440158 -1.249312,-0.749735c-0.314713,-0.156989 -0.834831,-0.416681 -0.961009,-0.536258c0.530389,-0.649965 0.835565,-1.382827 0.835565,-2.025456c0,-0.435756 0,-0.977882 -0.244287,-1.462055c-0.217877,-0.435755 -0.710854,-0.954407 -1.803177,-0.954407c-1.093057,0 -1.583098,0.518652 -1.803177,0.954407c-0.244287,0.482706 -0.244287,1.025566 -0.244287,1.461322c0,0.64263 0.306643,1.375491 0.835565,2.025456c-0.126911,0.119576 -0.647031,0.380002 -0.959542,0.536258c-0.619154,0.31031 -1.013828,0.515718 -1.249312,0.749734c-0.520853,0.521586 -0.5612,1.396766 -0.562667,1.567693c-0.002934,0.17753 0.066024,0.349193 0.190001,0.47537c0.124711,0.126911 0.295639,0.198804 0.473168,0.198804l6.641971,0c0.178264,0 0.346992,-0.072625 0.473903,-0.198804c0.124711,-0.126912 0.194403,-0.29784 0.190735,-0.47537c-0.004401,-0.170194 -0.042548,-1.043905 -0.564135,-1.566958z" stroke-miterlimit="10" stroke="#FFFFFF" fill="none"/>
   </g>
  </g>
  <path id="svg_4" d="m3.203363,11.698546c-1.822999,-1.518 -1.417,-3.616 -1.417,-3.616c1.635,2.747001 4.026,2.168 4.026,2.168l0,-1.625l2.692001,2.708l-2.692001,2.707999l0,-1.624c-1.781,0.054 -2.609,-0.719 -2.609,-0.719z" fill="#FFFFFF"/>
  <g id="svg_7">
   <g id="svg_6">
    <path id="svg_5" d="m6.916192,5.350105c-0.194108,-0.193502 -0.520452,-0.363953 -1.03302,-0.619934c-0.260226,-0.129809 -0.690297,-0.344542 -0.794631,-0.443416c0.438563,-0.537437 0.690904,-1.143418 0.690904,-1.67479c0,-0.360313 0,-0.808582 -0.201994,-1.20893c-0.180157,-0.360313 -0.587784,-0.789171 -1.490994,-0.789171c-0.903816,0 -1.309018,0.428858 -1.490994,0.789171c-0.201994,0.399135 -0.201994,0.84801 -0.201994,1.208324c0,0.531371 0.253554,1.137353 0.690904,1.67479c-0.104939,0.098874 -0.535011,0.314213 -0.793417,0.443416c-0.51196,0.256587 -0.838305,0.426432 -1.03302,0.619933c-0.430677,0.431284 -0.46404,1.154944 -0.465253,1.296279c-0.002426,0.146795 0.054593,0.288736 0.157106,0.39307c0.10312,0.104939 0.244455,0.164385 0.391249,0.164385l5.492049,0c0.147401,0 0.286917,-0.060052 0.391856,-0.164385c0.10312,-0.10494 0.160746,-0.246275 0.157713,-0.39307c-0.003639,-0.140728 -0.035182,-0.863174 -0.466466,-1.295672z" stroke-miterlimit="10" stroke="#FFFFFF" fill="none"/>
   </g>
  </g>
 </g>
</svg>