<?xml version="1.0" encoding="utf-8"?>
<!-- Generator: Adobe Illustrator 16.0.0, SVG Export Plug-In . SVG Version: 6.00 Build 0)  -->
<!DOCTYPE svg PUBLIC "-//W3C//DTD SVG 1.1//EN" "http://www.w3.org/Graphics/SVG/1.1/DTD/svg11.dtd">
<svg version="1.1" id="Capa_1" xmlns="http://www.w3.org/2000/svg" xmlns:xlink="http://www.w3.org/1999/xlink" x="0px" y="0px"
	 width="16px" height="16px" viewBox="0 0 16 16" enable-background="new 0 0 16 16" xml:space="preserve">
<path fill="#B6CCE0" d="M0,1.893h16v12.215H0V1.893z M14.738,3.154H1.262v9.691h13.477V3.154z"/>
<rect x="1.262" y="3.154" fill="#EAE8DC" width="13.477" height="9.691"/>
<rect x="7.495" y="8.891" fill="#808080" width="6.136" height="0.765"/>
<rect x="7.495" y="7.093" fill="#808080" width="6.136" height="0.765"/>
<rect x="7.495" y="10.592" fill="#808080" width="6.136" height="0.765"/>
<path fill="#C5CAE9" d="M4.162,6.059c-1.144,0-2.07,0.925-2.07,2.069h4.143C6.234,6.984,5.307,6.059,4.162,6.059z"/>
<path fill="#4C5870" d="M3.889,5.336v2.196c0,0.151,0.123,0.274,0.273,0.274c0.152,0,0.273-0.124,0.273-0.274V5.336H3.889z"/>
<circle fill="#CCCCCC" cx="4.16" cy="5.151" r="1.167"/>
</svg>
