<?xml version="1.0" standalone="no"?><!DOCTYPE svg PUBLIC "-//W3C//DTD SVG 1.1//EN" "http://www.w3.org/Graphics/SVG/1.1/DTD/svg11.dtd"><svg t="1547554169478" class="icon" style="" viewBox="0 0 1024 1024" version="1.1" xmlns="http://www.w3.org/2000/svg" p-id="44352" xmlns:xlink="http://www.w3.org/1999/xlink" width="200" height="200"><defs><style type="text/css"></style></defs><path d="M512 959.488c-16.896 0-30.72-13.824-30.72-30.72V94.208c0-16.896 13.824-30.72 30.72-30.72s30.72 13.824 30.72 30.72v834.56c0 16.896-13.824 30.72-30.72 30.72z" fill="#ffffff" p-id="44353"></path><path d="M664.3712 167.1168L534.016 297.472c-11.9808 11.9808-31.5392 11.9808-43.4176 0-11.9808-11.9808-11.9808-31.5392 0-43.4176l130.3552-130.3552c11.9808-11.9808 31.5392-11.9808 43.4176 0 11.9808 11.9808 11.9808 31.4368 0 43.4176z" fill="#ffffff" p-id="44354"></path><path d="M490.5984 297.472L360.2432 167.1168c-11.9808-11.9808-11.9808-31.5392 0-43.4176 11.9808-11.9808 31.5392-11.9808 43.4176 0l130.3552 130.3552c11.9808 11.9808 11.9808 31.5392 0 43.4176-11.8784 11.9808-31.4368 11.9808-43.4176 0z" fill="#ffffff" p-id="44355"></path><path d="M664.3712 856.1664L534.016 725.8112c-11.9808-11.9808-31.5392-11.9808-43.4176 0-11.9808 11.9808-11.9808 31.5392 0 43.4176l130.3552 130.3552c11.9808 11.9808 31.5392 11.9808 43.4176 0 11.9808-11.9808 11.9808-31.5392 0-43.4176z" fill="#ffffff" p-id="44356"></path><path d="M490.5984 725.8112L360.2432 856.1664c-11.9808 11.9808-11.9808 31.5392 0 43.4176 11.9808 11.9808 31.5392 11.9808 43.4176 0l130.3552-130.3552c11.9808-11.9808 11.9808-31.5392 0-43.4176-11.8784-11.9808-31.4368-11.9808-43.4176 0z" fill="#ffffff" p-id="44357"></path><path d="M124.3136 735.1296c-8.4992-14.6432-3.3792-33.4848 11.264-41.984l722.7392-417.28c14.6432-8.4992 33.4848-3.3792 41.984 11.264 8.4992 14.6432 3.3792 33.4848-11.264 41.984L166.2976 746.3936c-14.6432 8.3968-33.4848 3.3792-41.984-11.264z" fill="#ffffff" p-id="44358"></path><path d="M886.6816 470.9376L708.608 423.2192c-16.2816-4.4032-26.112-21.2992-21.7088-37.5808 4.4032-16.2816 21.2992-26.112 37.5808-21.7088L902.5536 411.648c16.2816 4.4032 26.112 21.2992 21.7088 37.5808-4.3008 16.2816-21.1968 26.112-37.5808 21.7088z" fill="#ffffff" p-id="44359"></path><path d="M687.0016 385.6384l47.7184-178.0736c4.4032-16.2816 21.2992-26.112 37.5808-21.7088 16.2816 4.4032 26.112 21.2992 21.7088 37.5808l-47.7184 178.0736c-4.4032 16.2816-21.2992 26.112-37.5808 21.7088-16.384-4.4032-26.112-21.2992-21.7088-37.5808z" fill="#ffffff" p-id="44360"></path><path d="M289.9968 815.4112l47.7184-178.0736c4.4032-16.2816-5.4272-33.28-21.7088-37.5808-16.2816-4.4032-33.28 5.4272-37.5808 21.7088l-47.7184 178.0736c-4.4032 16.2816 5.4272 33.28 21.7088 37.5808 16.2816 4.4032 33.28-5.4272 37.5808-21.7088z" fill="#ffffff" p-id="44361"></path><path d="M316.0064 599.7568l-178.0736-47.7184c-16.2816-4.4032-33.28 5.4272-37.5808 21.7088-4.4032 16.2816 5.4272 33.28 21.7088 37.5808l178.0736 47.7184c16.2816 4.4032 33.28-5.4272 37.5808-21.7088 4.4032-16.2816-5.4272-33.1776-21.7088-37.5808z" fill="#ffffff" p-id="44362"></path><path d="M900.4032 735.1296c8.4992-14.6432 3.3792-33.4848-11.264-41.984L166.4 275.8656c-14.6432-8.4992-33.4848-3.3792-41.984 11.264-8.3968 14.6432-3.3792 33.4848 11.264 41.984l722.7392 417.28c14.6432 8.3968 33.4848 3.3792 41.984-11.264z" fill="#ffffff" p-id="44363"></path><path d="M137.9328 470.9376l178.0736-47.7184c16.2816-4.4032 26.112-21.2992 21.7088-37.5808-4.4032-16.2816-21.2992-26.112-37.5808-21.7088L122.0608 411.648c-16.2816 4.4032-26.112 21.2992-21.7088 37.5808 4.4032 16.2816 21.2992 26.112 37.5808 21.7088z" fill="#ffffff" p-id="44364"></path><path d="M337.7152 385.6384l-47.7184-178.0736c-4.4032-16.2816-21.2992-26.112-37.5808-21.7088-16.2816 4.4032-26.112 21.2992-21.7088 37.5808l47.7184 178.0736c4.4032 16.2816 21.2992 26.112 37.5808 21.7088 16.2816-4.4032 26.112-21.2992 21.7088-37.5808z" fill="#ffffff" p-id="44365"></path><path d="M734.6176 815.4112l-47.7184-178.0736c-4.4032-16.2816 5.4272-33.28 21.7088-37.5808 16.2816-4.4032 33.28 5.4272 37.5808 21.7088l47.7184 178.0736c4.4032 16.2816-5.4272 33.28-21.7088 37.5808-16.2816 4.4032-33.1776-5.4272-37.5808-21.7088z" fill="#ffffff" p-id="44366"></path><path d="M708.7104 599.7568L886.784 552.0384c16.2816-4.4032 33.28 5.4272 37.5808 21.7088 4.4032 16.2816-5.4272 33.28-21.7088 37.5808l-178.0736 47.7184c-16.2816 4.4032-33.28-5.4272-37.5808-21.7088-4.4032-16.2816 5.3248-33.1776 21.7088-37.5808z" fill="#ffffff" p-id="44367"></path></svg>