<?xml version="1.0" standalone="no"?><!DOCTYPE svg PUBLIC "-//W3C//DTD SVG 1.1//EN" "http://www.w3.org/Graphics/SVG/1.1/DTD/svg11.dtd"><svg t="1534133039402" class="icon" style="" viewBox="0 0 1024 1024" version="1.1" xmlns="http://www.w3.org/2000/svg" p-id="7245" xmlns:xlink="http://www.w3.org/1999/xlink" width="200" height="200"><defs><style type="text/css"></style></defs><path d="M295.20896 400.31232c30.40256 0 55.0912 24.80128 55.0912 55.36768 0 30.57664-24.69888 55.37792-55.0912 55.37792-30.42304 0-55.11168-24.80128-55.11168-55.37792-0.01024-30.5664 24.6784-55.36768 55.11168-55.36768z m220.40576 387.60448c32.17408 0 63.26272-3.76832 93.12256-10.15808l129.72032 78.34624-1.7408-128.44032c99.45088-60.07808 164.62848-159.41632 164.62848-271.99488 0-183.47008-172.6976-332.2368-385.73056-332.2368S129.88416 272.18944 129.88416 455.66976c0 183.52128 172.6976 332.24704 385.73056 332.24704z m0-719.85152c243.456 0 440.832 173.568 440.832 387.61472 0 122.35776-64.6144 231.29088-165.31456 302.31552v196.05504L598.016 836.29056a503.74656 503.74656 0 0 1-82.40128 7.00416c-243.456 0-440.832-173.53728-440.832-387.61472 0-214.04672 197.376-387.61472 440.832-387.61472z m220.42624 332.24704c30.40256 0 55.10144 24.80128 55.10144 55.36768 0 30.57664-24.69888 55.37792-55.10144 55.37792-30.43328 0-55.11168-24.80128-55.11168-55.37792 0-30.5664 24.6784-55.36768 55.11168-55.36768z m-220.42624 0c30.42304 0 55.11168 24.80128 55.11168 55.36768 0 30.57664-24.68864 55.37792-55.11168 55.37792-30.4128 0-55.10144-24.80128-55.10144-55.37792 0-30.5664 24.68864-55.36768 55.10144-55.36768z" p-id="7246" fill="#ffffff"></path></svg>