<?xml version="1.0" standalone="no"?><!DOCTYPE svg PUBLIC "-//W3C//DTD SVG 1.1//EN" "http://www.w3.org/Graphics/SVG/1.1/DTD/svg11.dtd"><svg t="1547554253543" class="icon" style="" viewBox="0 0 1024 1024" version="1.1" xmlns="http://www.w3.org/2000/svg" p-id="49563" xmlns:xlink="http://www.w3.org/1999/xlink" width="200" height="200"><defs><style type="text/css"></style></defs><path d="M171.28448 13.17888c-36.85376 8.0384-70.7584 35.87072-87.02976 71.34208-12.15488 26.2656-11.56096 2.54976-10.97728 433.94048l0.58368 394.35264 5.29408 14.30528c7.44448 20.5824 16.27136 34.49856 30.96576 49.38752 14.8992 14.70464 28.81536 23.52128 49.39776 30.96576l14.30528 5.29408 388.66944 0.58368 388.47488 0.38912V135.68h-62.73024v815.36l-335.55456-0.19456c-310.85568 0-336.73216-0.19456-348.68224-3.328-47.43168-12.544-76.63616-60.95872-66.24256-110.5408 7.44448-36.06528 35.87072-64.48128 71.936-71.936 7.24992-1.56672 99.76832-2.1504 313.01632-2.1504h302.81728v-752.64l-320.84992 0.19456c-263.22944-0.01024-323.20512 0.58368-333.39392 2.73408z" fill="#ffffff" p-id="49564"></path><path d="M261.04832 856.95488v31.36512h564.46976v-62.72H261.04832v31.35488z" fill="#ffffff" p-id="49565"></path></svg>