<?xml version="1.0" standalone="no"?><!DOCTYPE svg PUBLIC "-//W3C//DTD SVG 1.1//EN" "http://www.w3.org/Graphics/SVG/1.1/DTD/svg11.dtd"><svg t="1529814776387" class="icon" style="" viewBox="0 0 1024 1024" version="1.1" xmlns="http://www.w3.org/2000/svg" p-id="1948" xmlns:xlink="http://www.w3.org/1999/xlink" width="200" height="200"><defs><style type="text/css"></style></defs><path d="M240.7 301.7c0 16.5 13.5 30 30 30h335.7c16.5 0 30-13.5 30-30s-13.5-30-30-30H270.6c-16.5 0.1-29.9 13.5-29.9 30zM636.3 475.8c0-16.5-13.5-30-30-30H268.4c-16.5 0-30 13.5-30 30s13.5 30 30 30h337.9c16.5-0.1 30-13.6 30-30zM270.6 619.8c-16.5 0-30 13.5-30 30s13.5 30 30 30h279.6c16.5 0 30-13.5 30-30s-13.5-30-30-30H270.6zM672 124h121.1v175.9c0 0.7-0.1 1.3-0.1 2v173.9c0 16.5 13.5 30 30 30s30-13.5 30-30V124c0-33-27-60-59.9-60H672c-16.5 0-30 13.5-30 30s13.5 30 30 30zM373 124h174c16.5 0 30-13.5 30-30s-13.5-30-30-30H373c-16.5 0-30 13.5-30 30s13.5 30 30 30z" p-id="1949" fill="#ffffff"></path><path d="M426 851.7H123.9V124H233c16.5 0 30-13.5 30-30s-13.5-30-30-30H123.9C91 64 64 91 64 124v727.7c0 33 27 60 59.9 60H426c16.5 0 30-13.5 30-30s-13.5-30-30-30zM951.5 862.4l-149.4-265c-25.4-45-91-44.8-116.1 0.4l-147.1 265c-24.3 43.7 7.7 97.2 58.1 97.2h296.6c50.6 0 82.6-53.9 57.9-97.6zM748.4 632.7c15.9 0 29 13 29 29l-11.6 157.5s-3.5 7-8.1 8.1c-2.2 0.6-7 0-10.4 0-9.3 0-12.7-8.1-12.7-8.1l-15.1-157.5c0-15.9 13-29 28.9-29zM750 927c-19.1 0-34.6-15.5-34.6-34.6s15.5-34.6 34.6-34.6 34.6 15.5 34.6 34.6S769.1 927 750 927z" p-id="1950" fill="#ffffff"></path></svg>