<?xml version="1.0" encoding="utf-8"?>
<!-- Generator: Adobe Illustrator 16.0.0, SVG Export Plug-In . SVG Version: 6.00 Build 0)  -->
<!DOCTYPE svg PUBLIC "-//W3C//DTD SVG 1.1//EN" "http://www.w3.org/Graphics/SVG/1.1/DTD/svg11.dtd">
<svg version="1.1" id="图层_1" xmlns="http://www.w3.org/2000/svg" xmlns:xlink="http://www.w3.org/1999/xlink" x="0px" y="0px"
	 width="769px" height="769px" viewBox="0 0 769 769" enable-background="new 0 0 769 769" xml:space="preserve">
<path fill="#FFFFFF" d="M390.465,193.932h-45.844v212.32h168.383v-45.844H390.465V193.932z"/>
<rect x="23.29" y="490.561" fill="#FFFFFF" width="303.901" height="45.846"/>
<rect x="23.29" y="593.588" fill="#FFFFFF" width="303.901" height="45.844"/>
<rect x="23.29" y="696.615" fill="#FFFFFF" width="303.901" height="45.844"/>
<path fill="#FFFFFF" d="M707.324,280.408c5.646-3.328,9.604-8.91,10.871-15.343l28.879-147.145
	c2.438-12.426-5.656-24.473-18.078-26.91c-12.422-2.434-24.475,5.656-26.906,18.078l-16.59,84.523
	c-14.234-22.656-31-43.695-50.185-62.878c-32.896-32.899-71.211-58.727-113.879-76.774c-44.183-18.691-91.108-28.168-139.468-28.168
	c-48.355,0-95.281,9.477-139.469,28.164c-42.664,18.051-80.98,43.879-113.879,76.778c-32.895,32.898-58.727,71.211-76.773,113.878
	c-18.688,44.188-28.164,91.11-28.164,139.469c0,21.047,1.797,41.824,5.367,62.223h46.641c-4.074-20.262-6.164-41.082-6.164-62.223
	c0-83.457,32.5-161.922,91.512-220.933c59.016-59.012,137.473-91.512,220.93-91.512s161.924,32.496,220.936,91.512
	c17.762,17.765,33.102,37.3,45.896,58.195l-98.676-32c-12.043-3.906-24.971,2.691-28.875,14.73
	c-3.906,12.039,2.688,24.969,14.729,28.872l152.648,49.511c2.309,0.746,4.695,1.114,7.07,1.114
	C699.746,283.569,703.762,282.498,707.324,280.408L707.324,280.408z"/>
<rect x="22.588" y="25.58" fill="none" width="724.8" height="717.84"/>
<path fill="#FFFFFF" d="M688.523,444.928c-11.832,60.27-41.219,115.682-85.62,160.082c-58.323,58.324-135.642,90.729-218,91.48
	v45.859c47.32-0.375,93.247-9.836,136.536-28.146c42.668-18.051,80.979-43.879,113.879-76.775
	c32.898-32.898,58.729-71.211,76.776-113.881c10.738-25.387,18.426-51.68,23.031-78.619H688.523L688.523,444.928z"/>
</svg>
