<?xml version="1.0" standalone="no"?><!DOCTYPE svg PUBLIC "-//W3C//DTD SVG 1.1//EN" "http://www.w3.org/Graphics/SVG/1.1/DTD/svg11.dtd"><svg t="1547603497782" class="icon" style="" viewBox="0 0 1024 1024" version="1.1" xmlns="http://www.w3.org/2000/svg" p-id="22806" xmlns:xlink="http://www.w3.org/1999/xlink" width="200" height="200"><defs><style type="text/css"></style></defs><path d="M952.7 251.2l-2.1-2.1-164.4-169c-6.9-7.1-16.5-9.6-25.3-7.8-5.2 0.8-10.1 3.2-14.2 7.1L239.8 563.1c-1.2 1.1-2.2 2.3-3.2 3.6-4.7 5-7.7 11.6-7.7 19v170c0 7.7 3 14.5 7.9 19.5 5.1 5 11.7 8.2 19.1 8.2H422c4.4 0 8.5-1.1 12.1-2.9 2.8-1.2 5.5-3 7.9-5.2L951.2 291c11.6-11 11.8-28.4 1.5-39.8zM413.8 732.7H283.9V597.9l339-323.5 133 131.7-342.1 326.6z m383.1-365.1L666.3 233.1l96-91.6 131.6 133.4-97 92.7z" fill="#ffffff" p-id="22807"></path><path d="M889.3 897.2H118.8V181.8H449v-55H118.9c-30.6 0-55.1 24.8-55.1 55.4v714.6c0 30.7 24.7 55.4 55.1 55.4h770.3c30.6 0 55.1-24.8 55.1-55.4V567h-55v330.2z" fill="#ffffff" p-id="22808"></path><path d="M807.3 787.2c15.2 0 27-12.3 27-27.5 0-14.8-12.1-27.5-27-27.5H641.1c-15.2 0-27 12.3-27 27.5 0 14.8 12.1 27.5 27 27.5h166.2z" fill="#ffffff" p-id="22809"></path></svg>