<?xml version="1.0" standalone="no"?><!DOCTYPE svg PUBLIC "-//W3C//DTD SVG 1.1//EN" "http://www.w3.org/Graphics/SVG/1.1/DTD/svg11.dtd"><svg t="1547553817786" class="icon" style="" viewBox="0 0 1129 1024" version="1.1" xmlns="http://www.w3.org/2000/svg" p-id="13378" xmlns:xlink="http://www.w3.org/1999/xlink" width="220.5078125" height="200"><defs><style type="text/css"></style></defs><path d="M600.107816 909.01127H115.697579a76.92128 76.92128 0 0 1-76.854825-76.854825v-40.282605a76.932356 76.932356 0 0 1 76.854825-76.854825h484.410237a76.943431 76.943431 0 0 1 76.854825 76.854825v40.282605a76.932356 76.932356 0 0 1-76.854825 76.854825zM115.697579 766.255565a25.618275 25.618275 0 0 0-25.618275 25.618275v40.282605a25.618275 25.618275 0 0 0 25.618275 25.618275h484.410237a25.618275 25.618275 0 0 0 25.607199-25.618275v-40.282605a25.618275 25.618275 0 0 0-25.607199-25.618275z m0 0" fill="#ffffff" p-id="13379"></path><path d="M514.148701 757.660761H237.11026L5.238843 395.327752l40.371212-31.233694-0.088606-0.110758a128.246436 128.246436 0 0 0 53.950115 31.012179c42.497761 11.529885 85.981266-3.322733 129.265408-44.303113l22.960088-21.708525zM265.220585 706.413135h157.508643l-182.528826-298.148874c-36.328553 27.689446-74.041577 41.733532-112.496679 41.733532-1.727821 0-3.455643 0-5.183464-0.088606a156.644731 156.644731 0 0 1-23.059771-2.469898z m0 0" fill="#ffffff" p-id="13380"></path><path d="M123.805049 348.986696a123.782897 123.782897 0 1 1 123.771822-123.771822 123.793973 123.793973 0 0 1-123.771822 123.771822z m0-209.132844a85.361023 85.361023 0 1 0 85.338871 85.361022 85.349947 85.349947 0 0 0-85.338871-85.361022z m0 0" fill="#ffffff" p-id="13381"></path><path d="M83.001882 225.214874a40.803167 40.803167 0 1 0 40.803167-40.803167 40.803167 40.803167 0 0 0-40.803167 40.803167z m0 0M467.209553 292.710667H287.372142l15.37318-35.44249c0.686698-1.794276 12.260886-32.917213 0.487334-65.568607l-12.427023-34.334913h176.40392z m-108.653385-51.23655h57.405759v-32.828607h-56.962727a155.636836 155.636836 0 0 1-0.443032 32.828607z m0 0" fill="#ffffff" p-id="13382"></path><path d="M554.165488 320.521946h-50.350488a38.421875 38.421875 0 0 1-38.421875-38.43295V169.304346a38.421875 38.421875 0 0 1 38.421875-38.410799h50.350488a38.421875 38.421875 0 0 1 38.421874 38.432951v112.762498a38.421875 38.421875 0 0 1-38.421874 38.43295z m-37.524737-51.247626h24.721137v-87.166374h-24.721137z m0 0M680.562269 7.531529l159.380448 108.232505q21.187964 14.398512 6.800528 35.586475l-1.428775 2.104398q-14.398512 21.187964-35.586476 6.800528l-159.380448-108.232505q-21.19904-14.398512-6.800528-35.586475l1.428775-2.104398q14.398512-21.19904 35.586476-6.800528z m0 0" fill="#ffffff" p-id="13383"></path><path d="M537.385684 147.640124L658.820516 9.613775Q668.977005-1.938261 680.517966 8.229303l17.28929 15.229195q11.540961 10.156489 1.384472 21.69745l-121.423757 138.004197q-10.145413 11.552037-21.697449 1.384472l-17.278214-15.207044q-11.552037-10.156489-1.395549-21.697449z m0 0" fill="#ffffff" p-id="13384"></path><path d="M682.467303 5.737253l159.912086 107.435049q21.265494 14.287754 6.966664 35.553248l-1.406624 2.104398q-14.287754 21.265494-35.553248 6.97774l-159.912086-107.435049q-21.265494-14.287754-6.97774-35.553248l1.4177-2.104398q14.287754-21.265494 35.553248-6.97774z m0 0M588.799446 268.133515l114.933351 130.694183q10.156489 11.529885-1.395548 21.686374l-17.28929 15.218119q-11.529885 10.156489-21.686374-1.384472L548.428235 303.675687q-10.167564-11.529885 1.384472-21.697449l17.28929-15.207044q11.552037-10.156489 21.697449 1.384473z m0 0" fill="#ffffff" p-id="13385"></path><path d="M652.872823 393.256582l159.380449-108.232505q21.187964-14.398512 35.586475 6.800528l1.428776 2.104398q14.398512 21.19904-6.811604 35.586475l-159.380449 108.232505q-21.19904 14.398512-35.597551-6.800528l-1.417699-2.115474q-14.398512-21.19904 6.800527-35.597551z m0 0" fill="#ffffff" p-id="13386"></path></svg>