<?xml version="1.0" standalone="no"?><!DOCTYPE svg PUBLIC "-//W3C//DTD SVG 1.1//EN" "http://www.w3.org/Graphics/SVG/1.1/DTD/svg11.dtd"><svg t="1546671614913" class="icon" style="" viewBox="0 0 1024 1024" version="1.1" xmlns="http://www.w3.org/2000/svg" p-id="6456" xmlns:xlink="http://www.w3.org/1999/xlink" width="200" height="200"><defs><style type="text/css"></style></defs><path d="M567.854545 400.290909l55.854546-27.927273c-23.272727-46.545455-46.545455-88.436364-69.818182-134.981818l-55.854545 23.272727c9.309091 9.309091 13.963636 18.618182 18.618181 37.236364 23.272727 46.545455 41.890909 79.127273 51.2 102.4zM581.818182 488.727273L479.418182 558.545455V260.654545H414.254545v302.545455c0 27.927273-4.654545 46.545455-18.618181 60.509091l41.890909 51.2c4.654545-4.654545 9.309091-9.309091 18.618182-13.963636 9.309091-9.309091 13.963636-13.963636 18.618181-13.963637 37.236364-27.927273 79.127273-55.854545 121.018182-83.781818-9.309091-27.927273-9.309091-51.2-13.963636-74.472727zM335.127273 218.763636C311.854545 316.509091 279.272727 395.636364 232.727273 460.8c4.654545 23.272727 9.309091 55.854545 13.963636 88.436364 13.963636-23.272727 32.581818-46.545455 46.545455-69.818182V744.727273h65.163636V349.090909c18.618182-37.236364 27.927273-74.472727 41.890909-116.363636l-65.163636-13.963637z" p-id="6457" fill="#ffffff"></path><path d="M684.218182 581.818182c18.618182-41.890909 32.581818-107.054545 37.236363-190.836364 4.654545-46.545455 4.654545-102.4 4.654546-158.254545h-65.163636v153.6c-4.654545 83.781818-13.963636 144.290909-37.236364 181.527272-18.618182 37.236364-60.509091 79.127273-130.327273 121.018182 13.963636 13.963636 27.927273 32.581818 41.890909 51.2 60.509091-41.890909 97.745455-74.472727 121.018182-107.054545 27.927273 27.927273 51.2 60.509091 79.127273 93.090909l41.890909-51.2c-4.654545-4.654545-9.309091-9.309091-13.963636-18.618182-37.236364-32.581818-60.509091-55.854545-79.127273-74.472727z" p-id="6458" fill="#ffffff"></path><path d="M847.127273 819.2c88.436364-88.436364 139.636364-204.8 139.636363-339.781818C986.763636 214.109091 768 0 502.690909 0S23.272727 214.109091 23.272727 479.418182c0 265.309091 214.109091 479.418182 479.418182 479.418182 107.054545 0 209.454545-37.236364 288.581818-97.745455l158.254546 158.254546 51.2-51.2-153.6-148.945455z m-344.436364 74.472727c-228.072727 0-409.6-186.181818-409.6-409.6 0-228.072727 186.181818-409.6 409.6-409.6s409.6 186.181818 409.6 409.6c4.654545 223.418182-181.527273 409.6-409.6 409.6z" p-id="6459" fill="#ffffff"></path></svg>