<?xml version="1.0" standalone="no"?><!DOCTYPE svg PUBLIC "-//W3C//DTD SVG 1.1//EN" "http://www.w3.org/Graphics/SVG/1.1/DTD/svg11.dtd"><svg t="1533472071828" class="icon" style="" viewBox="0 0 1024 1024" version="1.1" xmlns="http://www.w3.org/2000/svg" p-id="14946" xmlns:xlink="http://www.w3.org/1999/xlink" width="200" height="200"><defs><style type="text/css"></style></defs><path d="M731 523c-119.5 0-216.3 96.8-216.3 216.3S611.5 955.6 731 955.6s216.3-96.8 216.3-216.3c0.2-119.2-96.3-216.1-215.5-216.3h-0.8z m114.2 255.4H729.1c-15.2 0-27.5-12.3-27.5-27.5V601.2c0-15.2 12.3-27.5 27.5-27.5s27.5 12.3 27.5 27.5v121.1h88.6c15.2 0 27.5 12.3 27.5 27.5s-12.3 27.5-27.5 27.5v1.1z" p-id="14947" fill="#ffffff"></path><path d="M459 736.2c-0.1-144.5 117-261.6 261.5-261.7 42.1 0 83.5 10.1 120.8 29.5V103.2c0-21.4-17.3-38.7-38.7-38.7H115.4c-21.4 0-38.7 17.3-38.7 38.7v817.6c0 21.4 17.3 38.7 38.7 38.7h468.2C506 911.9 458.8 827.3 459 736.2zM296.5 258h321.9c15.4 0 27.9 12.5 27.9 27.9 0 15.4-12.5 27.9-27.9 27.9H296.5c-15.4 0-27.9-12.5-27.9-27.9 0-15.5 12.5-27.9 27.9-27.9z m0 145.5h321.9c15.4 0 27.9 12.5 27.9 27.9 0 15.4-12.5 27.9-27.9 27.9H296.5c-15.4 0-27.9-12.5-27.9-27.9 0-15.5 12.5-27.9 27.9-27.9z m111.4 206.6H296.5c-15.4 0-27.9-12.5-27.9-27.9 0-15.4 12.5-27.9 27.9-27.9h111.4c15.4 0 27.9 12.5 27.9 27.9 0 15.4-12.5 27.9-27.9 27.9z" p-id="14948" fill="#ffffff"></path></svg>