<?xml version="1.0" encoding="utf-8"?>
<!-- Generator: Adobe Illustrator 16.0.0, SVG Export Plug-In . SVG Version: 6.00 Build 0)  -->
<!DOCTYPE svg PUBLIC "-//W3C//DTD SVG 1.1//EN" "http://www.w3.org/Graphics/SVG/1.1/DTD/svg11.dtd">
<svg version="1.1" id="图层_1" xmlns="http://www.w3.org/2000/svg" xmlns:xlink="http://www.w3.org/1999/xlink" x="0px" y="0px"
	 width="16px" height="16px" viewBox="0 0 16 16" enable-background="new 0 0 16 16" xml:space="preserve">
<path fill="#FFFFFF" d="M2.741,5.647c1.484,0,2.688-1.229,2.688-2.746S4.227,0.155,2.741,0.155c-1.482,0-2.686,1.229-2.686,2.746
	S1.257,5.647,2.741,5.647z M2.741,0.899c1.071,0,1.942,0.897,1.942,2.001S3.813,4.901,2.741,4.901C1.671,4.901,0.8,4.004,0.8,2.9
	S1.671,0.899,2.741,0.899z"/>
<path fill="#FFFFFF" d="M10.366,13.18c0,1.517,1.229,2.746,2.746,2.746c1.516,0,2.746-1.229,2.746-2.746
	c0-1.518-1.23-2.746-2.746-2.746C11.595,10.434,10.366,11.664,10.366,13.18z"/>
<path fill="#FFFFFF" d="M0.058,10.428H5.55v5.504H0.058V10.428z"/>
<path fill="#FFFFFF" d="M13.108,0.068l2.836,2.835l-2.83,2.83l-2.836-2.835L13.108,0.068z"/>
<path fill="#FFFFFF" d="M3.288,10.235V7.768H4.62L2.804,5.832L0.988,7.768H2.32v2.468H3.288z"/>
<path fill="#FFFFFF" d="M8.308,2.418H5.839v0.967h2.469v1.332l1.936-1.815L8.308,1.086V2.418z"/>
<path fill="#FFFFFF" d="M12.628,5.748v2.469h-1.332l1.815,1.936l1.813-1.936h-1.331V5.748H12.628z"/>
</svg>
