<?xml version="1.0" encoding="utf-8"?>
<!-- Generator: Adobe Illustrator 16.0.0, SVG Export Plug-In . SVG Version: 6.00 Build 0)  -->
<!DOCTYPE svg PUBLIC "-//W3C//DTD SVG 1.1//EN" "http://www.w3.org/Graphics/SVG/1.1/DTD/svg11.dtd">
<svg version="1.1" id="Capa_1" xmlns="http://www.w3.org/2000/svg" xmlns:xlink="http://www.w3.org/1999/xlink" x="0px" y="0px"
	 width="16px" height="16px" viewBox="0 0 16 16" enable-background="new 0 0 16 16" xml:space="preserve">
<path fill="#CEC9AE" d="M14.235,6.352H7.302c-0.239,0-0.434-0.248-0.434-0.552c0-0.308,0.195-0.555,0.434-0.555h6.935
	c0.239,0,0.433,0.247,0.433,0.555C14.67,6.104,14.477,6.352,14.235,6.352z"/>
<path fill="#14A085" d="M2.993,6.902c-0.143,0-0.285-0.055-0.392-0.16L1.494,5.633c-0.217-0.215-0.217-0.566,0-0.783
	c0.217-0.215,0.566-0.215,0.783,0l0.756,0.759l2.383-1.907c0.238-0.191,0.588-0.153,0.779,0.087c0.188,0.239,0.15,0.587-0.089,0.778
	L3.338,6.782C3.236,6.864,3.113,6.902,2.993,6.902z"/>
<path fill="#CEC9AE" d="M14.235,12.443H7.302c-0.239,0-0.434-0.248-0.434-0.553c0-0.309,0.195-0.557,0.434-0.557h6.935
	c0.239,0,0.433,0.248,0.433,0.557C14.67,12.195,14.477,12.443,14.235,12.443z"/>
<path fill="#14A085" d="M2.993,12.996c-0.143,0-0.285-0.055-0.392-0.163l-1.107-1.106c-0.217-0.217-0.217-0.566,0-0.785
	c0.217-0.215,0.566-0.215,0.783,0l0.756,0.758l2.383-1.905C5.654,9.602,6.004,9.643,6.195,9.88c0.19,0.239,0.153,0.589-0.087,0.781
	l-2.77,2.215C3.236,12.957,3.113,12.996,2.993,12.996z"/>
</svg>
