<?xml version="1.0" standalone="no"?><!DOCTYPE svg PUBLIC "-//W3C//DTD SVG 1.1//EN" "http://www.w3.org/Graphics/SVG/1.1/DTD/svg11.dtd"><svg t="1542698732131" class="icon" style="" viewBox="0 0 1024 1024" version="1.1" xmlns="http://www.w3.org/2000/svg" p-id="6723" xmlns:xlink="http://www.w3.org/1999/xlink" width="200" height="200"><defs><style type="text/css"></style></defs><path d="M354.1 25.1c-13 0-24.6 6.2-31.9 15.8-1.5 1.3-3 2.7-4.4 4.3L110 283.7c-14.5 16.7-12.8 41.9 3.9 56.4 7.6 6.6 16.9 9.8 26.3 9.8 11.2 0 22.3-4.6 30.2-13.7l143.7-164.9v787.5c0 22.1 17.9 40 40 40s40-17.9 40-40V65.1c0-22.1-18-40-40-40zM893.2 683.8c-16.7-14.5-41.9-12.8-56.4 3.9L693.1 852.6V65.1c0-22.1-17.9-40-40-40s-40 17.9-40 40v893.8c0 22.1 17.9 40 40 40 13 0 24.6-6.2 31.9-15.9 1.5-1.3 3-2.7 4.3-4.3l207.8-238.5c14.5-16.6 12.8-41.9-3.9-56.4z" fill="#ffffff" p-id="6724"></path></svg>