<?xml version="1.0" encoding="utf-8"?>
<!-- Generator: Adobe Illustrator 16.0.0, SVG Export Plug-In . SVG Version: 6.00 Build 0)  -->
<!DOCTYPE svg PUBLIC "-//W3C//DTD SVG 1.1//EN" "http://www.w3.org/Graphics/SVG/1.1/DTD/svg11.dtd">
<svg version="1.1" id="Layer_1" xmlns="http://www.w3.org/2000/svg" xmlns:xlink="http://www.w3.org/1999/xlink" x="0px" y="0px"
	 width="16px" height="16px" viewBox="0 0 16 16" enable-background="new 0 0 16 16" xml:space="preserve">
<g>
	<g>
		<path fill="#C5CAE9" d="M10.735,12.752c-0.342-0.34-0.912-0.639-1.812-1.088c-0.455-0.228-1.208-0.604-1.393-0.779
			c0.768-0.94,1.21-2.004,1.21-2.937c0-0.632,0-1.418-0.354-2.119c-0.316-0.63-1.028-1.382-2.612-1.382S3.48,5.199,3.161,5.832
			C2.807,6.532,2.807,7.318,2.807,7.95c0,0.931,0.445,1.994,1.211,2.937c-0.184,0.174-0.938,0.551-1.391,0.777
			c-0.898,0.449-1.47,0.748-1.811,1.088C0.06,13.508,0.003,14.775,0,15.023c-0.004,0.258,0.096,0.506,0.276,0.688
			C0.457,15.897,0.704,16,0.962,16h9.626c0.259,0,0.504-0.104,0.687-0.289c0.183-0.184,0.281-0.432,0.276-0.688
			C11.547,14.776,11.489,13.508,10.735,12.752z"/>
	</g>
</g>
<path fill="#AAAAAA" d="M15.161,3.445c0-0.161-0.017-0.318-0.044-0.472l0.882-0.504l-0.868-1.493l-0.884,0.506
	c-0.24-0.204-0.521-0.364-0.824-0.471V0h-1.739v1.012c-0.303,0.107-0.582,0.267-0.822,0.471L9.978,0.977L9.108,2.469l0.883,0.505
	c-0.027,0.152-0.045,0.31-0.045,0.471c0,0.162,0.016,0.318,0.045,0.471L9.108,4.422l0.869,1.492l0.884-0.505
	c0.24,0.204,0.52,0.364,0.822,0.472v1.01h1.739v-1.01c0.304-0.108,0.584-0.269,0.823-0.472l0.884,0.506L16,4.422l-0.883-0.505
	C15.145,3.765,15.161,3.607,15.161,3.445z M12.555,4.738c-0.723,0-1.304-0.578-1.304-1.292c0-0.714,0.583-1.292,1.304-1.292
	c0.72,0,1.303,0.578,1.303,1.292C13.857,4.16,13.274,4.738,12.555,4.738z"/>
</svg>
