<?xml version="1.0" encoding="utf-8"?>
<!-- Generator: Adobe Illustrator 16.0.0, SVG Export Plug-In . SVG Version: 6.00 Build 0)  -->
<!DOCTYPE svg PUBLIC "-//W3C//DTD SVG 1.1//EN" "http://www.w3.org/Graphics/SVG/1.1/DTD/svg11.dtd">
<svg version="1.1" xmlns="http://www.w3.org/2000/svg" xmlns:xlink="http://www.w3.org/1999/xlink" x="0px" y="0px"
	 width="16px" height="16px" viewBox="0 0 16 16" enable-background="new 0 0 16 16" xml:space="preserve">
<g>
	<g>
		<path fill="none" stroke="#FFFFFF" stroke-miterlimit="10" d="M14.219,11.922c-0.32-0.319-0.858-0.6-1.703-1.022
			c-0.429-0.214-1.138-0.568-1.31-0.731c0.723-0.886,1.139-1.885,1.139-2.761c0-0.594,0-1.333-0.333-1.993
			c-0.297-0.594-0.969-1.301-2.458-1.301c-1.49,0-2.158,0.707-2.458,1.301C6.763,6.073,6.763,6.813,6.763,7.407
			c0,0.876,0.418,1.875,1.139,2.761c-0.173,0.163-0.882,0.518-1.308,0.731c-0.844,0.423-1.382,0.703-1.703,1.022
			c-0.71,0.711-0.765,1.904-0.767,2.137c-0.004,0.242,0.09,0.476,0.259,0.648c0.17,0.173,0.403,0.271,0.645,0.271h9.054
			c0.243,0,0.473-0.099,0.646-0.271c0.17-0.173,0.265-0.406,0.26-0.648C14.982,13.826,14.93,12.635,14.219,11.922z"/>
	</g>
</g>
<path fill="#FFFFFF" d="M1.79,4.026C-0.033,2.508,0.373,0.41,0.373,0.41c1.635,2.747,4.026,2.168,4.026,2.168V0.953l2.692,2.708
	L4.399,6.369V4.745C2.618,4.799,1.79,4.026,1.79,4.026z"/>
</svg>
