<?xml version="1.0" encoding="utf-8"?>
<!-- Generator: Adobe Illustrator 16.0.0, SVG Export Plug-In . SVG Version: 6.00 Build 0)  -->
<!DOCTYPE svg PUBLIC "-//W3C//DTD SVG 1.1//EN" "http://www.w3.org/Graphics/SVG/1.1/DTD/svg11.dtd">
<svg version="1.1" id="Capa_1" xmlns="http://www.w3.org/2000/svg" xmlns:xlink="http://www.w3.org/1999/xlink" x="0px" y="0px"
	 width="20px" height="20px" viewBox="0 0 20 20" enable-background="new 0 0 20 20" xml:space="preserve">
<path fill="#556080" d="M20,18c0,1.104-0.896,2-2,2H2c-1.104,0-2-0.896-2-2V2c0-1.104,0.896-2,2-2h16c1.104,0,2,0.896,2,2V18z"/>
<path fill="#FFFFFF" d="M12.598,6.516H7.402c-0.915,0-1.658-0.743-1.658-1.657V4.152c0-0.261,0.212-0.473,0.473-0.473
	c0.262,0,0.474,0.21,0.474,0.473v0.707c0,0.392,0.32,0.712,0.712,0.712h5.195c0.391,0,0.715-0.319,0.715-0.712V4.152
	c0-0.261,0.211-0.473,0.471-0.473c0.263,0,0.473,0.21,0.473,0.473v0.707C14.255,5.772,13.512,6.516,12.598,6.516z"/>
<path fill="#FFFFFF" d="M12.598,15.771H7.402c-0.915,0-1.658-0.742-1.658-1.656V13.41c0-0.262,0.212-0.473,0.473-0.473
	c0.262,0,0.474,0.211,0.474,0.473v0.705c0,0.394,0.32,0.714,0.712,0.714h5.195c0.391,0,0.715-0.32,0.715-0.714V13.41
	c0-0.262,0.211-0.473,0.471-0.473c0.263,0,0.473,0.211,0.473,0.473v0.705C14.255,15.029,13.512,15.771,12.598,15.771z"/>
<line fill="none" stroke="#FFFFFF" stroke-width="0.5" stroke-miterlimit="10" x1="0" y1="10" x2="20" y2="10"/>
</svg>
