<?xml version="1.0" encoding="utf-8"?>
<!-- Generator: Adobe Illustrator 16.0.0, SVG Export Plug-In . SVG Version: 6.00 Build 0)  -->
<!DOCTYPE svg PUBLIC "-//W3C//DTD SVG 1.1//EN" "http://www.w3.org/Graphics/SVG/1.1/DTD/svg11.dtd">
<svg version="1.1" id="图层_1" xmlns="http://www.w3.org/2000/svg" xmlns:xlink="http://www.w3.org/1999/xlink" x="0px" y="0px"
	 width="200px" height="200px" viewBox="0 0 200 200" enable-background="new 0 0 200 200" xml:space="preserve">
<path fill="#FFFFFF" d="M177.167,39.097c-10.609,0-21.197,0-31.807,0c0,5.294,0,10.61,0,15.903c10.608,0,21.195,0,31.807,0
	C177.167,49.707,177.167,44.391,177.167,39.097z M199.909,150.536c-0.021-39.419-0.069-78.837,0.044-118.277
	c-0.156-3.863,0.115-8.134-2.226-11.498c-3.339-2.293-7.566-2.021-11.405-2.181c-22.742,0.114-45.483,0.069-68.226,0.069
	c0-6.066,0-12.11,0-18.176h-13.496C69.75,6.63,34.875,12.606,0,18.672c0,53.004,0,106.009,0,159.013
	c34.669,6.067,69.362,11.885,103.988,18.177h14.108c0-6.815,0-13.631,0-20.448c23.56-0.045,47.118,0.068,70.657,0
	c3.794-0.159,9.474-0.272,10.384-4.998C200.521,163.896,199.797,157.146,199.909,150.536z M66.909,133.725
	c-3.863-9.475-8.564-18.63-11.338-28.537c-3.087,9.226-7.496,17.928-11.04,26.969c-4.977-0.069-9.953-0.272-14.927-0.478
	c5.84-11.428,11.473-22.945,17.494-34.305c-5.112-11.702-10.725-23.174-15.995-34.807c4.999-0.295,9.996-0.59,14.994-0.863
	c3.386,8.884,7.089,17.652,9.884,26.765c2.999-9.655,7.475-18.744,11.313-28.083c5.135-0.364,10.292-0.681,15.449-0.932
	C76.678,71.881,70.589,84.31,64.41,96.689c6.249,12.726,12.632,25.354,18.901,38.08C77.836,134.45,72.385,134.11,66.909,133.725z
	 M193.07,168.598c-24.991,0-49.983,0-74.974,0c0-4.544,0-9.086,0-13.632c6.066,0,12.109,0,18.177,0c0-5.292,0-10.61,0-15.902
	c-6.067,0-12.11,0-18.177,0c0-3.022,0-6.067,0-9.088c6.066,0,12.109,0,18.177,0c0-5.294,0-10.61,0-15.903c-6.067,0-12.11,0-18.177,0
	c0-3.022,0-6.066,0-9.089c6.066,0,12.109,0,18.177,0c0-5.293,0-10.609,0-15.902c-6.067,0-12.11,0-18.177,0c0-3.022,0-6.067,0-9.088
	c6.066,0,12.109,0,18.177,0c0-5.294,0-10.61,0-15.903c-6.067,0-12.11,0-18.177,0c0-3.022,0-6.066,0-9.088c6.066,0,12.109,0,18.177,0
	c0-5.293,0-10.609,0-15.903c-6.067,0-12.11,0-18.177,0c0-4.544,0-9.087,0-13.632c24.99,0,49.983,0,74.974,0
	C193.07,73.177,193.07,120.888,193.07,168.598z M177.167,64.088c-10.609,0-21.197,0-31.807,0c0,5.294,0,10.61,0,15.904
	c10.608,0,21.195,0,31.807,0C177.167,74.698,177.167,69.383,177.167,64.088z M177.167,89.08c-10.609,0-21.197,0-31.807,0
	c0,5.294,0,10.61,0,15.903c10.608,0,21.195,0,31.807,0C177.167,99.69,177.167,94.374,177.167,89.08z M177.167,114.072
	c-10.609,0-21.197,0-31.807,0c0,5.293,0,10.608,0,15.903c10.608,0,21.195,0,31.807,0
	C177.167,124.681,177.167,119.365,177.167,114.072z M177.167,139.063c-10.609,0-21.197,0-31.807,0c0,5.292,0,10.61,0,15.902
	c10.608,0,21.195,0,31.807,0C177.167,149.674,177.167,144.355,177.167,139.063z"/>
</svg>
