<?xml version="1.0" standalone="no"?><!DOCTYPE svg PUBLIC "-//W3C//DTD SVG 1.1//EN" "http://www.w3.org/Graphics/SVG/1.1/DTD/svg11.dtd"><svg t="1542783332190" class="icon" style="" viewBox="0 0 1024 1024" version="1.1" xmlns="http://www.w3.org/2000/svg" p-id="4398" xmlns:xlink="http://www.w3.org/1999/xlink" width="200" height="200"><defs><style type="text/css"></style></defs><path d="M592.656 960.461c-17.731 0-33.75-16.016-61.205-43.473l-5.149-5.149-108.113-111.542c-25.741-26.313-32.034-46.333-34.894-81.226 0-0.571 0-1.716 0-2.288v-271.135l-255.119-248.829c-29.744-29.744-58.347-64.639-45.189-97.243 13.728-33.75 59.491-36.607 101.817-36.607l669.26-2.86c43.473 0 83.515 2.288 96.1 32.605 13.155 31.46-16.589 60.633-50.335 94.954l-269.421 279.716v404.989c0 53.197 0 75.506-24.025 85.232-5.149 2.288-9.151 2.86-13.728 2.86zM441.071 715.638c2.288 26.313 5.721 32.034 18.876 45.761l112.115 116.119c0.571 0.571 0.571 0.571 1.146 1.146 0-1.716 0-4.003 0-5.721v-415.856c0-7.438 2.86-14.299 8.011-19.449l277.428-288.297c6.293-6.293 19.449-19.449 28.028-29.744-7.438-0.571-17.731-1.146-33.179-1.146l-669.26 2.86c0 0 0 0 0 0-24.595 0-37.754 1.716-45.189 3.434 4.003 6.293 11.439 16.589 28.028 33.179l264.273 256.835c5.721 5.149 8.579 12.585 8.579 20.592v280.287z" p-id="4399" fill="#ffffff"></path></svg>