<?xml version="1.0" encoding="utf-8"?>
<!-- Generator: Adobe Illustrator 16.0.0, SVG Export Plug-In . SVG Version: 6.00 Build 0)  -->
<!DOCTYPE svg PUBLIC "-//W3C//DTD SVG 1.1//EN" "http://www.w3.org/Graphics/SVG/1.1/DTD/svg11.dtd">
<svg version="1.1" id="图层_1" xmlns="http://www.w3.org/2000/svg" xmlns:xlink="http://www.w3.org/1999/xlink" x="0px" y="0px"
	 width="200px" height="200px" viewBox="0 0 200 200" enable-background="new 0 0 200 200" xml:space="preserve">
<g>
	<path fill="#FFFFFF" d="M68.236,64.802c-2.993-1.491-6.394-2.236-10.203-2.236c-2.313,0-5.283,0.378-8.911,1.133v33.633h0.002
		c2.403,0.398,4.534,0.696,6.394,0.895c1.859,0.199,3.445,0.299,4.761,0.299c4.716,0,8.785-1.601,12.209-4.801
		c3.423-3.2,5.135-7.345,5.135-12.434c0-3.498-0.816-6.748-2.449-9.75C73.542,68.54,71.229,66.293,68.236,64.802z"/>
	<path fill="#FFFFFF" d="M199.909,150.536c-0.021-39.419-0.069-78.837,0.044-118.277c-0.156-3.863,0.115-8.134-2.227-11.498
		c-3.338-2.293-7.565-2.021-11.404-2.181c-22.742,0.114-45.483,0.069-68.227,0.069c0-6.066,0-12.11,0-18.176H104.6
		C69.75,6.63,34.875,12.606,0,18.672c0,53.004,0,106.01,0,159.014c34.669,6.066,69.362,11.885,103.988,18.176h14.107
		c0-6.813,0-13.631,0-20.446c23.561-0.045,47.117,0.067,70.656,0c3.794-0.159,9.475-0.271,10.385-4.998
		C200.521,163.896,199.797,157.146,199.909,150.536z M85.684,96.198c-4.965,4.136-11.983,6.202-21.052,6.202
		c-2.222,0-4.625-0.14-7.21-0.418c-2.585-0.277-5.351-0.693-8.298-1.252v23.557c0,5.09,0.635,8.25,1.905,9.482
		c1.723,1.75,4.33,2.623,7.822,2.623h3.537v2.207h-39.52v-2.207h3.469c3.899,0,6.688-1.113,8.366-3.341
		c0.907-1.231,1.36-4.153,1.36-8.766v-52.24c0-5.089-0.612-8.25-1.836-9.482c-1.769-1.749-4.399-2.624-7.89-2.624h-3.469v-2.207
		h33.806c8.252,0,14.76,0.746,19.521,2.236c4.761,1.49,8.774,4.006,12.04,7.544c3.265,3.539,4.897,7.733,4.897,12.583
		C93.132,86.696,90.65,92.063,85.684,96.198z M193.07,168.598c-24.991,0-49.983,0-74.975,0c0-4.543,0-9.086,0-13.632
		c6.065,0,12.108,0,18.178,0c0-5.292,0-10.61,0-15.901c-6.067,0-12.11,0-18.178,0c0-3.021,0-6.066,0-9.088
		c6.065,0,12.108,0,18.178,0c0-5.295,0-10.609,0-15.902c-6.067,0-12.11,0-18.178,0c0-3.022,0-6.066,0-9.09
		c6.065,0,12.108,0,18.178,0c0-5.292,0-10.608,0-15.901c-6.067,0-12.11,0-18.178,0c0-3.022,0-6.067,0-9.088
		c6.065,0,12.108,0,18.178,0c0-5.294,0-10.61,0-15.903c-6.067,0-12.11,0-18.178,0c0-3.022,0-6.066,0-9.088
		c6.065,0,12.108,0,18.178,0c0-5.293,0-10.609,0-15.903c-6.067,0-12.11,0-18.178,0c0-4.544,0-9.087,0-13.632
		c24.989,0,49.982,0,74.975,0C193.07,73.177,193.07,120.889,193.07,168.598z"/>
	<path fill="#FFFFFF" d="M177.167,39.097c-10.608,0-21.196,0-31.808,0c0,5.294,0,10.61,0,15.903c10.607,0,21.195,0,31.808,0
		C177.167,49.707,177.167,44.391,177.167,39.097z"/>
	<path fill="#FFFFFF" d="M177.167,64.088c-10.608,0-21.196,0-31.808,0c0,5.294,0,10.61,0,15.904c10.607,0,21.195,0,31.808,0
		C177.167,74.698,177.167,69.383,177.167,64.088z"/>
	<path fill="#FFFFFF" d="M177.167,89.08c-10.608,0-21.196,0-31.808,0c0,5.294,0,10.61,0,15.902c10.607,0,21.195,0,31.808,0
		C177.167,99.69,177.167,94.374,177.167,89.08z"/>
	<path fill="#FFFFFF" d="M177.167,114.072c-10.608,0-21.196,0-31.808,0c0,5.293,0,10.607,0,15.902c10.607,0,21.195,0,31.808,0
		C177.167,124.682,177.167,119.365,177.167,114.072z"/>
	<path fill="#FFFFFF" d="M177.167,139.063c-10.608,0-21.196,0-31.808,0c0,5.293,0,10.61,0,15.902c10.607,0,21.195,0,31.808,0
		C177.167,149.674,177.167,144.355,177.167,139.063z"/>
</g>
</svg>
