<?xml version="1.0" encoding="utf-8"?>
<!-- Generator: Adobe Illustrator 16.0.0, SVG Export Plug-In . SVG Version: 6.00 Build 0)  -->
<!DOCTYPE svg PUBLIC "-//W3C//DTD SVG 1.1//EN" "http://www.w3.org/Graphics/SVG/1.1/DTD/svg11.dtd">
<svg version="1.1" id="Layer_1" xmlns="http://www.w3.org/2000/svg" xmlns:xlink="http://www.w3.org/1999/xlink" x="0px" y="0px"
	 width="16px" height="16px" viewBox="0 0 16 16" enable-background="new 0 0 16 16" xml:space="preserve">
<g>
	<path fill="#E51C23" d="M13.304,3.057c-0.595-0.603-1.127-1.083-1.9-1.461c-0.485-0.238-1.072-0.033-1.308,0.458
		c-0.236,0.491-0.032,1.083,0.453,1.321c0.576,0.282,0.963,0.594,1.408,1.043c2.182,2.207,2.182,5.796,0,8.001
		c-1.058,1.069-2.464,1.656-3.958,1.656c-1.495,0-2.9-0.588-3.957-1.656c-2.182-2.205-2.182-5.794,0-8.001
		c0.446-0.45,0.887-0.761,1.434-1.042c0.462-0.239,0.656-0.83,0.432-1.322C5.683,1.563,5.2,1.362,4.726,1.594
		c-0.751,0.369-1.434,0.861-2.03,1.463c-2.925,2.957-2.925,7.767,0,10.724C4.158,15.26,6.079,16,8,16
		c1.921,0,3.842-0.739,5.304-2.219C16.229,10.826,16.229,6.014,13.304,3.057z M8,7.999c0.552,0,1-0.448,1-1V1c0-0.552-0.447-1-1-1
		c-0.552,0-1,0.448-1,1v5.999C7.001,7.551,7.449,7.999,8,7.999z"/>
</g>
</svg>
