<?xml version="1.0" encoding="utf-8"?>
<!-- Generator: Adobe Illustrator 16.0.0, SVG Export Plug-In . SVG Version: 6.00 Build 0)  -->
<!DOCTYPE svg PUBLIC "-//W3C//DTD SVG 1.1//EN" "http://www.w3.org/Graphics/SVG/1.1/DTD/svg11.dtd">
<svg version="1.1" id="图层_1" xmlns="http://www.w3.org/2000/svg" xmlns:xlink="http://www.w3.org/1999/xlink" x="0px" y="0px"
	 width="200px" height="200px" viewBox="0 0 200 200" enable-background="new 0 0 200 200" xml:space="preserve">
<path fill="#FFFFFF" d="M16.77,86.963c4.057-9.548,9.853-18.129,17.229-25.506c7.376-7.376,15.958-13.173,25.506-17.23
	c9.913-4.21,20.416-6.346,31.218-6.346h39.559c0.207,0,0.411,0.007,0.616,0.016V4.966c0-3.953,4.78-5.933,7.575-3.137l48.904,48.903
	c1.732,1.733,1.732,4.543,0,6.276l-48.904,48.904c-2.795,2.795-7.575,0.815-7.575-3.139V66.316
	c-0.205,0.008-0.409,0.016-0.616,0.016H90.722c-28.59,0-51.85,23.259-51.85,51.849c0,28.592,23.259,51.852,51.85,51.852h39.559
	c7.855,0,14.225,6.366,14.225,14.224c0,7.856-6.369,14.225-14.225,14.225H90.722c-10.802,0-21.305-2.135-31.217-6.347
	c-9.549-4.057-18.13-9.854-25.506-17.229c-7.377-7.376-13.173-15.958-17.23-25.507c-4.211-9.912-6.346-20.416-6.346-31.218
	S12.559,96.876,16.77,86.963z"/>
</svg>
