<?xml version="1.0" encoding="utf-8"?>
<!-- Generator: Adobe Illustrator 16.0.0, SVG Export Plug-In . SVG Version: 6.00 Build 0)  -->
<!DOCTYPE svg PUBLIC "-//W3C//DTD SVG 1.1//EN" "http://www.w3.org/Graphics/SVG/1.1/DTD/svg11.dtd">
<svg version="1.1" id="Layer_1" xmlns="http://www.w3.org/2000/svg" xmlns:xlink="http://www.w3.org/1999/xlink" x="0px" y="0px"
	 width="16px" height="16px" viewBox="0 0 16 16" enable-background="new 0 0 16 16" xml:space="preserve">
<path fill="#AAAAAA" d="M15.161,3.445c0-0.161-0.017-0.318-0.044-0.472l0.882-0.504l-0.868-1.493l-0.884,0.506
	c-0.24-0.204-0.521-0.364-0.824-0.471V0h-1.739v1.012c-0.303,0.107-0.582,0.267-0.822,0.471L9.979,0.977L9.107,2.469l0.884,0.505
	c-0.027,0.152-0.046,0.31-0.046,0.471c0,0.162,0.017,0.318,0.046,0.471L9.107,4.422l0.869,1.492l0.885-0.505
	c0.24,0.204,0.52,0.364,0.822,0.472v1.01h1.738v-1.01c0.305-0.108,0.584-0.269,0.823-0.472l0.884,0.506L16,4.422l-0.883-0.505
	C15.145,3.765,15.161,3.607,15.161,3.445z M12.555,4.738c-0.723,0-1.304-0.578-1.304-1.292c0-0.714,0.583-1.292,1.304-1.292
	s1.303,0.578,1.303,1.292C13.857,4.16,13.273,4.738,12.555,4.738z"/>
<path fill="#C5CAE9" d="M6.06,10.339c-3.085,0-5.587,2.496-5.587,5.582h11.177C11.649,12.835,9.147,10.339,6.06,10.339z"/>
<path fill="#4C5870" d="M5.321,8.39v5.927c0,0.408,0.332,0.741,0.739,0.741c0.409,0,0.74-0.335,0.74-0.741V8.39H5.321z"/>
<circle fill="#CCCCCC" cx="6.057" cy="7.892" r="3.147"/>
</svg>
