<?xml version="1.0" encoding="utf-8"?>
<!-- Generator: Adobe Illustrator 16.0.0, SVG Export Plug-In . SVG Version: 6.00 Build 0)  -->
<!DOCTYPE svg PUBLIC "-//W3C//DTD SVG 1.1//EN" "http://www.w3.org/Graphics/SVG/1.1/DTD/svg11.dtd">
<svg version="1.1" id="图层_1" xmlns="http://www.w3.org/2000/svg" xmlns:xlink="http://www.w3.org/1999/xlink" x="0px" y="0px"
	 width="16px" height="16px" viewBox="0 0 16 16" enable-background="new 0 0 16 16" xml:space="preserve">
<g>
	<path d="M13.051,1.941c0.592,0,1.074,0.422,1.074,0.942V5.4H6.468H5.593v0.865v7.945H2.948c-0.592,0-1.073-0.42-1.073-0.939V2.884
		c0-0.52,0.481-0.942,1.073-0.942H13.051 M13.051,1.077H2.948C1.872,1.077,1,1.885,1,2.884v10.388c0,0.996,0.872,1.805,1.948,1.805
		h3.521V6.266H15V2.884C15,1.885,14.127,1.077,13.051,1.077L13.051,1.077z"/>
</g>
<line fill="none" stroke="#000000" stroke-miterlimit="10" x1="7.671" y1="3.87" x2="7.671" y2="5.815"/>
<line fill="none" stroke="#000000" stroke-miterlimit="10" x1="10.092" y1="3.87" x2="10.092" y2="5.815"/>
<line fill="none" stroke="#000000" stroke-miterlimit="10" x1="12.512" y1="3.87" x2="12.512" y2="5.815"/>
<line fill="none" stroke="#000000" stroke-miterlimit="10" x1="5.634" y1="7.153" x2="3.666" y2="7.153"/>
<line fill="none" stroke="#000000" stroke-miterlimit="10" x1="5.634" y1="9.545" x2="3.666" y2="9.545"/>
<line fill="none" stroke="#000000" stroke-miterlimit="10" x1="5.634" y1="11.936" x2="3.666" y2="11.936"/>
</svg>
