<?xml version="1.0" encoding="utf-8"?>
<!-- Generator: Adobe Illustrator 16.0.0, SVG Export Plug-In . SVG Version: 6.00 Build 0)  -->
<!DOCTYPE svg PUBLIC "-//W3C//DTD SVG 1.1//EN" "http://www.w3.org/Graphics/SVG/1.1/DTD/svg11.dtd">
<svg version="1.1" xmlns="http://www.w3.org/2000/svg" xmlns:xlink="http://www.w3.org/1999/xlink" x="0px" y="0px"
	 width="200px" height="200px" viewBox="0 0 200 200" enable-background="new 0 0 200 200" xml:space="preserve">
<path fill="#1296DB" d="M8.835,22.11c-7.136,8.824-22.943,50.845,44.813,119.633c71.396,72.511,117.445,56.993,125.37,48.825
	L131.29,143.27c-6.673,6.602-15.257,0.731-31.743-12.58c-10.895-8.812-23.462-20.663-34.346-34.027
	c-7.638-9.361-14.391-19.2-7.419-26.119L8.835,22.11z"/>
<path fill="#1296DB" d="M196.277,173.636c3.091-3.072,2.782-7.749-0.031-10.553v-0.042c0,0-37.238-36.828-37.259-36.848
	c-2.947-2.919-7.661-2.862-10.595,0.02l-13.504,13.399l47.857,47.422c0,0,13.519-13.363,13.503-13.371L196.277,173.636z"/>
<path fill="#1296DB" d="M74.988,53.489c3.092-3.079,2.804-7.742,0-10.527v-0.047c0,0-38.315-37.903-38.335-37.911
	c-2.948-2.937-7.67-2.866-10.591,0.008L12.567,18.419l48.91,48.475c0,0,13.511-13.345,13.511-13.369V53.489z"/>
</svg>
