<?xml version="1.0" encoding="utf-8"?>
<!-- Generator: Adobe Illustrator 16.0.0, SVG Export Plug-In . SVG Version: 6.00 Build 0)  -->
<!DOCTYPE svg PUBLIC "-//W3C//DTD SVG 1.1//EN" "http://www.w3.org/Graphics/SVG/1.1/DTD/svg11.dtd">
<svg version="1.1" id="图层_1" xmlns="http://www.w3.org/2000/svg" xmlns:xlink="http://www.w3.org/1999/xlink" x="0px" y="0px"
	 width="200px" height="200px" viewBox="0 0 200 200" enable-background="new 0 0 200 200" xml:space="preserve">
<path fill="#FFFFFF" d="M188.676,118.181c0,10.802-2.135,21.306-6.346,31.218c-4.057,9.549-9.853,18.131-17.229,25.507
	c-7.376,7.374-15.957,13.172-25.506,17.229c-9.913,4.212-20.415,6.347-31.218,6.347H68.818c-7.855,0-14.225-6.368-14.225-14.225
	c0-7.857,6.369-14.224,14.225-14.224h39.559c28.591,0,51.85-23.26,51.85-51.852c0-28.59-23.259-51.849-51.85-51.849H68.818
	c-0.207,0-0.411-0.007-0.616-0.016v36.458c0,3.954-4.78,5.934-7.575,3.139L11.723,57.008c-1.732-1.733-1.732-4.542,0-6.276
	L60.627,1.829c2.795-2.796,7.575-0.815,7.575,3.137v32.932c0.205-0.008,0.409-0.016,0.616-0.016h39.559
	c10.803,0,21.305,2.135,31.218,6.346c9.548,4.057,18.13,9.854,25.506,17.23c7.376,7.376,13.173,15.958,17.229,25.506
	C186.541,96.876,188.676,107.379,188.676,118.181z"/>
</svg>
