<?xml version="1.0" encoding="utf-8"?>
<!-- Generator: Adobe Illustrator 16.0.0, SVG Export Plug-In . SVG Version: 6.00 Build 0)  -->
<!DOCTYPE svg PUBLIC "-//W3C//DTD SVG 1.1//EN" "http://www.w3.org/Graphics/SVG/1.1/DTD/svg11.dtd">
<svg version="1.1" id="图层_1" xmlns="http://www.w3.org/2000/svg" xmlns:xlink="http://www.w3.org/1999/xlink" x="0px" y="0px"
	 width="200px" height="200px" viewBox="0 0 200 200" enable-background="new 0 0 200 200" xml:space="preserve">
<path fill="#FFFFFF" d="M106.959,7.546h44.061v25.907h-44.061V7.546z"/>
<path fill="#FFFFFF" d="M106.959,47.055h92.128v25.908h-92.128V47.055z"/>
<path fill="#FFFFFF" d="M106.959,126.072h60.084v25.908h-60.084V126.072z"/>
<path fill="#FFFFFF" d="M106.959,165.582h32.045v25.908h-32.045V165.582z"/>
<path fill="#FFFFFF" d="M51.646,165.582h44.061v25.908H51.646V165.582z"/>
<path fill="#FFFFFF" d="M3.58,126.074h92.128v25.906H3.58V126.074z"/>
<path fill="#FFFFFF" d="M3.58,86.564h92.128v25.906H3.58V86.564z"/>
<path fill="#FFFFFF" d="M106.959,86.564h92.129v25.906h-92.129V86.564z"/>
<path fill="#FFFFFF" d="M35.624,47.055h60.083v25.908H35.624V47.055z"/>
<path fill="#FFFFFF" d="M63.663,7.546h32.044v25.907H63.663V7.546z"/>
</svg>
