<?xml version="1.0" standalone="no"?><!DOCTYPE svg PUBLIC "-//W3C//DTD SVG 1.1//EN" "http://www.w3.org/Graphics/SVG/1.1/DTD/svg11.dtd"><svg t="1547553723453" class="icon" style="" viewBox="0 0 1024 1024" version="1.1" xmlns="http://www.w3.org/2000/svg" p-id="4105" xmlns:xlink="http://www.w3.org/1999/xlink" width="200" height="200"><defs><style type="text/css"></style></defs><path d="M950.20422 1023.597507H329.319218A37.068853 37.068853 0 0 1 292.469708 986.309312v-190.352579c0.511799-126.962648 68.434805-243.835549 177.850067-306.092212C380.206637 416.969756 345.367765 294.430511 383.496772 184.247551 421.589222 74.064591 524.314543 0.182785 639.761719 0c115.447176 0.182785 218.172497 74.064591 256.264948 184.247551 38.129007 110.18296 3.290135 232.722205-86.85956 305.61697 109.19592 62.512562 177.045812 179.239235 177.886624 306.092212v190.389136c0.109671 9.870405-3.765377 19.448353-10.67466 26.467307a36.264597 36.264597 0 0 1-26.174851 10.784331zM366.753641 949.021117h546.527955v-153.100941c-0.475242-122.502687-80.425518-230.199768-196.603835-264.928969a37.361309 37.361309 0 0 1-26.467307-34.180846c-0.731141-15.938875 8.590908-30.561697 23.250286-36.483939 87.956271-35.570013 138.551234-129.265742 120.638277-223.327042-17.912956-94.061299-99.325515-162.020863-194.044841-162.020863-94.682769 0-176.095328 67.99612-194.008285 162.020863-17.912956 94.061299 32.682006 187.757028 120.638278 223.363599 14.622822 5.849129 23.981427 20.508507 23.250286 36.447382-0.731141 15.938875-11.332687 29.647771-26.467307 34.180846-116.178317 34.729201-196.092037 142.353168-196.603835 264.855855l-0.073114 153.174055z" fill="#ffffff" p-id="4106"></path><path d="M328.514963 1023.597507H74.114426A37.361309 37.361309 0 0 1 36.570331 986.45554V818.146864a315.268032 315.268032 0 0 1 157.451231-270.960882 245.517173 245.517173 0 0 1-53.373298-319.39898c64.852213-104.809073 197.700547-146.520672 311.758555-97.972904 19.119339 8.115666 28.002703 30.013341 19.813923 48.949895-8.18878 18.899997-30.342355 27.67369-49.461694 19.594581a172.84175 172.84175 0 0 0-67.886449-13.708895c-96.510622 0.109671-174.633046 77.500954-174.669603 173.024536a170.355871 170.355871 0 0 0 109.488376 159.754325c14.951835 5.922243 24.456669 20.508507 23.725528 36.410825-0.731141 15.865761-11.588586 29.574657-26.979106 34.071174-102.944664 30.342355-173.646006 123.928412-174.011576 230.236325v131.057038h217.51447c20.72785 0 37.507537 16.633459 37.507538 37.141967A38.933262 38.933262 0 0 1 328.514963 1023.597507z" fill="#ffffff" p-id="4107"></path></svg>