<?xml version="1.0" standalone="no"?><!DOCTYPE svg PUBLIC "-//W3C//DTD SVG 1.1//EN" "http://www.w3.org/Graphics/SVG/1.1/DTD/svg11.dtd"><svg t="1547553901298" class="icon" style="" viewBox="0 0 1024 1024" version="1.1" xmlns="http://www.w3.org/2000/svg" p-id="18637" xmlns:xlink="http://www.w3.org/1999/xlink" width="200" height="200"><defs><style type="text/css"></style></defs><path d="M524.288 135.168L118.784 454.656c-12.288 8.192-28.672 6.144-36.864-4.096s-6.144-26.624 4.096-36.864L509.952 81.92c10.24-8.192 22.528-8.192 32.768 0L942.08 415.744c10.24 8.192 12.288 24.576 4.096 36.864-8.192 10.24-24.576 12.288-36.864 4.096L524.288 135.168z" fill="#ffffff" p-id="18638"></path><path d="M307.2 696.32h102.4c12.288 0 20.48 8.192 20.48 20.48v61.44c0 12.288-8.192 20.48-20.48 20.48h-102.4c-12.288 0-20.48-8.192-20.48-20.48v-61.44c0-12.288 8.192-20.48 20.48-20.48zM471.04 696.32h102.4c12.288 0 20.48 8.192 20.48 20.48v61.44c0 12.288-8.192 20.48-20.48 20.48h-102.4c-12.288 0-20.48-8.192-20.48-20.48v-61.44c0-12.288 8.192-20.48 20.48-20.48zM634.88 696.32h102.4c12.288 0 20.48 8.192 20.48 20.48v61.44c0 12.288-8.192 20.48-20.48 20.48h-102.4c-12.288 0-20.48-8.192-20.48-20.48v-61.44c0-12.288 8.192-20.48 20.48-20.48zM307.2 573.44h102.4c12.288 0 20.48 8.192 20.48 20.48v61.44c0 12.288-8.192 20.48-20.48 20.48h-102.4c-12.288 0-20.48-8.192-20.48-20.48v-61.44c0-12.288 8.192-20.48 20.48-20.48zM307.2 450.56h102.4c12.288 0 20.48 8.192 20.48 20.48v61.44c0 12.288-8.192 20.48-20.48 20.48h-102.4c-12.288 0-20.48-8.192-20.48-20.48v-61.44c0-12.288 8.192-20.48 20.48-20.48zM471.04 573.44h102.4c12.288 0 20.48 8.192 20.48 20.48v61.44c0 12.288-8.192 20.48-20.48 20.48h-102.4c-12.288 0-20.48-8.192-20.48-20.48v-61.44c0-12.288 8.192-20.48 20.48-20.48z" fill="#ffffff" p-id="18639"></path><path d="M794.624 493.568c0-14.336 12.288-24.576 24.576-24.576s24.576 12.288 24.576 24.576v323.584c0 47.104-32.768 86.016-77.824 86.016h-512c-43.008 0-77.824-38.912-77.824-86.016V491.52c0-14.336 12.288-24.576 24.576-24.576s24.576 12.288 24.576 24.576v325.632c0 20.48 12.288 36.864 24.576 36.864h512c12.288 0 24.576-14.336 24.576-36.864V493.568z" fill="#ffffff" p-id="18640"></path></svg>