<?xml version="1.0" standalone="no"?><!DOCTYPE svg PUBLIC "-//W3C//DTD SVG 1.1//EN" "http://www.w3.org/Graphics/SVG/1.1/DTD/svg11.dtd"><svg t="1546671446505" class="icon" style="" viewBox="0 0 1024 1024" version="1.1" xmlns="http://www.w3.org/2000/svg" p-id="5163" xmlns:xlink="http://www.w3.org/1999/xlink" width="200" height="200"><defs><style type="text/css"></style></defs><path d="M514.4 962.5C379 962.5 127 760.7 127 569.8V205.4c0-8.8 7.4-16 16.6-16.2l21.9-0.4c0.8 0 86.9-1.7 175.6-36.9 91-36 149.7-77.3 150.3-77.8l13-9.2c2.9-2.1 6.4-3.2 10-3.2 3.5 0 7 1 10 3.1l13.2 9.2c0.6 0.4 59.3 41.8 150.3 77.8 88.8 35.1 174.8 36.9 175.7 36.9l21.8 0.4c9.2 0.2 16.6 7.3 16.6 16.2l0.2 364.4c-0.3 191-252.3 392.8-387.8 392.8z m327.7-714.6c-33.3-2.5-103.4-11.1-176.1-39.9-74.4-29.4-129-62.4-151.6-77-22.5 14.5-77.2 47.6-151.5 77-72.7 28.8-142.5 37.3-176.3 39.9v321.9c0 149.7 219.5 332.7 327.8 332.7 42 0 123.8-34.1 204.2-108.9 77.5-72 123.8-155.7 123.8-223.8l-0.3-321.9zM483.3 631c-5.5 5.7-13.1 8.9-21 8.8-7.6 0-15.3-2.9-21.1-8.8l-89.4-90c-11.6-11.8-11.6-30.7 0-42.4 11.7-11.8 30.5-11.8 42.2 0l68.4 68.8L635 393.5c11.7-11.8 30.5-11.8 42.1 0 11.7 11.7 11.7 30.7 0 42.4L483.3 631z m0 0" p-id="5164" fill="#ffffff"></path></svg>