<?xml version="1.0" standalone="no"?><!DOCTYPE svg PUBLIC "-//W3C//DTD SVG 1.1//EN" "http://www.w3.org/Graphics/SVG/1.1/DTD/svg11.dtd"><svg t="1542264379288" class="icon" style="" viewBox="0 0 1059 1024" version="1.1" xmlns="http://www.w3.org/2000/svg" p-id="12212" xmlns:xlink="http://www.w3.org/1999/xlink" width="206.8359375" height="200"><defs><style type="text/css"></style></defs><path d="M63.558621 416.662069H70.62069c14.124138 0 24.717241-7.062069 28.248276-21.186207 52.965517-197.737931 236.57931-335.448276 444.910344-335.448276 155.365517 0 300.137931 77.682759 381.351724 197.737931L847.448276 296.606897l197.737931 130.648275 14.124138-233.048275-77.682759 38.841379C886.289655 88.275862 723.862069 0 543.77931 0 307.2 0 102.4 155.365517 38.841379 377.82069c0 17.655172 7.062069 35.310345 24.717242 38.841379z m967.503448 169.489655c-14.124138-3.531034-31.77931 7.062069-35.310345 21.186207-45.903448 208.331034-236.57931 356.634483-451.972414 356.634483-180.082759 0-338.97931-102.4-413.131034-254.234483L211.862069 670.896552 14.124138 540.248276 0 773.296552l74.151724-35.310345C162.427586 911.006897 342.510345 1024 543.77931 1024c243.641379 0 459.034483-169.489655 508.468966-402.537931 7.062069-17.655172-3.531034-31.77931-21.186207-35.310345z" fill="#ffffff" p-id="12213"></path></svg>