<?xml version="1.0" encoding="utf-8"?>
<!-- Generator: Adobe Illustrator 16.0.0, SVG Export Plug-In . SVG Version: 6.00 Build 0)  -->
<!DOCTYPE svg PUBLIC "-//W3C//DTD SVG 1.1//EN" "http://www.w3.org/Graphics/SVG/1.1/DTD/svg11.dtd">
<svg version="1.1" id="Capa_1" xmlns="http://www.w3.org/2000/svg" xmlns:xlink="http://www.w3.org/1999/xlink" x="0px" y="0px"
	 width="20px" height="20px" viewBox="-2 -2 20 20" enable-background="new -2 -2 20 20" xml:space="preserve">
<polygon fill="#424A60" points="10.64,-0.379 9.397,-0.379 9.397,0.552 6.603,0.552 6.603,-0.379 5.36,-0.379 0.707,-0.379 
	0.707,17 15.293,17 15.293,-0.379 "/>
<rect x="6.603" y="-1" fill="#303644" width="2.795" height="1.552"/>
<polygon fill="#FFFDE7" points="11.566,0.552 11.566,1.483 4.432,1.483 4.432,0.552 1.638,0.552 1.638,16.069 14.362,16.069 
	14.362,0.552 "/>
<polygon fill="#7383BF" points="9.397,-0.379 9.397,0.552 6.603,0.552 6.603,-0.379 4.432,-0.379 4.432,1.483 11.566,1.483 
	11.566,-0.379 "/>
<polygon fill="#424A60" points="5.514,4.867 11.479,8.312 5.514,11.753 "/>
</svg>
