<?xml version="1.0" encoding="utf-8"?>
<!-- Generator: Adobe Illustrator 16.0.0, SVG Export Plug-In . SVG Version: 6.00 Build 0)  -->
<!DOCTYPE svg PUBLIC "-//W3C//DTD SVG 1.1//EN" "http://www.w3.org/Graphics/SVG/1.1/DTD/svg11.dtd">
<svg version="1.1" id="图层_1" xmlns="http://www.w3.org/2000/svg" xmlns:xlink="http://www.w3.org/1999/xlink" x="0px" y="0px"
	 width="87px" height="32px" viewBox="0 0 87 32" enable-background="new 0 0 87 32" xml:space="preserve">
<path fill="#FFFFFF" d="M11.962,24.149V7.852H7.478v5.547H4.79V5.133H22.4v8.266h-2.688V7.852h-4.469v16.297h2.828v2.719H9.18
	v-2.719H11.962z"/>
<path fill="#FFFFFF" d="M23.869,15.899c0-3.156,1.031-5.797,3.094-7.922s4.75-3.188,8.063-3.188c3.344,0,6.067,1.063,8.172,3.188
	c2.104,2.125,3.156,4.786,3.156,7.984c0,3.262-1.07,5.951-3.211,8.07c-2.141,2.12-4.862,3.18-8.164,3.18
	c-2.104,0-4.039-0.502-5.805-1.508c-1.766-1.005-3.092-2.406-3.977-4.203C24.311,19.704,23.869,17.837,23.869,15.899z
	 M27.447,15.915c0,2.386,0.697,4.386,2.094,6c1.396,1.615,3.229,2.422,5.5,2.422c2.25,0,4.099-0.825,5.547-2.477
	c1.447-1.65,2.172-3.622,2.172-5.914c0-2.313-0.737-4.269-2.211-5.867c-1.475-1.599-3.326-2.398-5.555-2.398
	c-2.219,0-4.031,0.786-5.438,2.359C28.149,11.613,27.447,13.571,27.447,15.915z"/>
<path fill="#FFFFFF" d="M51.306,24.149V7.852h-2.734V5.133h7.766c2.281,0,3.989,0.161,5.125,0.484
	c1.135,0.323,2.086,1.055,2.852,2.195c0.767,1.14,1.148,2.487,1.148,4.039c0,1.239-0.253,2.352-0.758,3.336
	c-0.506,0.984-1.131,1.711-1.875,2.18c-0.745,0.469-1.584,0.784-2.516,0.945c-0.933,0.16-2.342,0.242-4.227,0.242h-1.5v5.594H57.4
	v2.719h-8.828v-2.719L51.306,24.149L51.306,24.149z M54.587,15.93h1.875c2.135,0,3.614-0.305,4.438-0.914
	c0.822-0.609,1.234-1.685,1.234-3.227c0-0.979-0.219-1.792-0.656-2.438s-0.979-1.058-1.625-1.234
	c-0.646-0.177-1.725-0.266-3.234-0.266h-2.031L54.587,15.93L54.587,15.93z"/>
<path fill="#FFFFFF" d="M67.384,26.868v-7.892h2.72v1.923c1.301,2.364,3.004,3.547,5.108,3.547c1.072,0,1.979-0.328,2.72-0.984
	c0.738-0.655,1.108-1.516,1.108-2.577c0-1.031-0.304-1.773-0.906-2.228c-0.604-0.453-1.745-0.903-3.422-1.353
	c-1.948-0.521-3.392-1.013-4.328-1.477s-1.686-1.125-2.241-1.984c-0.559-0.859-0.836-1.878-0.836-3.055
	c0-1.823,0.605-3.278,1.819-4.367c1.213-1.089,2.735-1.633,4.569-1.633c1.74,0,3.354,0.563,4.845,1.688V5.024h2.655v6.594H78.54
	v-1.516c-1.115-1.677-2.651-2.516-4.608-2.516c-1.188,0-2.101,0.273-2.734,0.82c-0.637,0.547-0.953,1.2-0.953,1.961
	c0,0.583,0.16,1.097,0.484,1.539c0.321,0.442,0.733,0.769,1.233,0.977s1.483,0.499,2.953,0.873c1.918,0.499,3.31,0.965,4.173,1.396
	c0.864,0.433,1.607,1.154,2.232,2.165c0.625,1.011,0.938,2.173,0.938,3.485c0,1.854-0.653,3.387-1.961,4.596
	c-1.308,1.207-2.925,1.813-4.853,1.813c-1.979,0-3.76-0.713-5.344-2.141v1.797L67.384,26.868L67.384,26.868z"/>
</svg>
