<svg xmlns="http://www.w3.org/2000/svg" width="1440" height="900"><path d="M745,469L707,519L724,549Z" fill="#5ea3cc" stroke="#5ea3cc" stroke-width="1.51"/><path d="M724,549L829,543L745,469Z" fill="#58a0ca" stroke="#58a0ca" stroke-width="1.51"/><path d="M829,543L841,471L745,469Z" fill="#58a0ca" stroke="#58a0ca" stroke-width="1.51"/><path d="M745,469L665,412L707,519Z" fill="#67a8ce" stroke="#67a8ce" stroke-width="1.51"/><path d="M841,471L743,405L745,469Z" fill="#62a5cd" stroke="#62a5cd" stroke-width="1.51"/><path d="M724,549L722,634L829,543Z" fill="#509cc8" stroke="#509cc8" stroke-width="1.51"/><path d="M660,612L722,634L724,549Z" fill="#559dc8" stroke="#559dc8" stroke-width="1.51"/><path d="M743,405L665,412L745,469Z" fill="#6daad0" stroke="#6daad0" stroke-width="1.51"/><path d="M707,519L660,612L724,549Z" fill="#5ca1ca" stroke="#5ca1ca" stroke-width="1.51"/><path d="M595,576L660,612L707,519Z" fill="#61a2cb" stroke="#61a2cb" stroke-width="1.51"/><path d="M660,612L698,639L722,634Z" fill="#539cc3" stroke="#539cc3" stroke-width="1.51"/><path d="M722,634L851,626L829,543Z" fill="#4898c5" stroke="#4898c5" stroke-width="1.51"/><path d="M829,543L963,540L841,471Z" fill="#4c9ac6" stroke="#4c9ac6" stroke-width="1.51"/><path d="M923,697L851,626L889,790Z" fill="#318eaf" stroke="#318eaf" stroke-width="1.51"/><path d="M665,412L602,493L707,519Z" fill="#6eaad0" stroke="#6eaad0" stroke-width="1.51"/><path d="M665,412L627,420L602,493Z" fill="#77aed2" stroke="#77aed2" stroke-width="1.51"/><path d="M849,372L766,356L743,405Z" fill="#72aacf" stroke="#72aacf" stroke-width="1.51"/><path d="M743,405L699,330L665,412Z" fill="#79afd2" stroke="#79afd2" stroke-width="1.51"/><path d="M665,412L564,351L627,420Z" fill="#83b1d4" stroke="#83b1d4" stroke-width="1.51"/><path d="M602,493L595,576L707,519Z" fill="#6ba6cd" stroke="#6ba6cd" stroke-width="1.51"/><path d="M660,612L611,669L698,639Z" fill="#599dc2" stroke="#599dc2" stroke-width="1.51"/><path d="M841,471L849,372L743,405Z" fill="#67a6ce" stroke="#67a6ce" stroke-width="1.51"/><path d="M936,397L849,372L841,471Z" fill="#61a2cb" stroke="#61a2cb" stroke-width="1.51"/><path d="M766,356L699,330L743,405Z" fill="#79aed2" stroke="#79aed2" stroke-width="1.51"/><path d="M678,246L699,330L723,223Z" fill="#90b6d7" stroke="#90b6d7" stroke-width="1.51"/><path d="M769,786L851,626L722,634Z" fill="#4295b7" stroke="#4295b7" stroke-width="1.51"/><path d="M595,576L611,669L660,612Z" fill="#61a0c7" stroke="#61a0c7" stroke-width="1.51"/><path d="M851,626L963,540L829,543Z" fill="#4495c3" stroke="#4495c3" stroke-width="1.51"/><path d="M849,372L867,333L766,356Z" fill="#73a9d0" stroke="#73a9d0" stroke-width="1.51"/><path d="M905,355L867,333L849,372Z" fill="#6fa6cd" stroke="#6fa6cd" stroke-width="1.51"/><path d="M602,493L525,545L595,576Z" fill="#73a8cf" stroke="#73a8cf" stroke-width="1.51"/><path d="M595,576L519,639L611,669Z" fill="#68a1c6" stroke="#68a1c6" stroke-width="1.51"/><path d="M627,420L542,463L602,493Z" fill="#7bafd2" stroke="#7bafd2" stroke-width="1.51"/><path d="M564,351L542,463L627,420Z" fill="#86b2d5" stroke="#86b2d5" stroke-width="1.51"/><path d="M963,540L967,485L841,471Z" fill="#4b99c6" stroke="#4b99c6" stroke-width="1.51"/><path d="M967,485L936,397L841,471Z" fill="#539dc8" stroke="#539dc8" stroke-width="1.51"/><path d="M936,397L905,355L849,372Z" fill="#68a3cc" stroke="#68a3cc" stroke-width="1.51"/><path d="M542,463L525,545L602,493Z" fill="#7bacd1" stroke="#7bacd1" stroke-width="1.51"/><path d="M699,330L564,351L665,412Z" fill="#86b2d4" stroke="#86b2d4" stroke-width="1.51"/><path d="M542,463L453,507L525,545Z" fill="#81aed3" stroke="#81aed3" stroke-width="1.51"/><path d="M851,626L923,697L963,540Z" fill="#3890bd" stroke="#3890bd" stroke-width="1.51"/><path d="M664,759L722,634L698,639Z" fill="#4e9aba" stroke="#4e9aba" stroke-width="1.51"/><path d="M967,485L994,422L936,397Z" fill="#539cc4" stroke="#539cc4" stroke-width="1.51"/><path d="M963,540L1009,498L967,485Z" fill="#4496bf" stroke="#4496bf" stroke-width="1.51"/><path d="M1061,608L1009,498L963,540Z" fill="#3b92b9" stroke="#3b92b9" stroke-width="1.51"/><path d="M611,669L664,759L698,639Z" fill="#549bb9" stroke="#549bb9" stroke-width="1.51"/><path d="M519,639L607,728L611,669Z" fill="#629fbd" stroke="#629fbd" stroke-width="1.51"/><path d="M1009,498L994,422L967,485Z" fill="#4a99bf" stroke="#4a99bf" stroke-width="1.51"/><path d="M936,397L983,320L905,355Z" fill="#68a2ca" stroke="#68a2ca" stroke-width="1.51"/><path d="M607,728L664,759L611,669Z" fill="#569bb4" stroke="#569bb4" stroke-width="1.51"/><path d="M525,545L519,639L595,576Z" fill="#71a5cd" stroke="#71a5cd" stroke-width="1.51"/><path d="M664,759L769,786L722,634Z" fill="#4596b1" stroke="#4596b1" stroke-width="1.51"/><path d="M699,330L571,258L564,351Z" fill="#95b7d8" stroke="#95b7d8" stroke-width="1.51"/><path d="M723,223L699,330L766,356Z" fill="#86b2d4" stroke="#86b2d4" stroke-width="1.51"/><path d="M564,351L506,371L542,463Z" fill="#8fb5d6" stroke="#8fb5d6" stroke-width="1.51"/><path d="M525,545L394,600L519,639Z" fill="#79a8cf" stroke="#79a8cf" stroke-width="1.51"/><path d="M509,337L506,371L564,351Z" fill="#99b9d9" stroke="#99b9d9" stroke-width="1.51"/><path d="M867,333L836,237L766,356Z" fill="#7dacd1" stroke="#7dacd1" stroke-width="1.51"/><path d="M913,240L836,237L867,333Z" fill="#80acd1" stroke="#80acd1" stroke-width="1.51"/><path d="M913,240L867,333L905,355Z" fill="#77a8cf" stroke="#77a8cf" stroke-width="1.51"/><path d="M836,237L723,223L766,356Z" fill="#88b2d4" stroke="#88b2d4" stroke-width="1.51"/><path d="M923,697L1000,670L963,540Z" fill="#308eb6" stroke="#308eb6" stroke-width="1.51"/><path d="M1008,776L1000,670L923,697Z" fill="#2589a6" stroke="#2589a6" stroke-width="1.51"/><path d="M444,445L453,507L542,463Z" fill="#88b2d5" stroke="#88b2d5" stroke-width="1.51"/><path d="M506,371L444,445L542,463Z" fill="#8eb5d6" stroke="#8eb5d6" stroke-width="1.51"/><path d="M571,258L509,337L564,351Z" fill="#9dbada" stroke="#9dbada" stroke-width="1.51"/><path d="M994,422L983,320L936,397Z" fill="#61a0c6" stroke="#61a0c6" stroke-width="1.51"/><path d="M1121,399L983,320L994,422Z" fill="#5c9dbe" stroke="#5c9dbe" stroke-width="1.51"/><path d="M769,786L889,790L851,626Z" fill="#358fab" stroke="#358fab" stroke-width="1.51"/><path d="M678,246L571,258L699,330Z" fill="#95b8d8" stroke="#95b8d8" stroke-width="1.51"/><path d="M522,195L571,258L594,151Z" fill="#acc1dd" stroke="#acc1dd" stroke-width="1.51"/><path d="M410,340L444,445L506,371Z" fill="#9bbad9" stroke="#9bbad9" stroke-width="1.51"/><path d="M836,237L801,183L723,223Z" fill="#90b4d6" stroke="#90b4d6" stroke-width="1.51"/><path d="M983,320L913,240L905,355Z" fill="#75a6cd" stroke="#75a6cd" stroke-width="1.51"/><path d="M1000,670L1061,608L963,540Z" fill="#308eb6" stroke="#308eb6" stroke-width="1.51"/><path d="M1009,498L1079,474L994,422Z" fill="#4898bb" stroke="#4898bb" stroke-width="1.51"/><path d="M1133,626L1061,608L1000,670Z" fill="#288aaa" stroke="#288aaa" stroke-width="1.51"/><path d="M1061,608L1079,474L1009,498Z" fill="#3c92b5" stroke="#3c92b5" stroke-width="1.51"/><path d="M769,786L865,826L889,790Z" fill="#328ba0" stroke="#328ba0" stroke-width="1.51"/><path d="M683,859L765,844L769,786Z" fill="#3d8e9e" stroke="#3d8e9e" stroke-width="1.51"/><path d="M683,859L769,786L664,759Z" fill="#4392a4" stroke="#4392a4" stroke-width="1.51"/><path d="M889,790L944,784L923,697Z" fill="#2789a4" stroke="#2789a4" stroke-width="1.51"/><path d="M971,834L944,784L889,790Z" fill="#24859c" stroke="#24859c" stroke-width="1.51"/><path d="M765,844L865,826L769,786Z" fill="#378c9e" stroke="#378c9e" stroke-width="1.51"/><path d="M870,160L801,183L836,237Z" fill="#8eb3d5" stroke="#8eb3d5" stroke-width="1.51"/><path d="M594,151L571,258L678,246Z" fill="#a3bddb" stroke="#a3bddb" stroke-width="1.51"/><path d="M580,847L683,859L664,759Z" fill="#4e93a2" stroke="#4e93a2" stroke-width="1.51"/><path d="M960,934L971,834L865,826Z" fill="#258192" stroke="#258192" stroke-width="1.51"/><path d="M580,847L664,759L607,728Z" fill="#5498ab" stroke="#5498ab" stroke-width="1.51"/><path d="M944,784L1008,776L923,697Z" fill="#2288a2" stroke="#2288a2" stroke-width="1.51"/><path d="M985,825L1008,776L944,784Z" fill="#1f8498" stroke="#1f8498" stroke-width="1.51"/><path d="M326,505L394,600L453,507Z" fill="#8ab0d4" stroke="#8ab0d4" stroke-width="1.51"/><path d="M453,507L394,600L525,545Z" fill="#81acd1" stroke="#81acd1" stroke-width="1.51"/><path d="M516,824L580,847L607,728Z" fill="#5b98a7" stroke="#5b98a7" stroke-width="1.51"/><path d="M913,240L870,160L836,237Z" fill="#89afd3" stroke="#89afd3" stroke-width="1.51"/><path d="M594,151L678,246L675,116Z" fill="#a6bfdc" stroke="#a6bfdc" stroke-width="1.51"/><path d="M985,186L870,160L913,240Z" fill="#87aed2" stroke="#87aed2" stroke-width="1.51"/><path d="M394,600L400,640L519,639Z" fill="#7aa8ca" stroke="#7aa8ca" stroke-width="1.51"/><path d="M476,785L607,728L519,639Z" fill="#659fb7" stroke="#659fb7" stroke-width="1.51"/><path d="M509,337L410,340L506,371Z" fill="#9fbbda" stroke="#9fbbda" stroke-width="1.51"/><path d="M444,445L326,505L453,507Z" fill="#8eb4d6" stroke="#8eb4d6" stroke-width="1.51"/><path d="M442,265L410,340L509,337Z" fill="#a8bedc" stroke="#a8bedc" stroke-width="1.51"/><path d="M1079,474L1121,399L994,422Z" fill="#4d99b8" stroke="#4d99b8" stroke-width="1.51"/><path d="M983,320L1013,224L913,240Z" fill="#79a8ca" stroke="#79a8ca" stroke-width="1.51"/><path d="M1210,487L1121,399L1079,474Z" fill="#4295ae" stroke="#4295ae" stroke-width="1.51"/><path d="M398,721L476,785L519,639Z" fill="#6fa3b9" stroke="#6fa3b9" stroke-width="1.51"/><path d="M865,826L971,834L889,790Z" fill="#29869b" stroke="#29869b" stroke-width="1.51"/><path d="M840,924L865,826L765,844Z" fill="#348795" stroke="#348795" stroke-width="1.51"/><path d="M683,859L753,902L765,844Z" fill="#3d8c98" stroke="#3d8c98" stroke-width="1.51"/><path d="M682,902L753,902L683,859Z" fill="#418c95" stroke="#418c95" stroke-width="1.51"/><path d="M1061,608L1138,555L1079,474Z" fill="#358faf" stroke="#358faf" stroke-width="1.51"/><path d="M1133,626L1138,555L1061,608Z" fill="#298baa" stroke="#298baa" stroke-width="1.51"/><path d="M1123,761L1133,626L1000,670Z" fill="#1e879e" stroke="#1e879e" stroke-width="1.51"/><path d="M971,834L985,825L944,784Z" fill="#218396" stroke="#218396" stroke-width="1.51"/><path d="M476,785L516,824L607,728Z" fill="#619cac" stroke="#619cac" stroke-width="1.51"/><path d="M1107,248L1013,224L983,320Z" fill="#74a5c2" stroke="#74a5c2" stroke-width="1.51"/><path d="M571,258L442,265L509,337Z" fill="#a7bedc" stroke="#a7bedc" stroke-width="1.51"/><path d="M678,246L723,223L675,116Z" fill="#9cbbda" stroke="#9cbbda" stroke-width="1.51"/><path d="M575,959L682,902L580,847Z" fill="#508f95" stroke="#508f95" stroke-width="1.51"/><path d="M580,847L682,902L683,859Z" fill="#4c909a" stroke="#4c909a" stroke-width="1.51"/><path d="M675,116L723,223L801,183Z" fill="#9abad9" stroke="#9abad9" stroke-width="1.51"/><path d="M522,195L442,265L571,258Z" fill="#aec0dd" stroke="#aec0dd" stroke-width="1.51"/><path d="M1183,597L1133,626L1226,705Z" fill="#1e859a" stroke="#1e859a" stroke-width="1.51"/><path d="M1013,224L985,186L913,240Z" fill="#80abcc" stroke="#80abcc" stroke-width="1.51"/><path d="M786,40L675,116L801,183Z" fill="#9fbddb" stroke="#9fbddb" stroke-width="1.51"/><path d="M400,640L398,721L519,639Z" fill="#76a6c3" stroke="#76a6c3" stroke-width="1.51"/><path d="M476,785L397,825L516,824Z" fill="#699da9" stroke="#699da9" stroke-width="1.51"/><path d="M318,706L398,721L400,640Z" fill="#7ba8c0" stroke="#7ba8c0" stroke-width="1.51"/><path d="M342,360L350,406L410,340Z" fill="#a7bfdc" stroke="#a7bfdc" stroke-width="1.51"/><path d="M410,340L350,406L444,445Z" fill="#9ebbda" stroke="#9ebbda" stroke-width="1.51"/><path d="M394,600L322,580L400,640Z" fill="#84acd0" stroke="#84acd0" stroke-width="1.51"/><path d="M1034,885L1008,776L985,825Z" fill="#1d818f" stroke="#1d818f" stroke-width="1.51"/><path d="M753,902L840,924L765,844Z" fill="#378792" stroke="#378792" stroke-width="1.51"/><path d="M756,1018L840,924L753,902Z" fill="#35818a" stroke="#35818a" stroke-width="1.51"/><path d="M1121,399L1130,324L983,320Z" fill="#619eb9" stroke="#619eb9" stroke-width="1.51"/><path d="M1031,86L972,130L1073,114Z" fill="#8aafc8" stroke="#8aafc8" stroke-width="1.51"/><path d="M1185,388L1130,324L1121,399Z" fill="#579ab0" stroke="#579ab0" stroke-width="1.51"/><path d="M350,406L326,505L444,445Z" fill="#96b9d9" stroke="#96b9d9" stroke-width="1.51"/><path d="M870,160L839,93L801,183Z" fill="#95b6d7" stroke="#95b6d7" stroke-width="1.51"/><path d="M932,64L839,93L870,160Z" fill="#96b6d7" stroke="#96b6d7" stroke-width="1.51"/><path d="M326,505L322,580L394,600Z" fill="#8cb0d4" stroke="#8cb0d4" stroke-width="1.51"/><path d="M291,227L342,360L410,340Z" fill="#b4c3df" stroke="#b4c3df" stroke-width="1.51"/><path d="M350,406L278,479L326,505Z" fill="#9abad9" stroke="#9abad9" stroke-width="1.51"/><path d="M1133,626L1183,597L1138,555Z" fill="#2689a5" stroke="#2689a5" stroke-width="1.51"/><path d="M1210,487L1185,388L1121,399Z" fill="#4895aa" stroke="#4895aa" stroke-width="1.51"/><path d="M1123,761L1000,670L1008,776Z" fill="#1a869a" stroke="#1a869a" stroke-width="1.51"/><path d="M985,186L972,130L870,160Z" fill="#8bb0d1" stroke="#8bb0d1" stroke-width="1.51"/><path d="M972,130L985,186L1073,114Z" fill="#88aec9" stroke="#88aec9" stroke-width="1.51"/><path d="M1130,324L1107,248L983,320Z" fill="#6ca2bc" stroke="#6ca2bc" stroke-width="1.51"/><path d="M1112,844L1123,761L1008,776Z" fill="#13818b" stroke="#13818b" stroke-width="1.51"/><path d="M1034,885L985,825L971,834Z" fill="#1e808d" stroke="#1e808d" stroke-width="1.51"/><path d="M1130,324L1155,309L1107,248Z" fill="#69a1b4" stroke="#69a1b4" stroke-width="1.51"/><path d="M1210,487L1079,474L1138,555Z" fill="#3891ab" stroke="#3891ab" stroke-width="1.51"/><path d="M1185,388L1155,309L1130,324Z" fill="#5d9db0" stroke="#5d9db0" stroke-width="1.51"/><path d="M1183,597L1210,487L1138,555Z" fill="#308ca4" stroke="#308ca4" stroke-width="1.51"/><path d="M960,934L1034,885L971,834Z" fill="#1f7d88" stroke="#1f7d88" stroke-width="1.51"/><path d="M522,195L470,140L442,265Z" fill="#b7c4df" stroke="#b7c4df" stroke-width="1.51"/><path d="M442,265L291,227L410,340Z" fill="#b5c4df" stroke="#b5c4df" stroke-width="1.51"/><path d="M594,151L470,140L522,195Z" fill="#b6c5e0" stroke="#b6c5e0" stroke-width="1.51"/><path d="M457,109L470,140L541,48Z" fill="#c1cae3" stroke="#c1cae3" stroke-width="1.51"/><path d="M617,43L594,151L675,116Z" fill="#afc3df" stroke="#afc3df" stroke-width="1.51"/><path d="M840,924L960,934L865,826Z" fill="#2b818e" stroke="#2b818e" stroke-width="1.51"/><path d="M398,721L397,825L476,785Z" fill="#6fa1af" stroke="#6fa1af" stroke-width="1.51"/><path d="M500,935L575,959L580,847Z" fill="#599195" stroke="#599195" stroke-width="1.51"/><path d="M297,792L397,825L398,721Z" fill="#74a3b0" stroke="#74a3b0" stroke-width="1.51"/><path d="M322,580L318,706L400,640Z" fill="#83acca" stroke="#83acca" stroke-width="1.51"/><path d="M839,93L786,40L801,183Z" fill="#9cbad9" stroke="#9cbad9" stroke-width="1.51"/><path d="M864,5L786,40L839,93Z" fill="#a0bcda" stroke="#a0bcda" stroke-width="1.51"/><path d="M326,505L278,479L322,580Z" fill="#94b6d7" stroke="#94b6d7" stroke-width="1.51"/><path d="M322,580L272,680L318,706Z" fill="#86adc8" stroke="#86adc8" stroke-width="1.51"/><path d="M226,406L278,479L350,406Z" fill="#a3bedc" stroke="#a3bedc" stroke-width="1.51"/><path d="M682,902L688,996L753,902Z" fill="#3f878f" stroke="#3f878f" stroke-width="1.51"/><path d="M840,924L975,1009L960,934Z" fill="#257885" stroke="#257885" stroke-width="1.51"/><path d="M500,935L580,847L516,824Z" fill="#5e959d" stroke="#5e959d" stroke-width="1.51"/><path d="M786,40L703,35L675,116Z" fill="#a7c1de" stroke="#a7c1de" stroke-width="1.51"/><path d="M972,130L932,64L870,160Z" fill="#91b2d5" stroke="#91b2d5" stroke-width="1.51"/><path d="M1031,86L932,64L972,130Z" fill="#8fb2cf" stroke="#8fb2cf" stroke-width="1.51"/><path d="M1073,114L985,186L1013,224Z" fill="#83abc7" stroke="#83abc7" stroke-width="1.51"/><path d="M1155,309L1159,248L1107,248Z" fill="#6ca2b4" stroke="#6ca2b4" stroke-width="1.51"/><path d="M1261,323L1159,248L1155,309Z" fill="#679dad" stroke="#679dad" stroke-width="1.51"/><path d="M1261,323L1155,309L1185,388Z" fill="#5c9aaa" stroke="#5c9aaa" stroke-width="1.51"/><path d="M575,959L688,996L682,902Z" fill="#48878d" stroke="#48878d" stroke-width="1.51"/><path d="M1034,885L1112,844L1008,776Z" fill="#177e89" stroke="#177e89" stroke-width="1.51"/><path d="M1260,679L1259,574L1183,597Z" fill="#228498" stroke="#228498" stroke-width="1.51"/><path d="M1093,951L1112,844L1034,885Z" fill="#14797b" stroke="#14797b" stroke-width="1.51"/><path d="M703,35L617,43L675,116Z" fill="#aec4df" stroke="#aec4df" stroke-width="1.51"/><path d="M397,825L500,935L516,824Z" fill="#6699a0" stroke="#6699a0" stroke-width="1.51"/><path d="M575,959L582,998L688,996Z" fill="#4b848a" stroke="#4b848a" stroke-width="1.51"/><path d="M470,140L291,227L442,265Z" fill="#bdc8e1" stroke="#bdc8e1" stroke-width="1.51"/><path d="M342,360L226,406L350,406Z" fill="#a9c0dd" stroke="#a9c0dd" stroke-width="1.51"/><path d="M541,48L470,140L594,151Z" fill="#bac7e1" stroke="#bac7e1" stroke-width="1.51"/><path d="M688,996L756,1018L753,902Z" fill="#3a8089" stroke="#3a8089" stroke-width="1.51"/><path d="M1210,487L1255,478L1185,388Z" fill="#4092a4" stroke="#4092a4" stroke-width="1.51"/><path d="M1259,574L1255,478L1210,487Z" fill="#368b9e" stroke="#368b9e" stroke-width="1.51"/><path d="M1259,574L1210,487L1183,597Z" fill="#2f8a9f" stroke="#2f8a9f" stroke-width="1.51"/><path d="M234,608L272,680L322,580Z" fill="#8cb0cf" stroke="#8cb0cf" stroke-width="1.51"/><path d="M318,706L297,792L398,721Z" fill="#7aa7b8" stroke="#7aa7b8" stroke-width="1.51"/><path d="M1073,114L1013,224L1107,248Z" fill="#7da9c1" stroke="#7da9c1" stroke-width="1.51"/><path d="M1226,705L1133,626L1123,761Z" fill="#138492" stroke="#138492" stroke-width="1.51"/><path d="M629,6L541,48L617,43Z" fill="#bac9e2" stroke="#bac9e2" stroke-width="1.51"/><path d="M617,43L541,48L594,151Z" fill="#b7c7e1" stroke="#b7c7e1" stroke-width="1.51"/><path d="M1185,793L1226,705L1123,761Z" fill="#037f87" stroke="#037f87" stroke-width="1.51"/><path d="M1159,248L1073,114L1107,248Z" fill="#78a7ba" stroke="#78a7ba" stroke-width="1.51"/><path d="M688,996L582,998L756,1018Z" fill="#417e86" stroke="#417e86" stroke-width="1.51"/><path d="M477,992L582,998L575,959Z" fill="#56888c" stroke="#56888c" stroke-width="1.51"/><path d="M1112,844L1185,793L1123,761Z" fill="#077e84" stroke="#077e84" stroke-width="1.51"/><path d="M932,-14L864,5L932,64Z" fill="#9cb9d9" stroke="#9cb9d9" stroke-width="1.51"/><path d="M932,64L864,5L839,93Z" fill="#9bb9d8" stroke="#9bb9d8" stroke-width="1.51"/><path d="M753,-38L650,-24L703,35Z" fill="#b1c7e0" stroke="#b1c7e0" stroke-width="1.51"/><path d="M703,35L629,6L617,43Z" fill="#b4c7e1" stroke="#b4c7e1" stroke-width="1.51"/><path d="M650,-24L629,6L703,35Z" fill="#b4c8e1" stroke="#b4c8e1" stroke-width="1.51"/><path d="M541,48L433,99L457,109Z" fill="#c4cbe3" stroke="#c4cbe3" stroke-width="1.51"/><path d="M457,109L433,99L470,140Z" fill="#c3cbe3" stroke="#c3cbe3" stroke-width="1.51"/><path d="M294,118L433,99L337,64Z" fill="#cfd1e6" stroke="#cfd1e6" stroke-width="1.51"/><path d="M278,479L234,608L322,580Z" fill="#93b4d6" stroke="#93b4d6" stroke-width="1.51"/><path d="M223,774L297,792L318,706Z" fill="#7ea9b6" stroke="#7ea9b6" stroke-width="1.51"/><path d="M397,825L384,900L500,935Z" fill="#69999c" stroke="#69999c" stroke-width="1.51"/><path d="M500,935L477,992L575,959Z" fill="#5b8c8f" stroke="#5b8c8f" stroke-width="1.51"/><path d="M294,799L297,792L223,774Z" fill="#7da7b1" stroke="#7da7b1" stroke-width="1.51"/><path d="M319,907L384,900L397,825Z" fill="#709d9f" stroke="#709d9f" stroke-width="1.51"/><path d="M1226,705L1260,679L1183,597Z" fill="#1b8292" stroke="#1b8292" stroke-width="1.51"/><path d="M1294,771L1260,679L1226,705Z" fill="#0f7d83" stroke="#0f7d83" stroke-width="1.51"/><path d="M278,479L132,531L234,608Z" fill="#9ab8d8" stroke="#9ab8d8" stroke-width="1.51"/><path d="M219,326L226,406L342,360Z" fill="#b1c3df" stroke="#b1c3df" stroke-width="1.51"/><path d="M297,792L294,799L397,825Z" fill="#77a3ad" stroke="#77a3ad" stroke-width="1.51"/><path d="M223,774L318,706L272,680Z" fill="#82abbd" stroke="#82abbd" stroke-width="1.51"/><path d="M433,99L291,227L470,140Z" fill="#c5cbe3" stroke="#c5cbe3" stroke-width="1.51"/><path d="M756,1018L834,1050L840,924Z" fill="#317883" stroke="#317883" stroke-width="1.51"/><path d="M960,934L1093,951L1034,885Z" fill="#1a787d" stroke="#1a787d" stroke-width="1.51"/><path d="M1112,844L1207,855L1185,793Z" fill="#057a7b" stroke="#057a7b" stroke-width="1.51"/><path d="M582,998L834,1050L756,1018Z" fill="#397a83" stroke="#397a83" stroke-width="1.51"/><path d="M834,1050L975,1009L840,924Z" fill="#297582" stroke="#297582" stroke-width="1.51"/><path d="M1304,430L1185,388L1255,478Z" fill="#4591a1" stroke="#4591a1" stroke-width="1.51"/><path d="M1304,430L1261,323L1185,388Z" fill="#5294a3" stroke="#5294a3" stroke-width="1.51"/><path d="M1220,85L1093,63L1073,114Z" fill="#85adbc" stroke="#85adbc" stroke-width="1.51"/><path d="M1304,430L1255,478L1366,519Z" fill="#3b8b98" stroke="#3b8b98" stroke-width="1.51"/><path d="M629,6L504,-59L541,48Z" fill="#c2cde4" stroke="#c2cde4" stroke-width="1.51"/><path d="M753,-38L703,35L786,40Z" fill="#aac3de" stroke="#aac3de" stroke-width="1.51"/><path d="M864,5L753,-38L786,40Z" fill="#a7c0dc" stroke="#a7c0dc" stroke-width="1.51"/><path d="M384,900L477,992L500,935Z" fill="#639194" stroke="#639194" stroke-width="1.51"/><path d="M582,998L400,1026L834,1050Z" fill="#4b7f85" stroke="#4b7f85" stroke-width="1.51"/><path d="M1185,793L1294,771L1226,705Z" fill="#047c80" stroke="#047c80" stroke-width="1.51"/><path d="M975,1009L1093,951L960,934Z" fill="#1b737b" stroke="#1b737b" stroke-width="1.51"/><path d="M864,5L791,-133L753,-38Z" fill="#aac3df" stroke="#aac3df" stroke-width="1.51"/><path d="M1031,86L932,-14L932,64Z" fill="#95b4d3" stroke="#95b4d3" stroke-width="1.51"/><path d="M1036,-57L932,-14L1031,86Z" fill="#96b6cf" stroke="#96b6cf" stroke-width="1.51"/><path d="M1334,408L1304,430L1366,519Z" fill="#3e8c96" stroke="#3e8c96" stroke-width="1.51"/><path d="M291,227L219,326L342,360Z" fill="#bbc6e1" stroke="#bbc6e1" stroke-width="1.51"/><path d="M163,646L272,680L234,608Z" fill="#8db1cc" stroke="#8db1cc" stroke-width="1.51"/><path d="M1073,114L1093,63L1031,86Z" fill="#8aafc4" stroke="#8aafc4" stroke-width="1.51"/><path d="M1227,140L1073,114L1159,248Z" fill="#7ba7b6" stroke="#7ba7b6" stroke-width="1.51"/><path d="M1162,919L1207,855L1112,844Z" fill="#047875" stroke="#047875" stroke-width="1.51"/><path d="M1093,951L1162,919L1112,844Z" fill="#0b7775" stroke="#0b7775" stroke-width="1.51"/><path d="M1192,1022L1162,919L1093,951Z" fill="#056e6a" stroke="#056e6a" stroke-width="1.51"/><path d="M384,900L400,1026L477,992Z" fill="#658f91" stroke="#658f91" stroke-width="1.51"/><path d="M294,799L319,907L397,825Z" fill="#74a0a6" stroke="#74a0a6" stroke-width="1.51"/><path d="M265,866L319,907L294,799Z" fill="#78a1a5" stroke="#78a1a5" stroke-width="1.51"/><path d="M1337,282L1258,214L1261,323Z" fill="#679aa2" stroke="#679aa2" stroke-width="1.51"/><path d="M1261,323L1258,214L1159,248Z" fill="#6b9eaa" stroke="#6b9eaa" stroke-width="1.51"/><path d="M163,646L223,774L272,680Z" fill="#88aec2" stroke="#88aec2" stroke-width="1.51"/><path d="M163,646L234,608L125,590Z" fill="#94b4d3" stroke="#94b4d3" stroke-width="1.51"/><path d="M1304,430L1334,408L1261,323Z" fill="#4f929c" stroke="#4f929c" stroke-width="1.51"/><path d="M1366,519L1255,478L1259,574Z" fill="#338898" stroke="#338898" stroke-width="1.51"/><path d="M1260,679L1339,618L1259,574Z" fill="#218191" stroke="#218191" stroke-width="1.51"/><path d="M1360,688L1339,618L1260,679Z" fill="#1b7d86" stroke="#1b7d86" stroke-width="1.51"/><path d="M975,1009L1058,1029L1093,951Z" fill="#166e72" stroke="#166e72" stroke-width="1.51"/><path d="M834,1050L1058,1029L975,1009Z" fill="#1f6d79" stroke="#1f6d79" stroke-width="1.51"/><path d="M1317,845L1294,771L1207,855Z" fill="#057670" stroke="#057670" stroke-width="1.51"/><path d="M1207,855L1294,771L1185,793Z" fill="#057978" stroke="#057978" stroke-width="1.51"/><path d="M223,774L265,866L294,799Z" fill="#7da6ad" stroke="#7da6ad" stroke-width="1.51"/><path d="M1214,-4L1087,12L1093,63Z" fill="#8bb0bd" stroke="#8bb0bd" stroke-width="1.51"/><path d="M1093,63L1087,12L1031,86Z" fill="#8cb1c4" stroke="#8cb1c4" stroke-width="1.51"/><path d="M132,531L278,479L226,406Z" fill="#a2bedc" stroke="#a2bedc" stroke-width="1.51"/><path d="M223,774L184,831L265,866Z" fill="#7ea6ac" stroke="#7ea6ac" stroke-width="1.51"/><path d="M1258,214L1227,140L1159,248Z" fill="#73a2ae" stroke="#73a2ae" stroke-width="1.51"/><path d="M337,64L433,99L376,-42Z" fill="#d1d2e7" stroke="#d1d2e7" stroke-width="1.51"/><path d="M433,99L294,118L291,227Z" fill="#cbcee4" stroke="#cbcee4" stroke-width="1.51"/><path d="M208,225L182,305L219,326Z" fill="#c3cbe3" stroke="#c3cbe3" stroke-width="1.51"/><path d="M208,225L219,326L291,227Z" fill="#c4cbe3" stroke="#c4cbe3" stroke-width="1.51"/><path d="M219,326L123,399L226,406Z" fill="#b3c6e0" stroke="#b3c6e0" stroke-width="1.51"/><path d="M504,-59L433,99L541,48Z" fill="#c7cee5" stroke="#c7cee5" stroke-width="1.51"/><path d="M1058,1029L1079,1033L1093,951Z" fill="#126b6e" stroke="#126b6e" stroke-width="1.51"/><path d="M1303,964L1317,845L1207,855Z" fill="#047166" stroke="#047166" stroke-width="1.51"/><path d="M834,1050L1079,1033L1058,1029Z" fill="#1b6a74" stroke="#1b6a74" stroke-width="1.51"/><path d="M1339,618L1366,519L1259,574Z" fill="#2b8292" stroke="#2b8292" stroke-width="1.51"/><path d="M294,118L208,225L291,227Z" fill="#cccfe5" stroke="#cccfe5" stroke-width="1.51"/><path d="M274,106L208,225L294,118Z" fill="#d2d2e7" stroke="#d2d2e7" stroke-width="1.51"/><path d="M985,-75L921,-81L932,-14Z" fill="#9fbbd8" stroke="#9fbbd8" stroke-width="1.51"/><path d="M932,-14L921,-81L864,5Z" fill="#a0bcda" stroke="#a0bcda" stroke-width="1.51"/><path d="M580,-107L629,6L650,-24Z" fill="#bdcce4" stroke="#bdcce4" stroke-width="1.51"/><path d="M123,399L132,531L226,406Z" fill="#a9c2de" stroke="#a9c2de" stroke-width="1.51"/><path d="M319,907L400,1026L384,900Z" fill="#6c9595" stroke="#6c9595" stroke-width="1.51"/><path d="M477,992L400,1026L582,998Z" fill="#5d878b" stroke="#5d878b" stroke-width="1.51"/><path d="M292,1049L400,1026L319,907Z" fill="#6c8f90" stroke="#6c8f90" stroke-width="1.51"/><path d="M670,-120L650,-24L753,-38Z" fill="#b5cbe3" stroke="#b5cbe3" stroke-width="1.51"/><path d="M580,-107L504,-59L629,6Z" fill="#c4d0e5" stroke="#c4d0e5" stroke-width="1.51"/><path d="M282,63L294,118L337,64Z" fill="#d5d3e8" stroke="#d5d3e8" stroke-width="1.51"/><path d="M282,63L274,106L294,118Z" fill="#d6d4e8" stroke="#d6d4e8" stroke-width="1.51"/><path d="M1334,408L1337,282L1261,323Z" fill="#5a959d" stroke="#5a959d" stroke-width="1.51"/><path d="M1258,214L1259,125L1227,140Z" fill="#79a3ab" stroke="#79a3ab" stroke-width="1.51"/><path d="M1414,355L1337,282L1334,408Z" fill="#569196" stroke="#569196" stroke-width="1.51"/><path d="M132,531L125,590L234,608Z" fill="#99b7d7" stroke="#99b7d7" stroke-width="1.51"/><path d="M136,785L184,831L223,774Z" fill="#83aab1" stroke="#83aab1" stroke-width="1.51"/><path d="M1339,618L1416,546L1366,519Z" fill="#2c818d" stroke="#2c818d" stroke-width="1.51"/><path d="M1294,771L1360,688L1260,679Z" fill="#117b7f" stroke="#117b7f" stroke-width="1.51"/><path d="M1036,-57L985,-75L932,-14Z" fill="#9bbad3" stroke="#9bbad3" stroke-width="1.51"/><path d="M1259,125L1220,85L1227,140Z" fill="#7ea6ae" stroke="#7ea6ae" stroke-width="1.51"/><path d="M1227,140L1220,85L1073,114Z" fill="#80aab5" stroke="#80aab5" stroke-width="1.51"/><path d="M1087,12L1036,-57L1031,86Z" fill="#92b3c8" stroke="#92b3c8" stroke-width="1.51"/><path d="M1109,-123L1036,-57L1087,12Z" fill="#95b7c7" stroke="#95b7c7" stroke-width="1.51"/><path d="M274,106L191,210L208,225Z" fill="#d0d1e7" stroke="#d0d1e7" stroke-width="1.51"/><path d="M208,225L191,210L182,305Z" fill="#c9cee5" stroke="#c9cee5" stroke-width="1.51"/><path d="M182,305L123,399L219,326Z" fill="#bbc8e1" stroke="#bbc8e1" stroke-width="1.51"/><path d="M791,-133L864,5L882,-123Z" fill="#a8c3de" stroke="#a8c3de" stroke-width="1.51"/><path d="M791,-133L670,-120L753,-38Z" fill="#b2cbe3" stroke="#b2cbe3" stroke-width="1.51"/><path d="M1387,201L1259,125L1258,214Z" fill="#749fa4" stroke="#749fa4" stroke-width="1.51"/><path d="M87,396L123,399L78,356Z" fill="#b9c9e2" stroke="#b9c9e2" stroke-width="1.51"/><path d="M45,605L100,639L125,590Z" fill="#9ab7d5" stroke="#9ab7d5" stroke-width="1.51"/><path d="M670,-120L580,-107L650,-24Z" fill="#becfe5" stroke="#becfe5" stroke-width="1.51"/><path d="M882,-123L864,5L921,-81Z" fill="#a4bfdc" stroke="#a4bfdc" stroke-width="1.51"/><path d="M1109,-123L882,-123L985,-75Z" fill="#9ebdd5" stroke="#9ebdd5" stroke-width="1.51"/><path d="M985,-75L882,-123L921,-81Z" fill="#a2bfdb" stroke="#a2bfdb" stroke-width="1.51"/><path d="M580,-107L536,-100L504,-59Z" fill="#cad4e8" stroke="#cad4e8" stroke-width="1.51"/><path d="M302,-31L282,63L337,64Z" fill="#d9d6e9" stroke="#d9d6e9" stroke-width="1.51"/><path d="M265,866L257,948L319,907Z" fill="#769e9c" stroke="#769e9c" stroke-width="1.51"/><path d="M136,785L223,774L163,646Z" fill="#87aebc" stroke="#87aebc" stroke-width="1.51"/><path d="M376,-42L433,99L504,-59Z" fill="#cfd2e7" stroke="#cfd2e7" stroke-width="1.51"/><path d="M274,106L193,97L191,210Z" fill="#d6d4e8" stroke="#d6d4e8" stroke-width="1.51"/><path d="M1303,964L1207,855L1162,919Z" fill="#047268" stroke="#047268" stroke-width="1.51"/><path d="M1294,771L1399,748L1360,688Z" fill="#0a7876" stroke="#0a7876" stroke-width="1.51"/><path d="M188,961L257,948L265,866Z" fill="#789d9b" stroke="#789d9b" stroke-width="1.51"/><path d="M1259,125L1241,66L1220,85Z" fill="#80a7ae" stroke="#80a7ae" stroke-width="1.51"/><path d="M1220,85L1214,-4L1093,63Z" fill="#86adb8" stroke="#86adb8" stroke-width="1.51"/><path d="M1328,30L1241,66L1259,125Z" fill="#81a7aa" stroke="#81a7aa" stroke-width="1.51"/><path d="M125,590L100,639L163,646Z" fill="#96b5d2" stroke="#96b5d2" stroke-width="1.51"/><path d="M45,605L125,590L132,531Z" fill="#9db9d9" stroke="#9db9d9" stroke-width="1.51"/><path d="M1440,410L1414,355L1334,408Z" fill="#4b8c92" stroke="#4b8c92" stroke-width="1.51"/><path d="M1476,682L1416,546L1339,618Z" fill="#227985" stroke="#227985" stroke-width="1.51"/><path d="M1476,682L1339,618L1360,688Z" fill="#1b797f" stroke="#1b797f" stroke-width="1.51"/><path d="M416,-85L376,-42L504,-59Z" fill="#d4d7ea" stroke="#d4d7ea" stroke-width="1.51"/><path d="M1079,1033L1192,1022L1093,951Z" fill="#0b6b69" stroke="#0b6b69" stroke-width="1.51"/><path d="M188,961L205,977L257,948Z" fill="#779996" stroke="#779996" stroke-width="1.51"/><path d="M100,639L136,785L163,646Z" fill="#8fb2c6" stroke="#8fb2c6" stroke-width="1.51"/><path d="M123,399L59,453L132,531Z" fill="#aac3de" stroke="#aac3de" stroke-width="1.51"/><path d="M78,356L123,399L182,305Z" fill="#bccae2" stroke="#bccae2" stroke-width="1.51"/><path d="M1414,853L1361,807L1317,845Z" fill="#037064" stroke="#037064" stroke-width="1.51"/><path d="M1317,845L1361,807L1294,771Z" fill="#05746d" stroke="#05746d" stroke-width="1.51"/><path d="M1337,282L1387,201L1258,214Z" fill="#6c9b9f" stroke="#6c9b9f" stroke-width="1.51"/><path d="M1442,485L1334,408L1366,519Z" fill="#3a8890" stroke="#3a8890" stroke-width="1.51"/><path d="M346,-102L536,-100L580,-107Z" fill="#d1d7ea" stroke="#d1d7ea" stroke-width="1.51"/><path d="M346,-102L416,-85L536,-100Z" fill="#d6d9eb" stroke="#d6d9eb" stroke-width="1.51"/><path d="M536,-100L416,-85L504,-59Z" fill="#d0d6e9" stroke="#d0d6e9" stroke-width="1.51"/><path d="M1361,807L1399,748L1294,771Z" fill="#05766f" stroke="#05766f" stroke-width="1.51"/><path d="M1416,546L1442,485L1366,519Z" fill="#33818b" stroke="#33818b" stroke-width="1.51"/><path d="M1555,571L1442,485L1416,546Z" fill="#2e7a85" stroke="#2e7a85" stroke-width="1.51"/><path d="M87,396L59,453L123,399Z" fill="#b3c7e1" stroke="#b3c7e1" stroke-width="1.51"/><path d="M78,206L78,356L182,305Z" fill="#c8cee5" stroke="#c8cee5" stroke-width="1.51"/><path d="M78,206L182,305L191,210Z" fill="#ccd0e6" stroke="#ccd0e6" stroke-width="1.51"/><path d="M1241,66L1214,-4L1220,85Z" fill="#84abb1" stroke="#84abb1" stroke-width="1.51"/><path d="M1036,-57L1109,-123L985,-75Z" fill="#99bacd" stroke="#99bacd" stroke-width="1.51"/><path d="M1278,-39L1214,-4L1241,66Z" fill="#88acb0" stroke="#88acb0" stroke-width="1.51"/><path d="M1399,748L1415,720L1360,688Z" fill="#0f7675" stroke="#0f7675" stroke-width="1.51"/><path d="M5,380L59,453L87,396Z" fill="#b6c9e2" stroke="#b6c9e2" stroke-width="1.51"/><path d="M1442,485L1440,410L1334,408Z" fill="#41888f" stroke="#41888f" stroke-width="1.51"/><path d="M282,63L193,97L274,106Z" fill="#d8d6e9" stroke="#d8d6e9" stroke-width="1.51"/><path d="M152,2L193,97L282,63Z" fill="#ded9eb" stroke="#ded9eb" stroke-width="1.51"/><path d="M302,-31L337,64L376,-42Z" fill="#d9d7e9" stroke="#d9d7e9" stroke-width="1.51"/><path d="M400,1026L292,1049L834,1050Z" fill="#588186" stroke="#588186" stroke-width="1.51"/><path d="M257,948L292,1049L319,907Z" fill="#729594" stroke="#729594" stroke-width="1.51"/><path d="M205,977L292,1049L257,948Z" fill="#739492" stroke="#739492" stroke-width="1.51"/><path d="M346,-102L302,-31L376,-42Z" fill="#dddbeb" stroke="#dddbeb" stroke-width="1.51"/><path d="M1407,154L1387,201L1432,187Z" fill="#709898" stroke="#709898" stroke-width="1.51"/><path d="M1434,206L1387,201L1337,282Z" fill="#6a9798" stroke="#6a9798" stroke-width="1.51"/><path d="M136,785L51,871L184,831Z" fill="#85aaad" stroke="#85aaad" stroke-width="1.51"/><path d="M100,639L96,782L136,785Z" fill="#8bb1be" stroke="#8bb1be" stroke-width="1.51"/><path d="M-46,769L96,782L100,639Z" fill="#90b3c0" stroke="#90b3c0" stroke-width="1.51"/><path d="M193,97L151,134L191,210Z" fill="#d7d5e8" stroke="#d7d5e8" stroke-width="1.51"/><path d="M94,154L151,134L43,90Z" fill="#dfd9eb" stroke="#dfd9eb" stroke-width="1.51"/><path d="M1192,1022L1303,964L1162,919Z" fill="#046a62" stroke="#046a62" stroke-width="1.51"/><path d="M1508,748L1415,720L1399,748Z" fill="#09706d" stroke="#09706d" stroke-width="1.51"/><path d="M1508,748L1476,682L1415,720Z" fill="#0e6f6f" stroke="#0e6f6f" stroke-width="1.51"/><path d="M59,453L45,605L132,531Z" fill="#a4bedc" stroke="#a4bedc" stroke-width="1.51"/><path d="M188,961L265,866L184,831Z" fill="#7ca2a2" stroke="#7ca2a2" stroke-width="1.51"/><path d="M91,937L188,961L184,831Z" fill="#7ea29f" stroke="#7ea29f" stroke-width="1.51"/><path d="M1170,-86L1109,-123L1087,12Z" fill="#92b6c2" stroke="#92b6c2" stroke-width="1.51"/><path d="M882,-123L1256,-147L791,-133Z" fill="#a1bfd8" stroke="#a1bfd8" stroke-width="1.51"/><path d="M1278,-39L1170,-86L1214,-4Z" fill="#8cb0b5" stroke="#8cb0b5" stroke-width="1.51"/><path d="M1214,-4L1170,-86L1087,12Z" fill="#8eb3bc" stroke="#8eb3bc" stroke-width="1.51"/><path d="M152,2L151,134L193,97Z" fill="#dfdaec" stroke="#dfdaec" stroke-width="1.51"/><path d="M416,-85L346,-102L376,-42Z" fill="#dadaeb" stroke="#dadaeb" stroke-width="1.51"/><path d="M216,-120L346,-102L580,-107Z" fill="#dcdcec" stroke="#dcdcec" stroke-width="1.51"/><path d="M216,-120L580,-107L670,-120Z" fill="#d2d8ea" stroke="#d2d8ea" stroke-width="1.51"/><path d="M94,154L78,206L191,210Z" fill="#d5d4e8" stroke="#d5d4e8" stroke-width="1.51"/><path d="M78,356L5,380L87,396Z" fill="#bccbe3" stroke="#bccbe3" stroke-width="1.51"/><path d="M59,453L-22,518L45,605Z" fill="#a7c0dd" stroke="#a7c0dd" stroke-width="1.51"/><path d="M94,154L191,210L151,134Z" fill="#d7d5e9" stroke="#d7d5e9" stroke-width="1.51"/><path d="M1414,853L1399,748L1361,807Z" fill="#047167" stroke="#047167" stroke-width="1.51"/><path d="M1415,720L1476,682L1360,688Z" fill="#147577" stroke="#147577" stroke-width="1.51"/><path d="M1442,485L1509,411L1440,410Z" fill="#3f828a" stroke="#3f828a" stroke-width="1.51"/><path d="M1385,925L1414,853L1317,845Z" fill="#026d5d" stroke="#026d5d" stroke-width="1.51"/><path d="M1387,201L1407,154L1259,125Z" fill="#759e9e" stroke="#759e9e" stroke-width="1.51"/><path d="M1434,206L1337,282L1414,355Z" fill="#629395" stroke="#629395" stroke-width="1.51"/><path d="M1434,206L1414,355L1506,360Z" fill="#5c8c8f" stroke="#5c8c8f" stroke-width="1.51"/><path d="M1506,360L1414,355L1440,410Z" fill="#4d878d" stroke="#4d878d" stroke-width="1.51"/><path d="M152,2L282,63L204,-64Z" fill="#e2dcec" stroke="#e2dcec" stroke-width="1.51"/><path d="M1303,964L1385,925L1317,845Z" fill="#026c5b" stroke="#026c5b" stroke-width="1.51"/><path d="M1192,1022L1274,1052L1303,964Z" fill="#046358" stroke="#046358" stroke-width="1.51"/><path d="M1079,1033L1274,1052L1192,1022Z" fill="#05645d" stroke="#05645d" stroke-width="1.51"/><path d="M834,1050L1274,1052L1079,1033Z" fill="#13676a" stroke="#13676a" stroke-width="1.51"/><path d="M292,1049L1274,1052L834,1050Z" fill="#30727c" stroke="#30727c" stroke-width="1.51"/><path d="M1407,154L1328,30L1259,125Z" fill="#7ca3a2" stroke="#7ca3a2" stroke-width="1.51"/><path d="M1434,206L1432,187L1387,201Z" fill="#6d9696" stroke="#6d9696" stroke-width="1.51"/><path d="M1478,50L1340,-9L1328,30Z" fill="#81a39f" stroke="#81a39f" stroke-width="1.51"/><path d="M1387,1017L1385,925L1303,964Z" fill="#016452" stroke="#016452" stroke-width="1.51"/><path d="M-31,326L78,356L-33,262Z" fill="#cad2e7" stroke="#cad2e7" stroke-width="1.51"/><path d="M-31,326L5,380L78,356Z" fill="#c2cee5" stroke="#c2cee5" stroke-width="1.51"/><path d="M1328,30L1278,-39L1241,66Z" fill="#85a9ab" stroke="#85a9ab" stroke-width="1.51"/><path d="M1170,-86L1256,-147L1109,-123Z" fill="#92b7bc" stroke="#92b7bc" stroke-width="1.51"/><path d="M1434,206L1535,187L1432,187Z" fill="#6b9192" stroke="#6b9192" stroke-width="1.51"/><path d="M1578,471L1509,411L1442,485Z" fill="#397d85" stroke="#397d85" stroke-width="1.51"/><path d="M1509,411L1506,360L1440,410Z" fill="#488389" stroke="#488389" stroke-width="1.51"/><path d="M45,605L-46,769L100,639Z" fill="#96b7cc" stroke="#96b7cc" stroke-width="1.51"/><path d="M5,380L-22,518L59,453Z" fill="#b0c8e1" stroke="#b0c8e1" stroke-width="1.51"/><path d="M-22,518L-21,568L45,605Z" fill="#a3bfdc" stroke="#a3bfdc" stroke-width="1.51"/><path d="M91,937L174,1039L188,961Z" fill="#7a9995" stroke="#7a9995" stroke-width="1.51"/><path d="M91,937L184,831L51,871Z" fill="#83a6a5" stroke="#83a6a5" stroke-width="1.51"/><path d="M188,961L174,1039L205,977Z" fill="#779593" stroke="#779593" stroke-width="1.51"/><path d="M205,977L174,1039L292,1049Z" fill="#72908e" stroke="#72908e" stroke-width="1.51"/><path d="M51,871L136,785L96,782Z" fill="#88acb1" stroke="#88acb1" stroke-width="1.51"/><path d="M-14,854L51,871L96,782Z" fill="#89acae" stroke="#89acae" stroke-width="1.51"/><path d="M1328,30L1340,-9L1278,-39Z" fill="#86a9a8" stroke="#86a9a8" stroke-width="1.51"/><path d="M1278,-39L1256,-147L1170,-86Z" fill="#8eb3b4" stroke="#8eb3b4" stroke-width="1.51"/><path d="M1478,50L1328,30L1407,154Z" fill="#7b9e9c" stroke="#7b9e9c" stroke-width="1.51"/><path d="M-33,262L78,356L78,206Z" fill="#ced2e8" stroke="#ced2e8" stroke-width="1.51"/><path d="M204,-64L282,63L302,-31Z" fill="#e0dbec" stroke="#e0dbec" stroke-width="1.51"/><path d="M1476,682L1555,571L1416,546Z" fill="#237481" stroke="#237481" stroke-width="1.51"/><path d="M1414,853L1508,748L1399,748Z" fill="#046e66" stroke="#046e66" stroke-width="1.51"/><path d="M1540,807L1508,748L1414,853Z" fill="#04685e" stroke="#04685e" stroke-width="1.51"/><path d="M216,-120L204,-64L302,-31Z" fill="#e5e0ee" stroke="#e5e0ee" stroke-width="1.51"/><path d="M5,380L-85,437L-22,518Z" fill="#b3cbe2" stroke="#b3cbe2" stroke-width="1.51"/><path d="M-102,600L-52,632L-21,568Z" fill="#a1bedc" stroke="#a1bedc" stroke-width="1.51"/><path d="M-33,262L78,206L-20,147Z" fill="#d9d8eb" stroke="#d9d8eb" stroke-width="1.51"/><path d="M1548,653L1555,571L1476,682Z" fill="#1c6e77" stroke="#1c6e77" stroke-width="1.51"/><path d="M1509,411L1578,471L1506,360Z" fill="#427d84" stroke="#427d84" stroke-width="1.51"/><path d="M1508,748L1548,653L1476,682Z" fill="#136d6f" stroke="#136d6f" stroke-width="1.51"/><path d="M1385,925L1486,907L1414,853Z" fill="#016755" stroke="#016755" stroke-width="1.51"/><path d="M1274,1052L1387,1017L1303,964Z" fill="#026051" stroke="#026051" stroke-width="1.51"/><path d="M-21,568L-52,632L45,605Z" fill="#9fbcda" stroke="#9fbcda" stroke-width="1.51"/><path d="M-102,600L-21,568L-22,518Z" fill="#a6c1dd" stroke="#a6c1dd" stroke-width="1.51"/><path d="M-20,147L78,206L94,154Z" fill="#dcd9ea" stroke="#dcd9ea" stroke-width="1.51"/><path d="M-31,326L-85,437L5,380Z" fill="#c0cfe5" stroke="#c0cfe5" stroke-width="1.51"/><path d="M152,2L43,90L151,134Z" fill="#e2dced" stroke="#e2dced" stroke-width="1.51"/><path d="M31,-19L43,90L152,2Z" fill="#eae0ef" stroke="#eae0ef" stroke-width="1.51"/><path d="M1555,571L1578,471L1442,485Z" fill="#317781" stroke="#317781" stroke-width="1.51"/><path d="M1564,214L1535,187L1434,206Z" fill="#688d8e" stroke="#688d8e" stroke-width="1.51"/><path d="M1508,79L1478,50L1407,154Z" fill="#779896" stroke="#779896" stroke-width="1.51"/><path d="M1548,653L1578,471L1555,571Z" fill="#276f7c" stroke="#276f7c" stroke-width="1.51"/><path d="M204,-64L122,-92L152,2Z" fill="#e9e2f0" stroke="#e9e2f0" stroke-width="1.51"/><path d="M346,-102L216,-120L302,-31Z" fill="#e3dfee" stroke="#e3dfee" stroke-width="1.51"/><path d="M791,-133L216,-120L670,-120Z" fill="#cad5e9" stroke="#cad5e9" stroke-width="1.51"/><path d="M1349,-152L1256,-147L1278,-39Z" fill="#8db1ae" stroke="#8db1ae" stroke-width="1.51"/><path d="M1109,-123L1256,-147L882,-123Z" fill="#99bcc9" stroke="#99bcc9" stroke-width="1.51"/><path d="M-36,-141L86,-123L216,-120Z" fill="#f3eaf4" stroke="#f3eaf4" stroke-width="1.51"/><path d="M1442,1012L1486,907L1385,925Z" fill="#01604d" stroke="#01604d" stroke-width="1.51"/><path d="M1508,748L1540,807L1548,653Z" fill="#096866" stroke="#096866" stroke-width="1.51"/><path d="M-19,940L46,987L91,937Z" fill="#82a19b" stroke="#82a19b" stroke-width="1.51"/><path d="M91,937L46,987L174,1039Z" fill="#7d9996" stroke="#7d9996" stroke-width="1.51"/><path d="M-52,632L-46,769L45,605Z" fill="#99b9ce" stroke="#99b9ce" stroke-width="1.51"/><path d="M-46,769L-14,854L96,782Z" fill="#8cb0b5" stroke="#8cb0b5" stroke-width="1.51"/><path d="M-136,321L-85,437L-31,326Z" fill="#c5d3e7" stroke="#c5d3e7" stroke-width="1.51"/><path d="M-52,632L-136,671L-46,769Z" fill="#99bbcb" stroke="#99bbcb" stroke-width="1.51"/><path d="M1486,907L1540,807L1414,853Z" fill="#036557" stroke="#036557" stroke-width="1.51"/><path d="M1548,653L1548,914L1578,471Z" fill="#15686d" stroke="#15686d" stroke-width="1.51"/><path d="M1564,214L1434,206L1506,360Z" fill="#618a8d" stroke="#618a8d" stroke-width="1.51"/><path d="M1340,-9L1349,-152L1278,-39Z" fill="#89ada9" stroke="#89ada9" stroke-width="1.51"/><path d="M-85,437L-96,472L-22,518Z" fill="#b1cae2" stroke="#b1cae2" stroke-width="1.51"/><path d="M-136,321L-96,472L-85,437Z" fill="#bdd0e6" stroke="#bdd0e6" stroke-width="1.51"/><path d="M-19,940L91,937L51,871Z" fill="#85a6a0" stroke="#85a6a0" stroke-width="1.51"/><path d="M1387,1017L1442,1012L1385,925Z" fill="#015e4c" stroke="#015e4c" stroke-width="1.51"/><path d="M1486,907L1548,914L1540,807Z" fill="#026050" stroke="#026050" stroke-width="1.51"/><path d="M1274,1052L1442,1012L1387,1017Z" fill="#015c4a" stroke="#015c4a" stroke-width="1.51"/><path d="M-33,262L-86,263L-31,326Z" fill="#d1d6e9" stroke="#d1d6e9" stroke-width="1.51"/><path d="M43,90L-20,147L94,154Z" fill="#e1dcec" stroke="#e1dcec" stroke-width="1.51"/><path d="M-21,84L-20,147L43,90Z" fill="#e5dfee" stroke="#e5dfee" stroke-width="1.51"/><path d="M-96,472L-102,600L-22,518Z" fill="#abc5df" stroke="#abc5df" stroke-width="1.51"/><path d="M1508,79L1407,154L1432,187Z" fill="#739696" stroke="#739696" stroke-width="1.51"/><path d="M1535,187L1508,79L1432,187Z" fill="#709291" stroke="#709291" stroke-width="1.51"/><path d="M1578,471L1564,214L1506,360Z" fill="#508085" stroke="#508085" stroke-width="1.51"/><path d="M1564,214L1508,79L1535,187Z" fill="#6d8d8d" stroke="#6d8d8d" stroke-width="1.51"/><path d="M216,-120L122,-92L204,-64Z" fill="#eae3f0" stroke="#eae3f0" stroke-width="1.51"/><path d="M-20,147L-86,263L-33,262Z" fill="#d9daeb" stroke="#d9daeb" stroke-width="1.51"/><path d="M-14,854L-19,940L51,871Z" fill="#88aaa5" stroke="#88aaa5" stroke-width="1.51"/><path d="M-78,849L-19,940L-14,854Z" fill="#8aada8" stroke="#8aada8" stroke-width="1.51"/><path d="M-78,849L-14,854L-46,769Z" fill="#8db1b2" stroke="#8db1b2" stroke-width="1.51"/><path d="M-20,147L-127,153L-86,263Z" fill="#dfdeed" stroke="#dfdeed" stroke-width="1.51"/><path d="M31,-19L-21,84L43,90Z" fill="#e9e1ef" stroke="#e9e1ef" stroke-width="1.51"/><path d="M1442,1012L1514,975L1486,907Z" fill="#015a48" stroke="#015a48" stroke-width="1.51"/><path d="M1514,975L1548,914L1486,907Z" fill="#015b49" stroke="#015b49" stroke-width="1.51"/><path d="M1540,807L1548,914L1548,653Z" fill="#04645c" stroke="#04645c" stroke-width="1.51"/><path d="M1467,-30L1340,-9L1478,50Z" fill="#81a09c" stroke="#81a09c" stroke-width="1.51"/><path d="M1429,-78L1349,-152L1340,-9Z" fill="#88aba3" stroke="#88aba3" stroke-width="1.51"/><path d="M1256,-147L1349,-152L791,-133Z" fill="#96bbc3" stroke="#96bbc3" stroke-width="1.51"/><path d="M-141,762L-78,849L-46,769Z" fill="#91b6b8" stroke="#91b6b8" stroke-width="1.51"/><path d="M122,-92L31,-19L152,2Z" fill="#ece3f1" stroke="#ece3f1" stroke-width="1.51"/><path d="M1531,-78L1467,-30L1567,-41Z" fill="#809a94" stroke="#809a94" stroke-width="1.51"/><path d="M1467,-30L1478,50L1567,-41Z" fill="#7e9995" stroke="#7e9995" stroke-width="1.51"/><path d="M1467,-30L1429,-78L1340,-9Z" fill="#84a49f" stroke="#84a49f" stroke-width="1.51"/><path d="M-102,600L-136,671L-52,632Z" fill="#a0bed6" stroke="#a0bed6" stroke-width="1.51"/><path d="M-96,472L-136,671L-102,600Z" fill="#a6c2de" stroke="#a6c2de" stroke-width="1.51"/><path d="M-136,321L-136,671L-96,472Z" fill="#b2cbe3" stroke="#b2cbe3" stroke-width="1.51"/><path d="M-123,903L-26,977L-19,940Z" fill="#87a79f" stroke="#87a79f" stroke-width="1.51"/><path d="M-19,940L-26,977L46,987Z" fill="#82a09b" stroke="#82a09b" stroke-width="1.51"/><path d="M46,987L-26,977L174,1039Z" fill="#7e9994" stroke="#7e9994" stroke-width="1.51"/><path d="M-86,263L-136,321L-31,326Z" fill="#cfd6ea" stroke="#cfd6ea" stroke-width="1.51"/><path d="M-127,153L-136,321L-86,263Z" fill="#d9dcec" stroke="#d9dcec" stroke-width="1.51"/><path d="M122,-92L86,-123L31,-19Z" fill="#f0e6f3" stroke="#f0e6f3" stroke-width="1.51"/><path d="M216,-120L86,-123L122,-92Z" fill="#eee7f2" stroke="#eee7f2" stroke-width="1.51"/><path d="M-36,-141L216,-120L791,-133Z" fill="#e2e1ee" stroke="#e2e1ee" stroke-width="1.51"/><path d="M-136,671L-141,762L-46,769Z" fill="#96bac3" stroke="#96bac3" stroke-width="1.51"/><path d="M-78,849L-123,903L-19,940Z" fill="#8bada6" stroke="#8bada6" stroke-width="1.51"/><path d="M-136,321L-141,762L-136,671Z" fill="#a7c3df" stroke="#a7c3df" stroke-width="1.51"/><path d="M-136,100L-127,153L-20,147Z" fill="#e7e2ef" stroke="#e7e2ef" stroke-width="1.51"/><path d="M-136,100L-20,147L-21,84Z" fill="#e7e2ef" stroke="#e7e2ef" stroke-width="1.51"/><path d="M-43,-43L-21,84L31,-19Z" fill="#eee5f1" stroke="#eee5f1" stroke-width="1.51"/><path d="M-141,762L-123,903L-78,849Z" fill="#8fb3b1" stroke="#8fb3b1" stroke-width="1.51"/><path d="M-36,-141L-43,-43L31,-19Z" fill="#f4ebf4" stroke="#f4ebf4" stroke-width="1.51"/><path d="M1567,-41L1478,50L1508,79Z" fill="#7a9692" stroke="#7a9692" stroke-width="1.51"/><path d="M1467,-30L1531,-78L1429,-78Z" fill="#82a099" stroke="#82a099" stroke-width="1.51"/><path d="M1429,-78L1531,-78L1349,-152Z" fill="#86a69e" stroke="#86a69e" stroke-width="1.51"/><path d="M-93,-38L-136,100L-21,84Z" fill="#eee6f2" stroke="#eee6f2" stroke-width="1.51"/><path d="M-127,153L-136,100L-136,321Z" fill="#e1e0ef" stroke="#e1e0ef" stroke-width="1.51"/><path d="M-136,321L-136,100L-141,762Z" fill="#c1d2e7" stroke="#c1d2e7" stroke-width="1.51"/><path d="M1578,471L1567,-41L1564,214Z" fill="#648688" stroke="#648688" stroke-width="1.51"/><path d="M1564,214L1567,-41L1508,79Z" fill="#74908e" stroke="#74908e" stroke-width="1.51"/><path d="M-123,903L-138,977L-26,977Z" fill="#87a79f" stroke="#87a79f" stroke-width="1.51"/><path d="M-26,977L-138,977L174,1039Z" fill="#809c96" stroke="#809c96" stroke-width="1.51"/><path d="M-141,762L-138,977L-123,903Z" fill="#8eb1aa" stroke="#8eb1aa" stroke-width="1.51"/><path d="M-43,-43L-93,-38L-21,84Z" fill="#f1e7f3" stroke="#f1e7f3" stroke-width="1.51"/><path d="M-66,-101L-93,-38L-43,-43Z" fill="#f5edf5" stroke="#f5edf5" stroke-width="1.51"/><path d="M-36,-141L-66,-101L-43,-43Z" fill="#f7eef6" stroke="#f7eef6" stroke-width="1.51"/><path d="M1349,-152L-36,-141L791,-133Z" fill="#b8cfe5" stroke="#b8cfe5" stroke-width="1.51"/><path d="M86,-123L-36,-141L31,-19Z" fill="#f3eaf4" stroke="#f3eaf4" stroke-width="1.51"/></svg>